<svg width="124" height="124" viewBox="0 0 124 124" fill="none" xmlns="http://www.w3.org/2000/svg">
<circle cx="62" cy="62" r="62" fill="#E9F6F6"/>
<path d="M73.0087 28.4785H50.9911C48.0272 28.4785 45.6228 30.8323 45.6228 33.7259V88.7557C45.6228 91.6568 48.0272 94.0031 50.9911 94.0031H73.0087C75.9726 94.0031 78.3769 91.6493 78.3769 88.7557V33.7259C78.3769 30.8323 75.9726 28.4785 73.0087 28.4785Z" stroke="#25272A" stroke-width="1.5" stroke-miterlimit="10"/>
<path d="M66.8542 31.6344H57.1157C55.422 31.6344 54.0535 30.2776 54.0535 28.5985C54.0535 28.531 54.1064 28.4785 54.1744 28.4785H69.7954C69.8635 28.4785 69.9164 28.531 69.9164 28.5985C69.9164 30.2701 68.5403 31.6344 66.8542 31.6344Z" stroke="#25272A" stroke-width="1.5" stroke-miterlimit="10"/>
<path d="M54.0535 90.4648H71.4966" stroke="#25272A" stroke-width="1.5" stroke-linecap="round"/>
<path d="M67.3151 50.8467C65.387 50.8467 63.7009 51.8737 62.7785 53.4029C61.856 51.8737 60.1699 50.8467 58.2419 50.8467C55.3158 50.8467 52.9492 53.193 52.9492 56.094C52.9492 62.091 60.9941 68.088 62.7785 68.088C64.5629 68.088 72.6077 62.091 72.6077 56.094C72.6077 53.2005 70.2336 50.8467 67.3151 50.8467Z" stroke="#25272A" stroke-width="1.5" stroke-miterlimit="10"/>
<path d="M93.3048 44.7703C92.5488 44.7703 91.939 44.1657 91.939 43.4161C91.939 43.1622 91.7317 42.9688 91.4878 42.9688C91.2317 42.9688 91.0366 43.1743 91.0366 43.4161C91.0366 44.1657 90.4268 44.7703 89.6707 44.7703C89.4146 44.7703 89.2195 44.9758 89.2195 45.2176C89.2195 45.4715 89.4268 45.665 89.6707 45.665C90.4268 45.665 91.0366 46.2695 91.0366 47.0191C91.0366 47.273 91.2439 47.4665 91.4878 47.4665C91.7439 47.4665 91.939 47.261 91.939 47.0191C91.939 46.2695 92.5488 45.665 93.3048 45.665C93.5609 45.665 93.7561 45.4594 93.7561 45.2176C93.7561 44.9758 93.5609 44.7703 93.3048 44.7703ZM91.4878 45.6892C91.3536 45.5078 91.1951 45.3627 91.0244 45.2297C91.2073 45.0967 91.3536 44.9395 91.4878 44.7703C91.6219 44.9516 91.7805 45.0967 91.9512 45.2297C91.7805 45.3506 91.6219 45.5078 91.4878 45.6892Z" fill="#25272A"/>
<path d="M88.6902 34.5726C87.808 34.5726 87.1024 33.8626 87.1024 32.9984C87.1024 32.7103 86.8637 32.4736 86.5731 32.4736C86.2825 32.4736 86.0438 32.7103 86.0438 32.9984C86.0438 33.8729 85.3278 34.5726 84.456 34.5726C84.1654 34.5726 83.9268 34.8092 83.9268 35.0973C83.9268 35.3854 84.1654 35.6221 84.456 35.6221C85.3381 35.6221 86.0438 36.332 86.0438 37.1963C86.0438 37.4844 86.2825 37.721 86.5731 37.721C86.8637 37.721 87.1024 37.4844 87.1024 37.1963C87.1024 36.3217 87.8184 35.6221 88.6902 35.6221C88.9807 35.6221 89.2194 35.3854 89.2194 35.0973C89.2194 34.8092 88.9807 34.5726 88.6902 34.5726ZM86.5627 35.6426C86.4071 35.4369 86.2203 35.2516 86.0127 35.0973C86.2203 34.943 86.4071 34.7578 86.5627 34.552C86.7184 34.7578 86.9052 34.943 87.1127 35.0973C86.9052 35.2516 86.7184 35.4369 86.5627 35.6426Z" fill="#25272A"/>
</svg>
