<svg width="336" height="228" viewBox="0 0 336 228" fill="none" xmlns="http://www.w3.org/2000/svg">
<g clip-path="url(#clip0)">
<path d="M293.49 39.5449C293.44 39.2878 293.608 39.0392 293.865 38.9895C294.123 38.9399 294.371 39.1081 294.421 39.3652L293.49 39.5449ZM293.957 55.0081C293.86 55.251 293.583 55.3687 293.34 55.2709C293.098 55.1731 292.98 54.897 293.078 54.6541L293.957 55.0081ZM257.276 67.7823C257.045 67.6584 256.958 67.371 257.082 67.1403C257.206 66.9096 257.494 66.823 257.724 66.9469L257.276 67.7823ZM261.169 68.4876C261.416 68.5752 261.545 68.8462 261.457 69.093C261.37 69.3397 261.099 69.4687 260.852 69.3811L261.169 68.4876ZM292.511 55.8262C292.642 55.5998 292.932 55.5227 293.159 55.6542C293.385 55.7856 293.462 56.0757 293.331 56.3022L292.511 55.8262ZM292.387 57.6043C292.211 57.7981 291.912 57.8123 291.718 57.6362C291.524 57.4601 291.51 57.1602 291.686 56.9665L292.387 57.6043ZM291.146 57.4829C291.348 57.3161 291.647 57.3445 291.813 57.5464C291.98 57.7482 291.952 58.047 291.75 58.2138L291.146 57.4829ZM290.126 59.1559C289.881 59.2476 289.608 59.1232 289.516 58.878C289.424 58.6328 289.549 58.3596 289.794 58.2678L290.126 59.1559ZM289.309 58.4215C289.562 58.3556 289.821 58.5077 289.887 58.7611C289.953 59.0146 289.801 59.2734 289.547 59.3392L289.309 58.4215ZM286.745 58.9896L286.68 59.4591L286.68 59.4591L286.745 58.9896ZM275.66 41.8481L275.186 41.8421L275.186 41.8341L275.186 41.8261L275.66 41.8481ZM282.347 38.5737L282.732 38.2978L282.732 38.2978L282.347 38.5737ZM281.414 60.3602L281.852 60.5415L281.848 60.5499L281.845 60.5581L281.414 60.3602ZM268.693 70.4204C268.433 70.4484 268.199 70.26 268.171 69.9997C268.143 69.7394 268.331 69.5056 268.591 69.4776L268.693 70.4204ZM267.272 69.5595C267.534 69.555 267.75 69.7636 267.755 70.0254C267.759 70.2872 267.55 70.5031 267.289 70.5075L267.272 69.5595ZM266.311 70.4939C266.049 70.4823 265.847 70.2609 265.858 69.9993C265.87 69.7378 266.091 69.5351 266.353 69.5466L266.311 70.4939ZM265.669 69.4997C265.93 69.5231 266.122 69.7535 266.099 70.0143C266.075 70.2751 265.845 70.4675 265.584 70.4441L265.669 69.4997ZM263.873 70.2039C263.616 70.155 263.447 69.9069 263.496 69.6497C263.545 69.3924 263.793 69.2235 264.05 69.2724L263.873 70.2039ZM263.392 69.1375C263.648 69.1958 263.807 69.45 263.749 69.7052C263.691 69.9605 263.437 70.1201 263.181 70.0618L263.392 69.1375ZM261.451 69.5839C261.202 69.5031 261.065 69.2358 261.146 68.9867C261.227 68.7376 261.494 68.6011 261.743 68.6819L261.451 69.5839ZM294.421 39.3652C294.838 41.5253 295.171 44.3087 295.178 47.1075C295.185 49.8988 294.868 52.7453 293.957 55.0081L293.078 54.6541C293.923 52.5548 294.237 49.8485 294.23 47.1099C294.223 44.3787 293.897 41.6551 293.49 39.5449L294.421 39.3652ZM257.724 66.9469C258.918 67.5877 260.066 68.096 261.169 68.4876L260.852 69.3811C259.701 68.9724 258.508 68.4442 257.276 67.7823L257.724 66.9469ZM293.331 56.3022C293.056 56.7761 292.743 57.2136 292.387 57.6043L291.686 56.9665C291.991 56.6312 292.265 56.2493 292.511 55.8262L293.331 56.3022ZM291.75 58.2138C291.271 58.6098 290.731 58.9295 290.126 59.1559L289.794 58.2678C290.296 58.0801 290.744 57.8148 291.146 57.4829L291.75 58.2138ZM289.547 59.3392C288.695 59.5606 287.741 59.6075 286.68 59.4591L286.811 58.5201C287.768 58.6538 288.594 58.6072 289.309 58.4215L289.547 59.3392ZM286.68 59.4591C281.957 58.7989 279.059 55.6644 277.364 52.0943C275.675 48.5341 275.152 44.4888 275.186 41.8421L276.134 41.8541C276.102 44.3954 276.608 48.2897 278.221 51.6878C279.829 55.0758 282.506 57.9182 286.811 58.5201L286.68 59.4591ZM275.186 41.8261C275.234 40.8006 275.426 39.7015 275.756 38.7172C276.084 37.7414 276.563 36.8334 277.215 36.2361C277.891 35.6172 278.758 35.3341 279.75 35.6662C280.695 35.9826 281.686 36.8364 282.732 38.2978L281.961 38.8496C280.959 37.4486 280.113 36.7877 279.449 36.5653C278.832 36.3587 278.317 36.5128 277.856 36.9353C277.371 37.3794 276.958 38.117 276.655 39.0191C276.355 39.9129 276.177 40.9244 276.134 41.87L275.186 41.8261ZM282.732 38.2978C284.888 41.3111 285.14 45.6925 284.644 49.8419C284.145 54.0141 282.874 58.0716 281.852 60.5415L280.976 60.1789C281.971 57.7729 283.215 53.7999 283.703 49.7293C284.192 45.6358 283.902 41.5619 281.961 38.8496L282.732 38.2978ZM281.845 60.5581C280.145 64.2579 275.703 69.6662 268.693 70.4204L268.591 69.4776C275.149 68.7722 279.363 63.6882 280.983 60.1623L281.845 60.5581ZM267.289 70.5075C266.967 70.513 266.642 70.5084 266.311 70.4939L266.353 69.5466C266.665 69.5604 266.971 69.5646 267.272 69.5595L267.289 70.5075ZM265.584 70.4441C265.026 70.394 264.456 70.3148 263.873 70.2039L264.05 69.2724C264.603 69.3776 265.142 69.4524 265.669 69.4997L265.584 70.4441ZM263.181 70.0618C262.615 69.9325 262.039 69.7744 261.451 69.5839L261.743 68.6819C262.304 68.8637 262.854 69.0144 263.392 69.1375L263.181 70.0618Z" fill="#002544"/>
<path d="M53.8885 37.4067C54.2759 37.4067 54.5918 37.0908 54.5918 36.7033C54.5918 36.3159 54.2759 36 53.8885 36C53.5002 36 53.1851 36.3159 53.1851 36.7033C53.1851 37.0908 53.501 37.4067 53.8885 37.4067ZM53.8885 36.6031C53.9435 36.6031 53.9887 36.6483 53.9887 36.7033C53.9887 36.7584 53.9435 36.8036 53.8885 36.8036C53.8334 36.8036 53.7882 36.7584 53.7882 36.7033C53.7882 36.6483 53.8334 36.6031 53.8885 36.6031Z" fill="#002544"/>
<path d="M50.8885 168.407C51.2767 168.407 51.5918 168.091 51.5918 167.703C51.5918 167.316 51.2759 167 50.8885 167C50.501 167 50.1851 167.316 50.1851 167.703C50.1851 168.091 50.5002 168.407 50.8885 168.407ZM50.8885 167.603C50.9435 167.603 50.9887 167.648 50.9887 167.703C50.9887 167.758 50.9435 167.804 50.8885 167.804C50.8334 167.804 50.7882 167.758 50.7882 167.703C50.7882 167.648 50.8334 167.603 50.8885 167.603Z" fill="#002544"/>
<path d="M40.8012 104.899C40.9 104.899 40.9965 104.85 41.0545 104.762L42.5434 102.465C42.6338 102.326 42.5939 102.139 42.4544 102.048C42.3149 101.958 42.128 101.998 42.0375 102.137L40.5487 104.434C40.4582 104.573 40.4982 104.76 40.6376 104.85C40.6881 104.883 40.7447 104.899 40.8012 104.899Z" fill="#002544"/>
<path d="M247.29 95.1671C247.385 95.1671 247.479 95.1219 247.538 95.0382C247.633 94.9018 247.6 94.7133 247.462 94.6183L245.217 93.0541C245.08 92.9591 244.892 92.9923 244.797 93.1295C244.702 93.2659 244.735 93.4544 244.872 93.5494L247.118 95.1136C247.171 95.1498 247.231 95.1671 247.29 95.1671Z" fill="#002544"/>
<path d="M315.29 205.167C315.385 205.167 315.479 205.122 315.538 205.038C315.633 204.902 315.6 204.713 315.462 204.618L313.217 203.054C313.08 202.959 312.892 202.992 312.797 203.129C312.702 203.266 312.735 203.454 312.872 203.549L315.118 205.114C315.171 205.15 315.231 205.167 315.29 205.167Z" fill="#002544"/>
<path d="M302.888 146.407C303.277 146.407 303.592 146.091 303.592 145.703C303.592 145.316 303.276 145 302.888 145C302.501 145 302.185 145.316 302.185 145.703C302.185 146.091 302.5 146.407 302.888 146.407ZM302.888 145.603C302.943 145.603 302.989 145.648 302.989 145.703C302.989 145.758 302.943 145.804 302.888 145.804C302.833 145.804 302.788 145.758 302.788 145.703C302.788 145.648 302.833 145.603 302.888 145.603Z" fill="#002544"/>
<path d="M29.3016 207.038C29.0378 207.038 28.7807 207.026 28.5327 207.003C28.4958 206.999 28.4603 206.99 28.4287 206.975C28.3947 206.983 28.3578 206.985 28.3209 206.981C28.1151 206.956 27.9145 206.922 27.7238 206.881C27.6831 206.872 27.6454 206.855 27.6138 206.833C27.5746 206.839 27.5331 206.837 27.4916 206.828C27.3009 206.779 27.1125 206.722 26.933 206.656C26.8923 206.641 26.8561 206.619 26.8267 206.591C26.786 206.592 26.7438 206.585 26.7039 206.568C26.6051 206.528 26.5064 206.484 26.4016 206.433C26.3164 206.393 26.2591 206.316 26.2387 206.231C26.1566 206.261 26.0616 206.255 25.9809 206.206C24.0277 205.029 23.3432 202.828 23.35 201.3V201.289C23.359 201.085 23.3749 200.858 23.3997 200.613C23.004 200.623 22.5894 200.57 22.1597 200.439C21.8121 200.334 21.5121 200.179 21.2694 199.979C21.24 199.955 21.2166 199.927 21.1993 199.896C21.1669 199.881 21.1367 199.86 21.1103 199.833C20.9543 199.675 20.8261 199.49 20.7281 199.285C20.704 199.235 20.6957 199.181 20.7002 199.129C20.6618 199.095 20.6316 199.049 20.615 198.996C20.5615 198.825 20.5253 198.639 20.508 198.444C20.4989 198.347 20.5381 198.256 20.6045 198.194C20.5366 198.136 20.4952 198.047 20.5005 197.95C20.5826 196.386 21.6207 194.432 22.5645 193.125C22.6617 192.99 22.8502 192.96 22.9851 193.057C23.1201 193.154 23.1502 193.343 23.053 193.478C22.2004 194.659 21.1774 196.547 21.102 197.982C21.0975 198.064 21.0606 198.137 21.0048 198.188C21.0621 198.237 21.1013 198.308 21.1081 198.39C21.1216 198.542 21.1495 198.686 21.1902 198.816C21.2023 198.855 21.2061 198.895 21.203 198.932C21.2309 198.958 21.2551 198.99 21.2724 199.026C21.341 199.17 21.4307 199.3 21.5393 199.41C21.5581 199.429 21.5739 199.45 21.586 199.471C21.6094 199.482 21.6312 199.496 21.6516 199.513C21.8333 199.662 22.0624 199.78 22.3338 199.862C22.7288 199.983 23.1095 200.024 23.4736 200.004C23.7601 198.024 24.5516 195.349 26.2523 194.386C27.0846 193.915 27.7155 193.859 28.1264 194.221C28.5289 194.575 28.7151 195.471 28.2236 196.672L28.2199 196.681C27.619 198.018 26.1046 200.139 24.0104 200.545C23.981 200.814 23.9614 201.07 23.9508 201.308C23.9463 202.677 24.5554 204.643 26.29 205.688C26.3624 205.731 26.4099 205.8 26.428 205.876C26.5018 205.85 26.5848 205.852 26.6609 205.888C26.7544 205.933 26.8426 205.973 26.9293 206.008C26.9655 206.023 26.9971 206.044 27.0243 206.069C27.0612 206.068 27.0989 206.074 27.1358 206.087C27.2971 206.145 27.466 206.197 27.6371 206.24C27.6741 206.249 27.7072 206.265 27.7366 206.286C27.7728 206.28 27.8105 206.281 27.8482 206.289C28.0208 206.326 28.204 206.357 28.3917 206.38C28.4257 206.384 28.4581 206.393 28.4867 206.408C28.5184 206.4 28.5515 206.398 28.5862 206.401C28.9722 206.437 29.383 206.443 29.8082 206.418C29.9741 206.408 30.1173 206.535 30.1271 206.702C30.1369 206.868 30.0102 207.011 29.8436 207.021C29.662 207.033 29.4803 207.038 29.3016 207.038ZM27.4645 194.591C27.2399 194.591 26.9247 194.7 26.5523 194.911C25.1683 195.695 24.4009 197.98 24.0986 199.906C25.852 199.455 27.1426 197.613 27.6703 196.439C27.9711 195.701 27.9982 194.909 27.7306 194.674C27.6673 194.618 27.5776 194.591 27.4645 194.591Z" fill="#002544"/>
<path d="M182.713 23.7891C182.386 22.615 181.169 21.9288 179.995 22.255L148.095 31.1311L129.074 36.4245L95.0381 45.8974C93.864 46.2235 93.1779 47.4387 93.504 48.6129L105.564 91.95C105.564 91.95 106.381 87.28 108.456 87.3331C110.534 87.3863 110.693 92.3921 110.693 92.3921L110.541 92.5999C114.37 87.5143 119.178 81.6992 120.862 82.2258C121.471 82.4167 121.751 82.8347 121.751 82.8347C121.819 82.9361 121.872 83.0448 121.906 83.1608V83.1536C123.447 77.1958 126.368 70.0688 132.379 67.9162C134.527 67.148 134.947 68.1409 136.938 67.0465C141.777 64.3865 141.656 56.2593 150.904 50.0504C162.378 42.3459 170.155 52.3358 170.155 52.3358C170.155 52.3358 172.348 51.6376 175.071 51.6376C178.18 51.6376 181.981 52.5484 183.993 56.4478C186.551 61.4029 190.084 61.7749 193.415 62.246L182.713 23.7891ZM126.643 108.064C126.225 108.371 125.793 108.69 125.344 109.021C125.793 108.692 126.225 108.374 126.643 108.064ZM123.242 134.548L123.418 134.311H123.242V134.548ZM122.075 114.445C122.092 114.394 122.109 114.346 122.123 114.297C122.13 114.276 122.138 114.254 122.143 114.232C122.135 114.254 122.128 114.276 122.121 114.297C122.106 114.346 122.092 114.396 122.075 114.445ZM121.773 84.7626C121.514 85.5188 121.067 86.2798 120.741 86.821C121.113 86.2677 121.546 85.6685 121.773 84.7626ZM112.614 98.4513C116.108 93.8175 117.325 92.3172 118.92 89.8868C119.997 88.2464 119.966 88.1328 120.188 87.7052C119.367 89.0025 118.359 90.4835 117.323 91.9597C115.574 94.4505 113.75 96.922 112.614 98.4513ZM123.242 134.311V134.548L123.418 134.311H123.242Z" fill="#BFD22B"/>
<path d="M215.85 146.997C215.589 147.265 215.256 147.471 214.869 147.577L214.27 147.744L212.071 148.355L210.028 148.925L209.921 148.954L206.027 150.039L205.401 150.213L203.357 150.78L198.728 152.068L196.684 152.638L192.986 153.667L192.058 153.926L190.625 154.325L190.014 154.494L185.329 155.798L184.856 155.931C183.691 152.269 181.302 145.448 179.396 145.985C176.876 146.695 179.244 154.996 179.244 154.996L181.242 156.936C180.382 156.122 179.519 155.308 178.659 154.494C178.367 154.218 178.077 153.943 177.784 153.667C176.057 152.034 174.33 150.401 172.602 148.766C172.513 148.717 172.416 148.664 172.31 148.606C172.24 148.567 172.165 148.526 172.088 148.485C171.66 148.256 171.131 147.973 170.525 147.659C170.522 147.657 170.517 147.657 170.515 147.654C170.387 147.589 170.249 147.516 170.097 147.439C170.046 147.413 169.995 147.386 169.942 147.357C169.918 147.345 169.894 147.333 169.87 147.321C169.749 147.26 169.623 147.195 169.491 147.128C169.394 147.079 169.292 147.026 169.191 146.975C168.949 146.85 168.688 146.719 168.413 146.582C168.309 146.528 168.205 146.478 168.097 146.424C167.884 146.316 167.662 146.207 167.435 146.096C167.352 146.055 167.268 146.014 167.183 145.973C166.763 145.765 166.321 145.552 165.867 145.34C165.775 145.296 165.685 145.253 165.594 145.209C164.845 144.857 164.062 144.501 163.272 144.158C163.122 144.093 162.972 144.028 162.823 143.965C162.697 143.912 162.574 143.859 162.451 143.808C161.851 143.557 161.252 143.315 160.665 143.098C160.527 143.045 160.387 142.994 160.25 142.943C160.112 142.892 159.974 142.844 159.839 142.796C159.534 142.687 159.235 142.586 158.94 142.494C158.841 142.462 158.744 142.433 158.648 142.404C158.573 142.383 158.496 142.358 158.421 142.337C158.196 142.269 157.974 142.206 157.759 142.153C157.689 142.134 157.616 142.117 157.546 142.1C157.481 142.083 157.418 142.069 157.355 142.054C157.292 142.04 157.23 142.025 157.167 142.013C157.092 141.996 157.019 141.982 156.947 141.967C156.829 141.943 156.713 141.921 156.599 141.904C156.524 141.892 156.447 141.88 156.374 141.87C156.36 141.868 156.348 141.866 156.333 141.866C156.126 141.837 155.925 141.82 155.737 141.812C155.51 141.8 155.299 141.805 155.106 141.827C155.063 141.832 155.019 141.837 154.976 141.844C154.922 141.851 154.872 141.861 154.821 141.873C154.785 141.878 154.753 141.887 154.72 141.897C154.688 141.904 154.654 141.914 154.625 141.926C154.594 141.933 154.565 141.945 154.536 141.957C154.517 141.965 154.497 141.974 154.478 141.982C154.459 141.991 154.442 142.001 154.422 142.008C154.386 142.025 154.35 142.044 154.316 142.069C154.294 142.081 154.273 142.095 154.251 142.112C154.229 142.127 154.21 142.141 154.193 142.156C154.173 142.17 154.157 142.187 154.14 142.204C154.103 142.235 154.072 142.271 154.043 142.308C153.647 142.808 153.821 143.586 153.864 143.755C153.864 143.755 153.867 143.765 153.869 143.777C153.881 143.827 153.898 143.876 153.92 143.924C153.932 143.96 153.946 143.994 153.963 144.028C153.973 144.045 153.98 144.064 153.99 144.081C154.004 144.112 154.021 144.141 154.041 144.17C154.058 144.199 154.077 144.231 154.096 144.26C154.125 144.303 154.157 144.347 154.19 144.388C154.205 144.41 154.222 144.431 154.241 144.451C154.258 144.472 154.277 144.494 154.294 144.513C154.331 144.555 154.369 144.598 154.41 144.637C154.444 144.671 154.48 144.707 154.517 144.741C154.521 144.745 154.526 144.753 154.533 144.755C154.572 144.791 154.613 144.828 154.654 144.861C154.666 144.873 154.681 144.886 154.695 144.895C154.744 144.936 154.797 144.975 154.848 145.016C154.915 145.067 154.983 145.115 155.053 145.161C155.145 145.224 155.239 145.287 155.336 145.345C155.425 145.398 155.514 145.451 155.604 145.502C155.611 145.506 155.616 145.509 155.623 145.511C155.72 145.564 155.816 145.615 155.911 145.663C156.007 145.714 156.101 145.76 156.191 145.801C156.244 145.828 156.3 145.852 156.353 145.876C156.437 145.915 156.522 145.951 156.599 145.985C156.737 146.043 156.862 146.091 156.969 146.132C157 146.144 157.029 146.156 157.058 146.166C157.106 146.183 157.15 146.2 157.189 146.212C157.218 146.224 157.242 146.234 157.263 146.241C157.273 146.243 157.283 146.246 157.29 146.251C157.307 146.255 157.319 146.26 157.329 146.263C157.334 146.265 157.338 146.265 157.341 146.267C157.348 146.27 157.35 146.27 157.35 146.27C157.739 146.395 158.169 146.553 158.643 146.746C158.831 146.823 159.027 146.905 159.23 146.997C160.66 147.628 162.467 148.592 164.806 150.063C164.272 149.877 163.755 149.71 163.255 149.556C162.919 149.452 162.591 149.353 162.269 149.261C162.178 149.234 162.088 149.21 161.996 149.183C161.59 149.068 161.199 148.964 160.822 148.869C160.658 148.828 160.496 148.787 160.337 148.749C159.938 148.652 159.556 148.565 159.194 148.485C159.073 148.459 158.955 148.435 158.839 148.41C158.766 148.396 158.689 148.379 158.609 148.362C158.372 148.314 158.114 148.261 157.831 148.203C157.452 148.128 157.036 148.046 156.599 147.968C155.964 147.855 155.28 147.744 154.589 147.654C154.403 147.63 154.219 147.608 154.033 147.589C153.775 147.56 153.516 147.536 153.263 147.516C153.106 147.504 152.951 147.495 152.799 147.487C152.666 147.48 152.533 147.475 152.4 147.471C152.26 147.466 152.122 147.463 151.987 147.463C151.941 147.463 151.895 147.463 151.849 147.466C151.794 147.466 151.738 147.466 151.683 147.468C151.63 147.468 151.574 147.471 151.521 147.473C151.398 147.478 151.277 147.485 151.156 147.495C151.062 147.502 150.972 147.509 150.883 147.521C150.818 147.529 150.753 147.536 150.69 147.545C150.566 147.562 150.448 147.584 150.335 147.608C150.265 147.62 150.197 147.637 150.132 147.654C150.062 147.671 149.994 147.69 149.929 147.712C149.873 147.729 149.82 147.748 149.769 147.768C149.743 147.777 149.719 147.787 149.692 147.799C149.653 147.814 149.617 147.831 149.581 147.847C149.559 147.857 149.535 147.869 149.513 147.881C149.431 147.92 149.356 147.966 149.286 148.014L149.235 148.05C149.214 148.065 149.192 148.082 149.173 148.101C149.151 148.118 149.131 148.135 149.112 148.154C149.11 148.154 149.11 148.154 149.11 148.154C149.09 148.171 149.071 148.191 149.052 148.212C149.04 148.22 149.032 148.229 149.023 148.241C148.984 148.282 148.948 148.328 148.916 148.374C148.887 148.418 148.861 148.464 148.837 148.509C148.491 149.198 148.919 150.065 148.974 150.176C148.994 150.217 149.015 150.259 149.04 150.297C149.064 150.336 149.088 150.375 149.112 150.413C149.141 150.459 149.173 150.505 149.206 150.548C149.247 150.604 149.291 150.657 149.337 150.708C149.339 150.71 149.342 150.715 149.344 150.718C149.368 150.742 149.39 150.766 149.414 150.79C149.474 150.855 149.54 150.913 149.607 150.969C149.646 151.003 149.685 151.034 149.723 151.063C149.789 151.116 149.859 151.165 149.929 151.21C149.996 151.256 150.066 151.3 150.139 151.339C150.149 151.346 150.156 151.351 150.165 151.353C150.185 151.365 150.204 151.375 150.226 151.387C150.233 151.392 150.24 151.396 150.248 151.399C150.318 151.435 150.388 151.471 150.46 151.505C150.528 151.537 150.595 151.568 150.666 151.595C150.702 151.611 150.738 151.626 150.772 151.638C150.823 151.66 150.871 151.677 150.919 151.694C150.972 151.713 151.023 151.732 151.076 151.749C151.231 151.8 151.383 151.846 151.538 151.884C151.603 151.901 151.668 151.918 151.733 151.933C151.823 151.955 151.912 151.974 151.999 151.991C152.098 152.013 152.195 152.032 152.289 152.046C152.369 152.058 152.446 152.073 152.521 152.085C152.538 152.087 152.557 152.09 152.574 152.092C152.666 152.107 152.758 152.119 152.847 152.131C152.903 152.138 152.958 152.145 153.011 152.15C153.263 152.182 153.495 152.201 153.695 152.215C153.763 152.22 153.823 152.225 153.884 152.23C153.971 152.237 154.048 152.242 154.116 152.247C154.831 152.298 155.652 152.406 156.599 152.597C156.715 152.621 156.833 152.646 156.952 152.672C157.07 152.696 157.193 152.725 157.317 152.754C157.418 152.778 157.52 152.803 157.621 152.827C157.896 152.894 158.182 152.967 158.474 153.049C158.529 153.063 158.585 153.078 158.643 153.095C158.696 153.109 158.747 153.124 158.8 153.141C159.218 153.262 159.655 153.397 160.114 153.549C160.192 153.576 160.271 153.602 160.351 153.629C160.532 153.687 160.716 153.752 160.904 153.82C160.977 153.844 161.049 153.87 161.124 153.897C161.501 154.032 161.89 154.177 162.291 154.334H162.293C162.296 154.334 162.296 154.334 162.296 154.334C162.603 154.455 162.914 154.581 163.236 154.711C163.335 154.752 163.436 154.793 163.538 154.837C163.545 154.842 163.552 154.844 163.559 154.846C163.774 154.936 163.994 155.03 164.219 155.129C164.502 155.25 164.789 155.378 165.084 155.511C165.207 155.566 165.33 155.622 165.456 155.68C165.765 155.82 166.082 155.97 166.403 156.122C166.565 156.199 166.727 156.277 166.891 156.356C167.055 156.436 167.22 156.516 167.389 156.6C167.451 156.629 167.512 156.661 167.575 156.692C168.046 156.927 168.531 157.173 169.029 157.431C168.843 157.378 168.657 157.328 168.473 157.277C168.261 157.216 168.051 157.158 167.843 157.103C167.698 157.062 167.553 157.023 167.41 156.985C167.268 156.946 167.125 156.907 166.985 156.869C166.828 156.825 166.671 156.784 166.519 156.743C166.318 156.687 166.12 156.634 165.925 156.584C165.811 156.555 165.7 156.523 165.586 156.494C165.118 156.371 164.664 156.253 164.221 156.139C163.997 156.081 163.774 156.025 163.557 155.97C163.446 155.941 163.34 155.914 163.231 155.888C161.805 155.533 160.518 155.231 159.356 154.982C159.114 154.929 158.875 154.878 158.643 154.83C157.909 154.675 157.23 154.544 156.599 154.431C156.389 154.392 156.186 154.358 155.985 154.325C155.923 154.315 155.86 154.303 155.797 154.293C155.642 154.267 155.493 154.242 155.345 154.221C155.099 154.182 154.862 154.148 154.633 154.117C154.446 154.09 154.265 154.066 154.089 154.044C154 154.035 153.915 154.025 153.83 154.015C153.659 153.996 153.495 153.979 153.338 153.965C153.258 153.955 153.181 153.948 153.103 153.943C153.033 153.936 152.963 153.931 152.893 153.924C152.572 153.899 152.277 153.882 152.006 153.875C151.994 153.873 151.985 153.873 151.973 153.873C151.917 153.873 151.861 153.87 151.808 153.87C151.685 153.868 151.564 153.868 151.451 153.87C151.398 153.87 151.349 153.87 151.299 153.873C151.228 153.873 151.161 153.875 151.096 153.88C150.955 153.887 150.825 153.897 150.702 153.909C150.641 153.914 150.583 153.921 150.525 153.928C150.482 153.933 150.441 153.938 150.4 153.945C150.339 153.955 150.279 153.965 150.223 153.977C150.182 153.982 150.144 153.991 150.107 153.998C150.045 154.013 149.984 154.027 149.929 154.042C149.917 154.044 149.902 154.049 149.89 154.054C149.866 154.061 149.842 154.069 149.818 154.076C149.776 154.088 149.738 154.1 149.702 154.114C149.663 154.126 149.627 154.141 149.593 154.158C149.559 154.172 149.525 154.187 149.494 154.204C149.458 154.221 149.421 154.24 149.39 154.259C149.359 154.279 149.327 154.298 149.298 154.32C149.281 154.332 149.264 154.344 149.25 154.356C149.235 154.366 149.221 154.378 149.206 154.392C149.192 154.404 149.177 154.416 149.165 154.428C149.151 154.441 149.139 154.453 149.127 154.467C149.115 154.479 149.105 154.494 149.093 154.506C149.049 154.559 149.013 154.612 148.986 154.668C148.916 154.81 148.542 155.656 148.871 156.429C148.892 156.48 148.916 156.53 148.943 156.576C148.948 156.588 148.955 156.598 148.96 156.608C148.979 156.641 148.999 156.67 149.02 156.702C149.02 156.704 149.02 156.704 149.025 156.707C149.04 156.731 149.057 156.755 149.076 156.779C149.134 156.857 149.199 156.929 149.269 156.992C149.286 157.009 149.305 157.026 149.325 157.043C149.366 157.081 149.407 157.115 149.45 157.146C149.479 157.171 149.511 157.192 149.542 157.212C149.545 157.214 149.547 157.216 149.549 157.216C149.576 157.236 149.605 157.255 149.634 157.272C149.728 157.33 149.827 157.386 149.929 157.434C150.004 157.47 150.081 157.504 150.161 157.535C150.243 157.569 150.327 157.601 150.412 157.63C150.496 157.659 150.581 157.685 150.668 157.712C150.743 157.733 150.818 157.755 150.893 157.772C151.221 157.857 151.545 157.92 151.83 157.975C151.83 157.975 151.859 157.98 151.915 157.992C151.924 157.992 151.934 157.994 151.946 157.997C151.956 157.999 151.96 157.999 151.973 158.002C151.987 158.004 152.004 158.006 152.021 158.011C152.026 158.014 152.031 158.014 152.035 158.014C152.074 158.021 152.115 158.031 152.163 158.04C152.226 158.052 152.296 158.067 152.376 158.084C152.456 158.098 152.543 158.115 152.639 158.135C152.726 158.151 152.821 158.171 152.922 158.19C152.924 158.193 152.927 158.193 152.929 158.193C152.941 158.197 152.956 158.2 152.968 158.2C153.019 158.212 153.069 158.222 153.12 158.231C153.176 158.243 153.236 158.255 153.297 158.267C153.345 158.277 153.396 158.287 153.446 158.299C153.56 158.321 153.676 158.345 153.799 158.369C153.801 158.371 153.804 158.371 153.806 158.371C153.995 158.41 154.195 158.451 154.405 158.495C154.415 158.497 154.425 158.499 154.432 158.499C154.565 158.526 154.703 158.555 154.845 158.586C154.862 158.589 154.879 158.594 154.896 158.596C155.031 158.623 155.169 158.652 155.311 158.683C155.712 158.768 156.142 158.857 156.599 158.954C157.174 159.074 157.793 159.207 158.445 159.347C158.51 159.359 158.575 159.374 158.643 159.388C158.805 159.425 158.972 159.458 159.138 159.497C159.315 159.536 159.496 159.577 159.679 159.616C160.228 159.736 160.798 159.862 161.383 159.992C161.977 160.125 162.588 160.263 163.214 160.406C163.248 160.413 163.284 160.422 163.32 160.43C163.417 160.451 163.511 160.473 163.605 160.497C163.7 160.519 163.791 160.541 163.883 160.563C164.13 160.621 164.364 160.679 164.586 160.737C164.712 160.768 164.835 160.799 164.953 160.831C165.34 160.93 165.673 161.022 165.944 161.096C166.004 161.113 166.062 161.13 166.115 161.145C165.782 161.14 165.454 161.14 165.132 161.142C164.922 161.142 164.714 161.145 164.509 161.15C164.11 161.157 163.724 161.169 163.344 161.186C163.212 161.193 163.079 161.198 162.951 161.205C162.641 161.22 162.342 161.239 162.047 161.261C161.895 161.27 161.745 161.283 161.598 161.295C161.264 161.321 160.941 161.35 160.629 161.384C160.218 161.425 159.824 161.471 159.45 161.519C159.332 161.534 159.216 161.548 159.102 161.565C158.612 161.633 158.155 161.703 157.732 161.773C157.723 161.775 157.708 161.778 157.686 161.78C157.667 161.783 157.645 161.787 157.616 161.792C157.585 161.8 157.544 161.807 157.5 161.814C157.459 161.821 157.413 161.831 157.363 161.841C157.312 161.85 157.259 161.86 157.198 161.872C157.119 161.889 157.029 161.906 156.933 161.925C156.829 161.947 156.717 161.971 156.599 161.995C156.234 162.075 155.802 162.174 155.343 162.295C155.193 162.336 155.038 162.377 154.884 162.418C154.881 162.418 154.877 162.42 154.872 162.423C154.797 162.445 154.72 162.466 154.642 162.488C154.488 162.532 154.333 162.577 154.176 162.628C154.021 162.676 153.864 162.727 153.71 162.78C153.632 162.807 153.555 162.834 153.48 162.86C153.374 162.896 153.268 162.935 153.161 162.976C153.06 163.015 152.958 163.053 152.859 163.094C152.76 163.136 152.661 163.177 152.564 163.22C152.499 163.249 152.436 163.278 152.374 163.307C152.304 163.338 152.236 163.37 152.171 163.404C151.936 163.52 151.716 163.643 151.516 163.771C151.439 163.817 151.366 163.868 151.296 163.921C151.226 163.971 151.161 164.025 151.098 164.078C151.059 164.112 151.021 164.145 150.984 164.179C150.953 164.208 150.924 164.237 150.895 164.269C150.868 164.295 150.842 164.324 150.818 164.353C150.789 164.387 150.762 164.418 150.738 164.452C150.714 164.481 150.692 164.513 150.673 164.544C150.651 164.575 150.632 164.609 150.615 164.641C150.579 164.706 150.547 164.774 150.525 164.841C150.487 164.957 150.397 165.225 150.412 165.515L149.996 165.631L145.302 166.938L145.036 167.011L143.258 167.506L142.676 167.668L138.629 168.794L136.585 169.361L131.959 170.649L129.915 171.219H129.913C128.738 171.545 127.521 170.857 127.195 169.683L126.634 167.668L126.451 167.011L125.286 162.824L124.779 160.997L124.595 160.34L123.242 155.475L122.923 154.325L122.74 153.667L121.065 147.654L120.882 146.997L119.21 140.981L119.077 140.508C120.338 138.577 121.725 136.58 123.242 134.548L123.419 134.311C125.071 132.105 126.881 129.866 128.847 127.641C129.198 127.242 129.553 126.846 129.915 126.452C131.604 124.599 133.404 122.76 135.32 120.968C135.737 120.576 136.158 120.187 136.585 119.803C138.678 117.916 140.9 116.085 143.258 114.346C143.28 114.329 143.302 114.312 143.324 114.297C145.418 112.754 147.619 111.282 149.929 109.905C151.26 109.113 152.627 108.349 154.033 107.624C154.34 107.467 154.647 107.31 154.959 107.156C157.611 105.829 160.395 104.634 163.308 103.597C163.402 100.205 163.497 96.8156 163.591 93.4236C162.267 92.7326 160.329 91.4957 158.578 89.3938C155.497 85.6902 154.947 81.6386 154.814 79.991C159.203 77.1764 161.491 74.1734 162.76 71.9918C164.808 68.4766 165.673 64.5966 168.022 63.6641C168.732 64.7609 169.565 65.9109 170.541 67.0705C174.185 71.3999 178.222 73.9753 181.085 75.4587C181.353 75.263 182.07 74.7967 183.075 74.7846C183.121 74.7822 184.003 74.7822 184.817 75.2437C186.303 76.0868 187.11 78.208 186.832 80.0683C186.467 82.506 184.247 84.4556 182.104 84.5233C181.539 84.5426 181.06 84.4291 180.708 84.3058C180.495 86.787 180.321 89.36 180.196 92.0175C180.07 94.6775 180 97.2577 179.978 99.7509C188.021 98.8232 196.126 99.1349 204.036 100.413L204.282 101.297L205.401 105.32L205.86 106.967L206.015 107.523L207.716 113.64L207.899 114.297L208.092 114.996L209.571 120.311L209.755 120.968L210.028 121.951L211.429 126.983L211.596 127.583L212.071 129.293L213.284 133.654L213.451 134.255L215.142 140.324L215.323 140.974L216.403 144.859C216.623 145.647 216.386 146.453 215.85 146.997Z" fill="#BFD22B"/>
<path d="M129.074 36.4244C129.898 28.5219 130.724 20.6193 131.548 12.7168C137.064 18.8557 142.579 24.9922 148.095 31.1311" stroke="#004177" stroke-width="0.41071" stroke-miterlimit="10" stroke-linecap="round" stroke-linejoin="round"/>
<path d="M131.744 14.4208C132.412 14.4208 132.954 13.8789 132.954 13.2104C132.954 12.5419 132.412 12 131.744 12C131.075 12 130.533 12.5419 130.533 13.2104C130.533 13.8789 131.075 14.4208 131.744 14.4208Z" fill="#004177"/>
<path d="M98.9 70.8C104.091 70.8 108.3 66.5915 108.3 61.4C108.3 56.2085 104.091 52 98.9 52C93.7085 52 89.5 56.2085 89.5 61.4C89.5 66.5915 93.7085 70.8 98.9 70.8Z" fill="white" stroke="#002544" stroke-width="0.7" stroke-miterlimit="10"/>
<path d="M94.5996 61.9004L96.4996 64.6004C96.5996 64.8004 96.8996 65.0004 97.1996 65.0004C97.4996 65.0004 97.6996 64.9004 97.8996 64.7004L103.2 57.9004" stroke="#002544" stroke-width="0.7" stroke-miterlimit="10" stroke-linecap="round" stroke-linejoin="round"/>
<path d="M166.922 87.5901C166.688 86.1594 165.983 85.0838 165.345 85.1877C164.708 85.2915 164.38 86.5355 164.613 87.9662C164.846 89.3968 165.552 90.4725 166.189 90.3686C166.827 90.2647 167.155 89.0208 166.922 87.5901Z" stroke="#004177" stroke-width="0.6"/>
<path d="M204.035 100.413C196.126 99.1353 188.02 98.8236 179.977 99.7513C179.999 97.2581 180.069 94.6779 180.195 92.0179C180.32 89.3604 180.494 86.7874 180.707 84.3062C181.06 84.4295 181.538 84.543 182.103 84.5237C184.246 84.456 186.467 82.5064 186.831 80.0687C187.109 78.2084 186.302 76.0872 184.817 75.244C184.002 74.7826 183.121 74.7826 183.075 74.785C182.07 74.7971 181.352 75.2634 181.084 75.4591C178.221 73.9757 174.184 71.4003 170.541 67.0709C169.565 65.9113 168.731 64.7613 168.021 63.6645C165.673 64.597 164.808 68.477 162.759 71.9922C161.491 74.1738 159.203 77.1768 154.813 79.9914C154.946 81.639 155.497 85.6906 158.577 89.3942C160.329 91.4961 162.266 92.733 163.59 93.424C163.496 96.816 163.402 100.206 163.307 103.598C160.394 104.634 157.611 105.83 154.958 107.156C154.646 107.311 154.339 107.468 154.033 107.625C152.627 108.35 151.259 109.113 149.928 109.906C147.618 111.283 145.417 112.754 143.323 114.298C143.301 114.312 143.279 114.329 143.258 114.346C140.9 116.086 138.677 117.917 136.585 119.804C136.157 120.188 135.737 120.577 135.319 120.968C133.403 122.761 131.603 124.599 129.914 126.452C129.552 126.846 129.197 127.242 128.846 127.641C126.88 129.866 125.07 132.106 123.418 134.311H123.242V134.548C121.724 136.58 120.338 138.578 119.076 140.508L114.923 125.585C115.262 125.307 115.578 125.022 115.878 124.737C115.977 124.643 116.076 124.546 116.17 124.449C116.805 123.812 117.354 123.164 117.83 122.529C117.926 122.403 118.018 122.275 118.11 122.15C118.199 122.024 118.289 121.898 118.373 121.775C118.458 121.652 118.543 121.529 118.622 121.405C118.876 121.024 119.108 120.652 119.323 120.299C119.453 120.086 119.577 119.881 119.695 119.68C119.963 119.231 120.212 118.784 120.439 118.34C120.514 118.197 120.586 118.054 120.656 117.912C121.079 117.059 121.439 116.218 121.741 115.399C121.78 115.295 121.819 115.189 121.855 115.085C121.889 114.996 121.918 114.907 121.949 114.82C121.992 114.694 122.034 114.568 122.075 114.445C122.092 114.394 122.108 114.346 122.123 114.298C122.13 114.276 122.137 114.254 122.142 114.232C122.152 114.206 122.162 114.177 122.169 114.15C122.205 114.037 122.239 113.923 122.273 113.812C122.369 113.493 122.456 113.179 122.536 112.872C122.565 112.766 122.592 112.66 122.616 112.556C122.63 112.507 122.642 112.459 122.652 112.411C122.676 112.314 122.7 112.22 122.72 112.126C122.732 112.082 122.741 112.041 122.749 112C122.775 111.896 122.797 111.795 122.816 111.693C122.85 111.546 122.879 111.401 122.908 111.256C122.944 111.07 122.978 110.889 123.01 110.71C123.826 110.123 124.607 109.558 125.343 109.021C125.793 108.693 126.225 108.374 126.643 108.065C127.37 107.526 128.047 107.018 128.675 106.545C128.885 106.386 129.088 106.231 129.286 106.081C129.463 105.946 129.634 105.815 129.798 105.687C130.857 104.871 131.724 104.177 132.374 103.631C133.164 102.969 134.645 101.674 134.425 100.307C134.364 99.9301 134.171 99.5194 133.927 99.3044C133.722 99.1256 133.434 99.0435 133.074 99.0435C132.995 99.0435 132.91 99.0483 132.823 99.0555C132.816 99.0555 132.809 99.058 132.801 99.058C132.707 99.0676 132.608 99.0821 132.504 99.1014C132.453 99.1111 132.4 99.1208 132.347 99.1329C132.294 99.1425 132.241 99.157 132.185 99.1715C132.019 99.2126 131.847 99.2633 131.666 99.3237C131.185 99.4832 130.654 99.7079 130.088 99.9809C129.948 100.049 129.803 100.119 129.658 100.193C129.656 100.193 129.656 100.196 129.656 100.196C129.511 100.268 129.363 100.346 129.214 100.425C129.064 100.505 128.912 100.587 128.76 100.674C128.605 100.759 128.45 100.846 128.296 100.935C128.177 101.003 128.061 101.07 127.943 101.141C127.271 101.534 126.576 101.969 125.877 102.423C125.713 102.53 125.549 102.636 125.384 102.747C125.319 102.788 125.256 102.832 125.191 102.875C125.092 102.94 124.991 103.008 124.892 103.076C124.761 103.163 124.633 103.25 124.505 103.339C124.387 103.416 124.271 103.496 124.155 103.578C123.744 103.858 123.341 104.141 122.942 104.424C122.782 104.537 122.623 104.651 122.466 104.764C122.309 104.876 122.154 104.989 122 105.1C120.997 105.827 120.057 106.53 119.243 107.151L119.168 107.079C119.212 107.043 119.342 106.934 119.545 106.765C119.606 106.716 119.668 106.663 119.738 106.605C119.787 106.567 119.84 106.523 119.893 106.477C120.497 105.972 121.425 105.194 122.514 104.269C122.621 104.18 122.727 104.088 122.836 103.996C124.232 102.805 125.853 101.406 127.378 100.049C127.457 99.9809 127.535 99.9108 127.612 99.8407C127.689 99.7707 127.767 99.703 127.844 99.633C127.938 99.5508 128.03 99.4663 128.122 99.3841C128.228 99.2875 128.334 99.1933 128.438 99.0966C128.767 98.7995 129.088 98.5047 129.397 98.2196C129.537 98.0892 129.675 97.9611 129.808 97.8355C129.909 97.7413 130.009 97.6471 130.105 97.5552C130.18 97.4852 130.253 97.4175 130.323 97.3475C130.429 97.246 130.533 97.147 130.634 97.0479C130.736 96.9488 130.835 96.8522 130.931 96.758C131.115 96.5768 131.335 96.3569 131.557 96.1081C131.601 96.0622 131.644 96.0139 131.685 95.9656C131.712 95.9342 131.738 95.9027 131.765 95.8713C131.818 95.8085 131.871 95.7433 131.922 95.6781C131.934 95.6636 131.946 95.6491 131.958 95.6322C131.99 95.5935 132.019 95.5549 132.048 95.5162C132.098 95.4486 132.147 95.3809 132.195 95.3108C132.229 95.2625 132.263 95.2118 132.294 95.1611C132.309 95.1393 132.321 95.1176 132.335 95.0958C132.367 95.0451 132.396 94.9944 132.424 94.9436C132.434 94.9291 132.444 94.9122 132.451 94.8953C132.485 94.8397 132.514 94.7793 132.543 94.7214C132.562 94.6851 132.579 94.6465 132.596 94.6078C132.615 94.5667 132.632 94.5257 132.649 94.4846C132.664 94.4508 132.678 94.4145 132.69 94.3783C132.7 94.3517 132.71 94.3251 132.719 94.2986C132.765 94.1657 132.799 94.028 132.818 93.8903C132.828 93.8589 132.83 93.825 132.833 93.7936C132.838 93.7622 132.84 93.7284 132.842 93.697C132.845 93.6583 132.847 93.6221 132.847 93.5834C132.85 93.4771 132.842 93.3708 132.826 93.2645C132.823 93.25 132.821 93.238 132.818 93.2235C132.813 93.1896 132.806 93.1534 132.797 93.1196C132.661 92.5591 132.292 92.1943 132.195 92.1145C132.154 92.0807 132.108 92.0493 132.052 92.0276C132.026 92.0131 131.999 92.0034 131.97 91.9938C131.881 91.9648 131.775 91.9503 131.654 91.9503C131.608 91.9503 131.557 91.9527 131.506 91.9575C131.473 91.9599 131.439 91.9648 131.405 91.9696C131.361 91.9744 131.318 91.9817 131.272 91.9913C131.236 91.9986 131.2 92.0058 131.161 92.0155C131.098 92.0276 131.033 92.0445 130.963 92.0662H130.96C130.893 92.0856 130.82 92.1097 130.745 92.1363C130.709 92.1484 130.671 92.1629 130.632 92.1774C130.552 92.2039 130.47 92.2378 130.385 92.274C129.562 92.6122 128.426 93.2452 126.863 94.2986C126.648 94.4435 126.426 94.5957 126.194 94.7576C126.107 94.818 126.02 94.8808 125.93 94.9436C125.841 95.0064 125.752 95.0692 125.66 95.1369C125.384 95.3326 125.097 95.5404 124.8 95.7578C124.701 95.8303 124.602 95.9052 124.5 95.9801C124.399 96.0549 124.295 96.1323 124.191 96.2096C124.077 96.2941 123.961 96.3811 123.845 96.4705C123.722 96.5623 123.597 96.6565 123.469 96.7556C123.37 96.8305 123.268 96.9078 123.167 96.9851C123.13 97.0141 123.092 97.0431 123.053 97.0721C122.882 97.2025 122.708 97.3378 122.531 97.4755C122.294 97.6591 122.055 97.8476 121.809 98.0409C121.642 98.1713 121.471 98.3066 121.297 98.4443C120.673 98.9396 120.016 99.4687 119.323 100.036C119.217 100.121 119.113 100.208 119.004 100.297C117.864 101.232 116.624 102.269 115.283 103.409C121.333 97.7461 125.935 93.2573 128.182 90.9332C128.895 90.1963 130.313 88.6936 129.905 87.4421C129.905 87.4421 129.68 86.7608 128.803 86.3163C126.421 85.1107 117.115 94.1512 111.597 99.8045C111.621 99.7707 111.65 99.7344 111.681 99.6909C111.713 99.6499 111.749 99.6016 111.788 99.5508C111.865 99.4469 111.954 99.3261 112.056 99.1957C112.128 99.099 112.201 99.0048 112.268 98.9106C112.387 98.7536 112.5 98.6013 112.614 98.4516C116.107 93.8178 117.325 92.3175 118.919 89.8871C119.997 88.2466 119.965 88.1331 120.188 87.7055C120.383 87.3986 120.569 87.1039 120.741 86.8212C121.113 86.268 121.546 85.6688 121.773 84.7628C121.968 84.1927 122.058 83.6274 121.905 83.1611V83.1538C123.447 77.1961 126.368 70.0691 132.379 67.9165C134.526 67.1482 134.947 68.1412 136.937 67.0468C141.777 64.3868 141.656 56.2596 150.904 50.0506C162.377 42.3462 170.154 52.3361 170.154 52.3361C170.154 52.3361 172.348 51.6379 175.071 51.6379C178.18 51.6379 181.98 52.5487 183.993 56.448C186.551 61.4031 190.083 61.7752 193.415 62.2463L204.035 100.413Z" fill="#002544"/>
<path d="M163.095 93.1005C163.121 93.1126 163.16 93.1295 163.208 93.1489C164.837 93.8422 166.361 93.6465 167.221 93.5378C170.164 93.1609 173.179 91.1219 173.541 90.873C173.022 91.7694 172.082 93.103 170.504 94.2312C167.482 96.3959 164.228 96.2944 163.172 96.2147C163.148 95.1758 163.121 94.137 163.095 93.1005Z" fill="#002544"/>
<path d="M182.009 74.9727C181.762 75.062 181.473 75.1949 181.173 75.3954C180.436 75.8883 180.037 76.5261 179.842 76.9054" stroke="#002544" stroke-width="0.41071" stroke-miterlimit="10" stroke-linecap="round" stroke-linejoin="round"/>
<path d="M110.693 92.393L110.541 92.6007C110.531 92.6128 110.521 92.6249 110.514 92.637C109.939 93.282 109.553 93.8522 109.301 94.2677C109.13 94.5504 108.999 94.7944 108.509 95.6303C108.306 95.9758 108.139 96.2585 108.026 96.4493C107.758 96.9373 107.489 97.4254 107.224 97.9134L106.854 96.5822L105.566 91.9533C105.566 91.9533 106.383 87.2832 108.458 87.3364C110.534 87.3871 110.693 92.393 110.693 92.393Z" fill="#002544"/>
<path d="M107.221 97.9113L101.851 112.675L103.704 102.332L104.46 98.1118L105.564 91.9512" stroke="#004177" stroke-width="0.41071" stroke-miterlimit="10" stroke-linecap="round" stroke-linejoin="round"/>
<path d="M110.541 92.6007C114.37 87.5152 119.178 81.7 120.862 82.2267C121.471 82.4175 121.751 82.8355 121.751 82.8355C122.459 83.8913 121.377 85.7733 120.741 86.8218C119.84 88.3028 118.603 90.1365 117.323 91.9605C114.844 95.4926 112.215 98.9836 111.597 99.8051" stroke="#004177" stroke-width="0.41071" stroke-miterlimit="10" stroke-linecap="round" stroke-linejoin="round"/>
<path d="M114.684 125.779C114.763 125.714 114.843 125.651 114.923 125.586C117.329 123.605 118.68 121.385 119.694 119.682C121.629 116.435 122.56 113.258 123.009 110.711C125.188 109.146 127.094 107.742 128.674 106.546C130.254 105.35 131.506 104.362 132.373 103.632C133.163 102.971 134.644 101.676 134.424 100.308C134.364 99.9313 134.171 99.5205 133.927 99.3055C132.117 97.7255 123.763 103.705 119.242 107.153L119.168 107.08" stroke="#004177" stroke-width="0.41071" stroke-miterlimit="10" stroke-linecap="round" stroke-linejoin="round"/>
<path d="M115.283 103.409C127.815 92.7473 131.325 91.3799 132.195 92.1144C132.291 92.1941 132.661 92.5589 132.796 93.1194C133.137 94.5255 131.709 95.9895 130.931 96.7578C127.288 100.353 119.564 106.75 119.168 107.079" stroke="#004177" stroke-width="0.41071" stroke-miterlimit="10" stroke-linecap="round" stroke-linejoin="round"/>
<path d="M111.597 99.8046C117.115 94.1513 126.421 85.1108 128.803 86.3164C129.68 86.7609 129.905 87.4422 129.905 87.4422C130.313 88.6937 128.895 90.1964 128.182 90.9332C125.935 93.2574 121.333 97.7462 115.283 103.409L115.276 103.402" stroke="#004177" stroke-width="0.41071" stroke-miterlimit="10" stroke-linecap="round" stroke-linejoin="round"/>
<path d="M107.221 97.9102L101.851 112.674L103.704 102.331L107.004 97.125L107.221 97.9102Z" fill="#004177"/>
<path d="M110.515 92.6367C109.763 93.6538 109 94.7893 108.258 96.0456C107.884 96.681 107.538 97.3043 107.222 97.9107" stroke="#004177" stroke-width="0.41071" stroke-miterlimit="10" stroke-linecap="round" stroke-linejoin="round"/>
<path d="M166.117 161.145C162.621 161.097 159.765 161.433 157.731 161.773C157.431 161.824 151.169 162.909 150.524 164.842C150.486 164.958 150.396 165.226 150.411 165.516C150.418 165.67 150.454 165.83 150.544 165.975C150.763 166.335 151.218 166.472 151.648 166.526C153.863 166.808 157.973 165.615 157.973 165.615C158.886 165.441 159.946 165.306 161.128 165.269C163.02 165.214 164.653 165.431 165.933 165.704C166.786 167.432 168.675 170.642 172.355 173.152C173.038 173.619 173.712 174.015 174.365 174.348C174.747 174.544 175.121 174.72 175.483 174.877C176.363 175.259 177.175 175.532 177.875 175.73" stroke="#004177" stroke-width="0.41071" stroke-miterlimit="10" stroke-linecap="round" stroke-linejoin="round"/>
<path d="M182.797 158.469C182.28 157.96 181.763 157.447 181.241 156.938C180.342 156.058 179.444 155.186 178.542 154.326C177.9 153.71 177.257 153.099 176.614 152.492C175.278 151.231 173.94 149.989 172.602 148.767C172.126 148.506 171.406 148.117 170.524 147.66C170.521 147.658 170.517 147.658 170.514 147.656C170.345 147.569 170.154 147.47 169.942 147.361C168.427 146.58 165.89 145.295 163.271 144.16C160.875 143.118 158.41 142.2 156.598 141.906C155.376 141.707 154.451 141.79 154.042 142.309C153.646 142.809 153.82 143.587 153.864 143.756C153.864 143.756 153.866 143.766 153.868 143.778C154.139 144.8 155.659 145.587 156.598 145.986C157.038 146.17 157.35 146.271 157.35 146.271C158.538 146.692 159.514 147.122 160.244 147.472C161.469 148.059 162.428 148.627 163.334 149.163C163.94 149.521 164.443 149.835 164.805 150.064" stroke="#004177" stroke-width="0.41071" stroke-miterlimit="10" stroke-linecap="round" stroke-linejoin="round"/>
<path d="M169.028 157.434C166.878 156.832 164.952 156.32 163.23 155.89C160.563 155.226 158.381 154.752 156.598 154.433C156.388 154.394 156.185 154.361 155.984 154.327C152.706 153.776 150.896 153.781 149.928 154.044C149.65 154.119 149.442 154.216 149.287 154.327C149.142 154.431 149.046 154.547 148.985 154.67C148.915 154.812 148.541 155.658 148.869 156.431C149.065 156.895 149.459 157.211 149.928 157.436C150.532 157.728 151.259 157.866 151.829 157.977C151.829 157.977 153.677 158.337 156.598 158.956C158.441 159.345 160.71 159.838 163.213 160.408C163.247 160.415 163.283 160.425 163.319 160.432C164.542 160.712 165.522 160.98 166.114 161.147H166.117" stroke="#004177" stroke-width="0.41071" stroke-miterlimit="10" stroke-linecap="round" stroke-linejoin="round"/>
<path d="M169.033 157.423L169.028 157.433C166.863 156.307 164.943 155.415 163.235 154.715V154.712C162.913 154.582 162.602 154.456 162.295 154.336C162.295 154.336 162.295 154.336 162.292 154.336C160.009 153.447 158.137 152.91 156.598 152.599C155.651 152.408 154.83 152.299 154.114 152.248C153.337 152.19 151.264 152.094 149.928 151.212C149.522 150.946 149.186 150.608 148.973 150.178C148.918 150.067 148.49 149.199 148.836 148.511C149.024 148.136 149.411 147.878 149.928 147.713C149.993 147.692 150.061 147.672 150.131 147.656C151.273 147.361 152.95 147.445 154.588 147.656C155.279 147.745 155.963 147.856 156.598 147.97C157.475 148.127 158.258 148.291 158.838 148.412C160.079 148.67 161.568 149.033 163.254 149.557C163.754 149.711 164.271 149.878 164.805 150.064C166.685 150.716 168.765 151.56 170.987 152.664" stroke="#004177" stroke-width="0.41071" stroke-miterlimit="10" stroke-linecap="round" stroke-linejoin="round"/>
<path d="M184.855 155.933L184.742 155.965L183.285 156.371L181.241 156.938L179.243 154.998C179.243 154.998 176.875 146.697 179.395 145.987C181.301 145.451 183.691 152.271 184.855 155.933Z" fill="#004177"/>
<path d="M184.854 155.932C185.229 157.111 185.478 157.961 185.543 158.137C185.889 159.077 186.236 160.017 186.582 160.957C186.778 161.486 186.971 162.013 187.167 162.542" stroke="#004177" stroke-width="0.41071" stroke-miterlimit="10" stroke-linecap="round" stroke-linejoin="round"/>
<path d="M186.94 161.93L175.483 174.879C176.363 175.261 177.175 175.534 177.875 175.732C180.972 171.335 184.07 166.94 187.167 162.543C187.172 162.478 187.169 162.381 187.138 162.27C187.09 162.099 186.993 161.985 186.94 161.93Z" fill="#004177"/>
<path d="M113.989 166.515C114.221 152.935 114.453 139.358 114.684 125.778C110.406 121.41 106.13 117.042 101.851 112.674C98.157 121.606 85.8188 152.718 87.9521 174.776C87.9907 175.169 88.0318 175.592 88.0753 176.046C88.2275 177.561 88.428 179.383 88.7155 181.32C89.7399 188.194 91.8756 196.546 96.9732 198.002C97.4999 198.239 98.7948 198.766 100.979 198.766C100.979 198.766 103.912 198.889 107.258 197.601C108.512 197.118 110.271 196.152 112.423 194.738C112.899 194.427 113.392 194.093 113.904 193.738C118.105 190.827 123.52 186.481 129.484 180.931" stroke="#002544" stroke-width="0.7" stroke-miterlimit="10" stroke-linecap="round" stroke-linejoin="round"/>
<path d="M206.052 158.811C206.031 151.049 206.007 143.284 205.982 135.521" stroke="#002544" stroke-width="0.7" stroke-miterlimit="10" stroke-linecap="round" stroke-linejoin="round"/>
<path d="M142.048 142.277C141.463 144.07 140.876 145.863 140.291 147.655C139.567 149.878 138.839 152.103 138.112 154.326C137.605 155.884 137.095 157.445 136.585 159.003C136.368 159.667 136.15 160.334 135.933 160.998C135.208 163.221 134.481 165.446 133.756 167.669C133.459 168.58 133.162 169.488 132.865 170.399C131.708 173.938 130.553 177.475 129.398 181.015C121.937 203.857 114.477 226.702 107.017 249.545L206.312 244.472C206.297 234.917 206.268 225.361 206.225 215.806C206.181 206.227 206.131 196.643 206.058 187.064" stroke="#002544" stroke-width="0.7" stroke-miterlimit="10" stroke-linecap="round" stroke-linejoin="round"/>
<path d="M219.915 156.074C215.272 149.222 210.628 142.373 205.982 135.521" stroke="#002544" stroke-width="0.7" stroke-miterlimit="10" stroke-linecap="round" stroke-linejoin="round"/>
<path d="M154.958 107.158C157.645 116.365 160.331 125.572 163.018 134.777C171.621 122.924 180.226 111.071 188.827 99.2188" stroke="#002544" stroke-width="0.7" stroke-miterlimit="10" stroke-linecap="round" stroke-linejoin="round"/>
<path d="M163.439 93.4902C163.395 96.8605 163.352 100.231 163.308 103.599C141.859 111.228 127.598 127.461 119.077 140.509C117.833 142.413 116.712 144.249 115.709 145.979C115.137 146.967 114.658 147.822 114.296 148.484" stroke="#002544" stroke-width="0.7" stroke-miterlimit="10" stroke-linecap="round" stroke-linejoin="round"/>
<path d="M227.804 154.516C215.14 157.017 202.475 159.517 189.813 162.02C189.39 162.102 188.968 162.187 188.545 162.271C188.216 162.337 187.89 162.399 187.562 162.465C187.431 162.491 187.298 162.515 187.168 162.542C184.621 166.159 182.073 169.775 179.526 173.39C178.284 175.153 177.043 176.914 175.801 178.676C180.582 181.539 196.459 190.2 215.574 185.904C218.747 185.189 227.751 183.167 235.047 177.613C235.847 177.004 236.624 176.354 237.373 175.658C239.951 173.259 242.169 170.324 243.619 166.729C246.225 160.271 245.254 154.415 244.288 149.01C244.235 148.718 244.179 148.423 244.124 148.126C244.073 147.868 244.02 147.607 243.964 147.346C240.405 130.284 227.927 107.024 204.036 100.414C199.482 99.155 191.07 97.546 179.978 99.7517C180 97.2585 180.07 94.6783 180.195 92.0183C180.321 89.3608 180.495 86.7878 180.708 84.3066" stroke="#002544" stroke-width="0.7" stroke-miterlimit="10" stroke-linecap="round" stroke-linejoin="round"/>
<path d="M155.096 107.627H154.033" stroke="#002544" stroke-width="0.4" stroke-miterlimit="10" stroke-linecap="round" stroke-linejoin="round"/>
<path d="M206.014 107.525C205.128 107.559 204.243 107.593 203.357 107.627H196.684H190.014H183.285C183.099 107.627 182.911 107.627 182.725 107.627" stroke="#002544" stroke-width="0.4" stroke-miterlimit="10" stroke-linecap="round" stroke-linejoin="round"/>
<path d="M177.884 114.299H183.286H190.014H196.685H203.357H205.672H207.899" stroke="#002544" stroke-width="0.4" stroke-miterlimit="10" stroke-linecap="round" stroke-linejoin="round"/>
<path d="M122.124 114.299H122.121" stroke="#002544" stroke-width="0.4" stroke-miterlimit="10" stroke-linecap="round" stroke-linejoin="round"/>
<path d="M157.043 114.299H156.599H154.806H149.928H143.323" stroke="#002544" stroke-width="0.4" stroke-miterlimit="10" stroke-linecap="round" stroke-linejoin="round"/>
<path d="M173.042 120.969H176.615H183.286H190.014H196.684H203.357H207.527H209.755" stroke="#002544" stroke-width="0.4" stroke-miterlimit="10" stroke-linecap="round" stroke-linejoin="round"/>
<path d="M135.319 120.969H136.585H143.258H149.929H156.599H156.754H158.988" stroke="#002544" stroke-width="0.4" stroke-miterlimit="10" stroke-linecap="round" stroke-linejoin="round"/>
<path d="M211.596 127.584C211.074 127.598 210.55 127.613 210.028 127.625C209.813 127.63 209.6 127.637 209.385 127.642H203.357H196.685H190.014H183.286H176.615H169.943H168.198" stroke="#002544" stroke-width="0.4" stroke-miterlimit="10" stroke-linecap="round" stroke-linejoin="round"/>
<path d="M128.848 127.643H129.916H136.586H143.259H149.929H156.6H158.701H160.936" stroke="#002544" stroke-width="0.4" stroke-miterlimit="10" stroke-linecap="round" stroke-linejoin="round"/>
<path d="M163.354 134.313H169.942H176.615H183.285H190.013H196.684H203.357H210.027C211.17 134.294 212.31 134.275 213.45 134.258" stroke="#002544" stroke-width="0.4" stroke-miterlimit="10" stroke-linecap="round" stroke-linejoin="round"/>
<path d="M162.883 134.312H161.789H160.649H156.599H149.929H143.259H136.586H129.915H123.419" stroke="#002544" stroke-width="0.4" stroke-miterlimit="10" stroke-linecap="round" stroke-linejoin="round"/>
<path d="M215.323 140.977C213.557 140.979 211.791 140.981 210.028 140.984H209.685" stroke="#002544" stroke-width="0.4" stroke-miterlimit="10" stroke-linecap="round" stroke-linejoin="round"/>
<path d="M119.21 140.982C120.553 140.982 121.899 140.982 123.242 140.982H129.915H136.585H143.258H149.929H156.599H163.272H169.942H176.615H183.285H190.014H196.684H203.357H206" stroke="#002544" stroke-width="0.4" stroke-miterlimit="10" stroke-linecap="round" stroke-linejoin="round"/>
<path d="M150.132 147.656H149.929H143.258H136.585H129.915H123.242C122.517 147.656 121.79 147.656 121.065 147.656" stroke="#002544" stroke-width="0.4" stroke-miterlimit="10" stroke-linecap="round" stroke-linejoin="round"/>
<path d="M160.687 147.69C159.914 147.678 159.133 147.668 158.346 147.664C157.759 147.659 157.176 147.656 156.599 147.656C155.93 147.656 155.258 147.656 154.589 147.656" stroke="#002544" stroke-width="0.4" stroke-miterlimit="10" stroke-linecap="round" stroke-linejoin="round"/>
<path d="M170.515 147.655H176.615H183.285H190.014H196.684H203.357C204.244 147.643 205.133 147.633 206.019 147.621" stroke="#002544" stroke-width="0.4" stroke-miterlimit="10" stroke-linecap="round" stroke-linejoin="round"/>
<path d="M162.296 154.336C162.296 154.336 162.296 154.336 162.293 154.336C160.397 154.331 158.498 154.329 156.599 154.326H155.985" stroke="#002544" stroke-width="0.4" stroke-miterlimit="10" stroke-linecap="round" stroke-linejoin="round"/>
<path d="M122.923 154.326C123.029 154.326 123.135 154.326 123.242 154.326H129.915H136.585H143.258H149.288" stroke="#002544" stroke-width="0.4" stroke-miterlimit="10" stroke-linecap="round" stroke-linejoin="round"/>
<path d="M190.625 154.326H190.014H183.285H178.543" stroke="#002544" stroke-width="0.4" stroke-miterlimit="10" stroke-linecap="round" stroke-linejoin="round"/>
<path d="M124.778 161H129.915H136.585H143.258H149.928H156.599C158.802 160.973 161.008 160.944 163.211 160.918C163.743 160.911 164.274 160.906 164.806 160.898" stroke="#002544" stroke-width="0.4" stroke-miterlimit="10" stroke-linecap="round" stroke-linejoin="round"/>
<path d="M126.634 167.67H129.915H136.585H142.676" stroke="#002544" stroke-width="0.4" stroke-miterlimit="10" stroke-linecap="round" stroke-linejoin="round"/>
<path d="M123.242 155.476V154.326V147.655V140.982V134.549" stroke="#002544" stroke-width="0.4" stroke-miterlimit="10" stroke-linecap="round" stroke-linejoin="round"/>
<path d="M129.915 126.453V127.642V134.312V140.983V147.655V154.326V160.999V167.669V171.22" stroke="#002544" stroke-width="0.4" stroke-miterlimit="10" stroke-linecap="round" stroke-linejoin="round"/>
<path d="M136.585 119.805V120.969V127.642V134.312V140.983V147.656V154.326V160.999V167.669V169.363" stroke="#002544" stroke-width="0.4" stroke-miterlimit="10" stroke-linecap="round" stroke-linejoin="round"/>
<path d="M143.258 114.348V120.97V127.643V134.313V140.983V147.656V154.327V160.999V167.508" stroke="#002544" stroke-width="0.4" stroke-miterlimit="10" stroke-linecap="round" stroke-linejoin="round"/>
<path d="M149.996 165.633C149.975 164.089 149.95 162.543 149.929 160.999C149.929 159.813 149.929 158.624 149.929 157.436" stroke="#002544" stroke-width="0.4" stroke-miterlimit="10" stroke-linecap="round" stroke-linejoin="round"/>
<path d="M149.929 147.713V147.655V140.982V134.312V127.642V120.969V114.298V109.906" stroke="#002544" stroke-width="0.4" stroke-miterlimit="10" stroke-linecap="round" stroke-linejoin="round"/>
<path d="M149.929 154.044C149.929 153.102 149.929 152.158 149.929 151.213" stroke="#002544" stroke-width="0.4" stroke-miterlimit="10" stroke-linecap="round" stroke-linejoin="round"/>
<path d="M156.599 153.754C156.599 153.945 156.599 154.136 156.599 154.326C156.599 154.363 156.599 154.397 156.599 154.433" stroke="#002544" stroke-width="0.4" stroke-miterlimit="10" stroke-linecap="round" stroke-linejoin="round"/>
<path d="M156.599 158.955C156.599 159.32 156.599 159.682 156.599 160.047V160.284" stroke="#002544" stroke-width="0.4" stroke-miterlimit="10" stroke-linecap="round" stroke-linejoin="round"/>
<path d="M156.599 141.906V140.983V134.313V127.642V120.969V120.44V114.299V112.779" stroke="#002544" stroke-width="0.4" stroke-miterlimit="10" stroke-linecap="round" stroke-linejoin="round"/>
<path d="M156.599 154.327C156.599 154.136 156.599 153.945 156.599 153.754C156.599 153.37 156.599 152.984 156.599 152.6" stroke="#002544" stroke-width="0.4" stroke-miterlimit="10" stroke-linecap="round" stroke-linejoin="round"/>
<path d="M156.599 147.97C156.599 147.866 156.599 147.76 156.599 147.656C156.599 147.1 156.599 146.542 156.599 145.986" stroke="#002544" stroke-width="0.4" stroke-miterlimit="10" stroke-linecap="round" stroke-linejoin="round"/>
<path d="M156.599 161.997V160.999V160.284V160.047" stroke="#002544" stroke-width="0.4" stroke-miterlimit="10" stroke-linecap="round" stroke-linejoin="round"/>
<path d="M163.271 134.426V140.983V144.16" stroke="#002544" stroke-width="0.4" stroke-miterlimit="10" stroke-linecap="round" stroke-linejoin="round"/>
<path d="M163.257 149.277C163.257 149.372 163.255 149.463 163.255 149.558" stroke="#002544" stroke-width="0.4" stroke-miterlimit="10" stroke-linecap="round" stroke-linejoin="round"/>
<path d="M163.214 160.406C163.211 160.575 163.211 160.747 163.211 160.916C163.211 161.008 163.209 161.1 163.209 161.191" stroke="#002544" stroke-width="0.4" stroke-miterlimit="10" stroke-linecap="round" stroke-linejoin="round"/>
<path d="M163.23 155.889C163.23 155.498 163.233 155.107 163.235 154.715V154.713" stroke="#002544" stroke-width="0.4" stroke-miterlimit="10" stroke-linecap="round" stroke-linejoin="round"/>
<path d="M169.942 125.238V127.642V134.313V140.983V147.359V147.361" stroke="#002544" stroke-width="0.4" stroke-miterlimit="10" stroke-linecap="round" stroke-linejoin="round"/>
<path d="M176.615 152.492V147.655V140.982V134.312V127.641V120.969V116.045" stroke="#002544" stroke-width="0.4" stroke-miterlimit="10" stroke-linecap="round" stroke-linejoin="round"/>
<path d="M183.285 155.537C183.285 155.133 183.285 154.73 183.285 154.326V147.656V140.983V134.313V127.642V120.969V114.299V107.626C183.285 107.37 183.285 107.112 183.285 106.855" stroke="#002544" stroke-width="0.4" stroke-miterlimit="10" stroke-linecap="round" stroke-linejoin="round"/>
<path d="M190.014 99.2188V101.272V107.626V114.299V120.969V127.642V134.313V140.983V147.656V154.326V154.495" stroke="#002544" stroke-width="0.4" stroke-miterlimit="10" stroke-linecap="round" stroke-linejoin="round"/>
<path d="M196.685 99.5156V101.272V107.626V114.299V120.969V127.642V134.312V140.983V147.656V152.64" stroke="#002544" stroke-width="0.4" stroke-miterlimit="10" stroke-linecap="round" stroke-linejoin="round"/>
<path d="M203.357 100.309V101.294V105.979V107.626V114.299V120.97V127.643V134.313V140.983V147.656V150.782" stroke="#002544" stroke-width="0.4" stroke-miterlimit="10" stroke-linecap="round" stroke-linejoin="round"/>
<path d="M210.027 141.488V140.983V134.313V129.952V127.643V127.626V121.953" stroke="#002544" stroke-width="0.4" stroke-miterlimit="10" stroke-linecap="round" stroke-linejoin="round"/>
<path d="M204.282 101.3C203.985 101.3 203.676 101.297 203.357 101.295C201.369 101.288 198.992 101.278 196.684 101.273C194.186 101.266 191.768 101.266 190.014 101.273C188.383 101.278 187.323 101.292 187.306 101.319" stroke="#002544" stroke-width="0.4" stroke-miterlimit="10" stroke-linecap="round" stroke-linejoin="round"/>
<path d="M156.08 171.782C156.748 171.782 157.29 171.24 157.29 170.572C157.29 169.903 156.748 169.361 156.08 169.361C155.411 169.361 154.869 169.903 154.869 170.572C154.869 171.24 155.411 171.782 156.08 171.782Z" fill="#005DAA"/>
<path d="M153.47 192.942C154.139 192.942 154.681 192.4 154.681 191.732C154.681 191.063 154.139 190.521 153.47 190.521C152.802 190.521 152.26 191.063 152.26 191.732C152.26 192.4 152.802 192.942 153.47 192.942Z" fill="#005DAA"/>
<path d="M150.592 214.647C151.261 214.647 151.803 214.105 151.803 213.437C151.803 212.768 151.261 212.227 150.592 212.227C149.924 212.227 149.382 212.768 149.382 213.437C149.382 214.105 149.924 214.647 150.592 214.647Z" fill="#005DAA"/>
<path d="M114.537 134.445L94.8594 131.693" stroke="#002544" stroke-width="0.7" stroke-miterlimit="10" stroke-linecap="round" stroke-linejoin="round"/>
<path d="M196.473 186.365C196.266 177.851 196.055 169.34 195.848 160.826" stroke="#002544" stroke-width="0.7" stroke-miterlimit="10" stroke-linecap="round" stroke-linejoin="round"/>
<path d="M112.423 194.738C110.271 196.152 108.512 197.118 107.258 197.601C103.912 198.889 100.979 198.766 100.979 198.766C98.7951 198.766 97.5002 198.239 96.9735 198.002C91.8759 196.546 89.7402 188.194 88.7158 181.32C96.541 182.284 106.007 185.572 112.423 194.738Z" fill="#004177"/>
<path d="M243.618 166.729C242.169 170.324 239.951 173.259 237.373 175.658C236.624 176.354 235.846 177.004 235.047 177.613C231.742 170.923 231.507 163.264 234.672 156.889C237.148 151.9 241.077 148.96 243.964 147.346C244.019 147.607 244.072 147.868 244.123 148.126C244.179 148.423 244.234 148.718 244.288 149.01C245.254 154.415 246.225 160.271 243.618 166.729Z" fill="#004177"/>
</g>
<defs>
<clipPath id="clip0">
<rect width="335" height="228" fill="white" transform="translate(0.5)"/>
</clipPath>
</defs>
</svg>
