<svg width="121" height="40" viewBox="0 0 121 40" fill="none" xmlns="http://www.w3.org/2000/svg">
<path d="M110.635 0.00013H10.0347C9.66798 0.00013 9.30568 0.00013 8.93995 0.00213C8.6338 0.00413 8.33009 0.00994 8.021 0.01483C7.34951 0.0227318 6.67961 0.0818063 6.0171 0.19154C5.35552 0.303663 4.71467 0.515046 4.11622 0.81854C3.5185 1.1246 2.97235 1.5223 2.49757 1.9972C2.0203 2.47077 1.62246 3.01815 1.31935 3.61829C1.0154 4.21724 0.804641 4.85907 0.69435 5.52161C0.583011 6.18332 0.523098 6.85265 0.51515 7.52361C0.50587 7.83021 0.50489 8.13783 0.5 8.44447V31.5587C0.50489 31.8692 0.50587 32.17 0.51515 32.4806C0.523101 33.1516 0.583013 33.8209 0.69435 34.4825C0.804336 35.1455 1.01511 35.7877 1.31935 36.3868C1.62233 36.985 2.02022 37.5302 2.49757 38.0011C2.97054 38.4781 3.51705 38.8761 4.11622 39.1798C4.71467 39.4841 5.35545 39.6968 6.0171 39.8106C6.67972 39.9195 7.34956 39.9786 8.021 39.9874C8.33009 39.9942 8.6338 39.9981 8.93995 39.9981C9.30567 40.0001 9.668 40.0001 10.0347 40.0001H110.635C110.994 40.0001 111.359 40.0001 111.719 39.9981C112.023 39.9981 112.336 39.9942 112.641 39.9874C113.311 39.9791 113.979 39.92 114.641 39.8106C115.304 39.696 115.948 39.4834 116.549 39.1798C117.147 38.8759 117.693 38.478 118.166 38.0011C118.642 37.5284 119.041 36.9836 119.348 36.3868C119.65 35.7872 119.858 35.1451 119.967 34.4825C120.078 33.8208 120.14 33.1516 120.152 32.4806C120.156 32.17 120.156 31.8692 120.156 31.5587C120.164 31.1954 120.164 30.8341 120.164 30.4649V9.53626C120.164 9.17005 120.164 8.80677 120.156 8.44447C120.156 8.13783 120.156 7.83021 120.152 7.52357C120.14 6.85255 120.078 6.18337 119.967 5.52157C119.858 4.85941 119.649 4.21763 119.348 3.61825C118.73 2.41533 117.752 1.43616 116.549 0.81845C115.948 0.515697 115.304 0.30437 114.641 0.19145C113.98 0.0812328 113.311 0.0221378 112.641 0.01469C112.336 0.00981 112.023 0.00395 111.719 0.002C111.359 0 110.994 0 110.635 0V0.00013Z" fill="#BBC6D2"/>
<path d="M8.94487 39.125C8.64019 39.125 8.34287 39.1211 8.04058 39.1143C7.41436 39.1061 6.7896 39.0516 6.17144 38.9512C5.59503 38.8519 5.03664 38.6673 4.5147 38.4033C3.99754 38.1415 3.52585 37.7983 3.1177 37.3867C2.70364 36.98 2.35891 36.5082 2.09719 35.9902C1.83258 35.4688 1.64945 34.9099 1.55419 34.333C1.45131 33.7131 1.39565 33.0863 1.38769 32.458C1.38135 32.2471 1.37305 31.5449 1.37305 31.5449V8.44434C1.37305 8.44434 1.38189 7.75293 1.38774 7.5498C1.39536 6.92248 1.4507 6.29665 1.55327 5.67773C1.64871 5.09925 1.83197 4.53875 2.09673 4.01563C2.35749 3.49794 2.7003 3.02586 3.11187 2.61768C3.52297 2.20562 3.99617 1.8606 4.51421 1.59521C5.03495 1.33209 5.59228 1.14873 6.16753 1.05127C6.78772 0.949836 7.41465 0.894996 8.04304 0.88721L8.94536 0.875H111.714L112.627 0.8877C113.25 0.895099 113.871 0.94945 114.485 1.05029C115.066 1.14898 115.63 1.33362 116.156 1.59814C117.194 2.13299 118.039 2.97916 118.571 4.01807C118.832 4.53758 119.012 5.09351 119.107 5.66699C119.21 6.29099 119.268 6.92174 119.28 7.5542C119.283 7.8374 119.283 8.1416 119.283 8.44434C119.291 8.81934 119.291 9.17627 119.291 9.53613V30.4648C119.291 30.8281 119.291 31.1826 119.283 31.54C119.283 31.8652 119.283 32.1631 119.279 32.4697C119.268 33.0909 119.211 33.7104 119.108 34.3232C119.015 34.9043 118.833 35.4675 118.568 35.9932C118.305 36.5056 117.962 36.9733 117.553 37.3789C117.144 37.7927 116.672 38.1379 116.153 38.4014C115.628 38.6674 115.066 38.8527 114.485 38.9512C113.867 39.0522 113.242 39.1067 112.616 39.1143C112.323 39.1211 112.017 39.125 111.719 39.125L110.635 39.127L8.94487 39.125Z" fill="black"/>
<path d="M25.269 20.3003C25.2797 19.4657 25.5014 18.6473 25.9135 17.9213C26.3255 17.1954 26.9145 16.5854 27.6256 16.1483C27.1738 15.5031 26.5779 14.9722 25.885 14.5976C25.1922 14.2231 24.4216 14.0152 23.6344 13.9906C21.9552 13.8143 20.3272 14.9954 19.4715 14.9954C18.5992 14.9954 17.2817 14.0081 15.863 14.0373C14.9453 14.0669 14.051 14.3338 13.2671 14.8118C12.4832 15.2899 11.8365 15.9629 11.3901 16.7651C9.45607 20.1136 10.8987 25.0346 12.7513 27.7412C13.6782 29.0666 14.7615 30.547 16.1789 30.4945C17.566 30.437 18.084 29.61 19.7583 29.61C21.4171 29.61 21.9031 30.4945 23.3493 30.4611C24.8377 30.437 25.7754 29.1299 26.6698 27.792C27.3358 26.8476 27.8483 25.8039 28.1882 24.6995C27.3235 24.3338 26.5856 23.7216 26.0665 22.9393C25.5474 22.157 25.27 21.2392 25.269 20.3003Z" fill="white"/>
<path d="M22.5376 12.2113C23.3491 11.2371 23.7489 9.98494 23.6521 8.7207C22.4123 8.85092 21.267 9.44348 20.4445 10.3803C20.0424 10.838 19.7344 11.3704 19.5381 11.9472C19.3419 12.524 19.2612 13.1337 19.3008 13.7417C19.9209 13.7481 20.5344 13.6137 21.0951 13.3486C21.6558 13.0835 22.149 12.6946 22.5376 12.2113Z" fill="white"/>
<path d="M42.8027 27.1397H38.0693L36.9326 30.4961H34.9277L39.4111 18.0781H41.4941L45.9775 30.4961H43.9385L42.8027 27.1397ZM38.5596 25.5908H42.3116L40.462 20.1436H40.4102L38.5596 25.5908Z" fill="white"/>
<path d="M55.6602 25.9695C55.6602 28.7829 54.1543 30.5905 51.8819 30.5905C51.3062 30.6207 50.7337 30.4881 50.2299 30.2079C49.7261 29.9278 49.3114 29.5114 49.0332 29.0065H48.9902V33.4909H47.1318V21.4421H48.9307V22.948H48.9649C49.2558 22.4455 49.6776 22.0313 50.1852 21.7495C50.6928 21.4676 51.2674 21.3287 51.8477 21.3474C54.1455 21.3474 55.6602 23.1638 55.6602 25.9695ZM53.75 25.9695C53.75 24.1365 52.8028 22.9314 51.3574 22.9314C49.9375 22.9314 48.9824 24.1618 48.9824 25.9695C48.9824 27.7937 49.9375 29.0154 51.3574 29.0154C52.8028 29.0154 53.75 27.8191 53.75 25.9695Z" fill="white"/>
<path d="M65.625 25.9694C65.625 28.7829 64.1192 30.5905 61.8467 30.5905C61.2711 30.6206 60.6986 30.488 60.1948 30.2079C59.691 29.9278 59.2762 29.5114 58.9981 29.0065H58.9551V33.4909H57.0967V21.4421H58.8955V22.948H58.9297C59.2206 22.4455 59.6424 22.0313 60.15 21.7495C60.6576 21.4676 61.2322 21.3287 61.8125 21.3474C64.1104 21.3474 65.625 23.1638 65.625 25.9694ZM63.7149 25.9694C63.7149 24.1364 62.7676 22.9314 61.3223 22.9314C59.9024 22.9314 58.9473 24.1618 58.9473 25.9694C58.9473 27.7937 59.9024 29.0153 61.3223 29.0153C62.7676 29.0153 63.7149 27.8191 63.7149 25.9694H63.7149Z" fill="white"/>
<path d="M72.211 27.0362C72.3487 28.2676 73.545 29.0762 75.1797 29.0762C76.7461 29.0762 77.8731 28.2676 77.8731 27.1572C77.8731 26.1934 77.1934 25.6162 75.584 25.2207L73.9746 24.833C71.6944 24.2822 70.6358 23.2158 70.6358 21.4854C70.6358 19.3428 72.503 17.8711 75.1543 17.8711C77.7783 17.8711 79.5772 19.3428 79.6377 21.4854H77.7617C77.6494 20.2461 76.625 19.4981 75.1279 19.4981C73.6309 19.4981 72.6065 20.2549 72.6065 21.3565C72.6065 22.2344 73.2608 22.751 74.8613 23.1465L76.2295 23.4824C78.7773 24.0849 79.8359 25.1084 79.8359 26.9248C79.8359 29.248 77.9854 30.7031 75.042 30.7031C72.2881 30.7031 70.4287 29.2822 70.3086 27.0361L72.211 27.0362Z" fill="white"/>
<path d="M83.8467 19.3008V21.4434H85.5684V22.915H83.8467V27.9062C83.8467 28.6816 84.1914 29.043 84.9482 29.043C85.1526 29.0394 85.3567 29.0251 85.5596 29V30.4629C85.2193 30.5264 84.8734 30.5552 84.5273 30.5488C82.6943 30.5488 81.9795 29.8603 81.9795 28.1045V22.915H80.6631V21.4434H81.9795V19.3008H83.8467Z" fill="white"/>
<path d="M86.5654 25.9707C86.5654 23.1221 88.2432 21.332 90.8594 21.332C93.4844 21.332 95.1543 23.122 95.1543 25.9707C95.1543 28.8272 93.4932 30.6094 90.8594 30.6094C88.2265 30.6094 86.5654 28.8271 86.5654 25.9707ZM93.2607 25.9707C93.2607 24.0166 92.3652 22.8633 90.8594 22.8633C89.3535 22.8633 88.459 24.0254 88.459 25.9707C88.459 27.9326 89.3535 29.0772 90.8594 29.0772C92.3652 29.0772 93.2607 27.9326 93.2607 25.9707H93.2607Z" fill="white"/>
<path d="M96.6865 21.442H98.459V22.983H98.502C98.6219 22.5017 98.9039 22.0764 99.3005 21.7785C99.697 21.4806 100.184 21.3284 100.68 21.3473C100.894 21.3465 101.107 21.3698 101.316 21.4166V23.1549C101.046 23.0723 100.764 23.0343 100.481 23.0426C100.211 23.0316 99.9423 23.0792 99.6925 23.1821C99.4426 23.285 99.218 23.4408 99.034 23.6386C98.8501 23.8365 98.7111 24.0719 98.6267 24.3286C98.5422 24.5852 98.5143 24.8571 98.5449 25.1256V30.4957H96.6865L96.6865 21.442Z" fill="white"/>
<path d="M109.885 27.8379C109.635 29.4814 108.034 30.6094 105.986 30.6094C103.353 30.6094 101.718 28.8447 101.718 26.0137C101.718 23.1738 103.361 21.332 105.908 21.332C108.413 21.332 109.988 23.0527 109.988 25.7978V26.4346H103.594V26.5469C103.564 26.8801 103.606 27.2157 103.716 27.5316C103.826 27.8474 104.002 28.1362 104.233 28.3787C104.463 28.6213 104.742 28.8121 105.052 28.9384C105.362 29.0647 105.695 29.1236 106.029 29.1113C106.468 29.1525 106.909 29.0508 107.286 28.8213C107.663 28.5919 107.955 28.247 108.12 27.8379L109.885 27.8379ZM103.603 25.1357H108.129C108.146 24.8361 108.1 24.5363 107.995 24.2551C107.891 23.9739 107.729 23.7174 107.521 23.5016C107.312 23.2858 107.061 23.1155 106.784 23.0013C106.506 22.8871 106.208 22.8314 105.908 22.8379C105.606 22.8361 105.306 22.8942 105.026 23.009C104.745 23.1237 104.491 23.2928 104.277 23.5064C104.062 23.72 103.892 23.974 103.777 24.2537C103.661 24.5333 103.602 24.8331 103.603 25.1357V25.1357Z" fill="white"/>
<path d="M38.3262 8.73138C38.7158 8.70342 39.1067 8.76228 39.4709 8.90371C39.835 9.04515 40.1632 9.26563 40.4317 9.54925C40.7003 9.83288 40.9026 10.1726 41.024 10.5438C41.1454 10.9151 41.1829 11.3087 41.1338 11.6962C41.1338 13.6025 40.1035 14.6982 38.3262 14.6982H36.1709V8.73138H38.3262ZM37.0976 13.8544H38.2226C38.5011 13.871 38.7797 13.8254 39.0382 13.7208C39.2967 13.6161 39.5287 13.4552 39.7172 13.2496C39.9057 13.0441 40.046 12.7991 40.1278 12.5324C40.2097 12.2658 40.2311 11.9843 40.1904 11.7084C40.2281 11.4335 40.2046 11.1538 40.1215 10.8891C40.0383 10.6244 39.8977 10.3814 39.7096 10.1775C39.5216 9.97358 39.2907 9.81378 39.0337 9.70954C38.7766 9.6053 38.4996 9.55922 38.2226 9.57459H37.0976V13.8544Z" fill="white"/>
<path d="M42.1809 12.4458C42.1526 12.1498 42.1865 11.8513 42.2803 11.5692C42.3742 11.2871 42.5259 11.0278 42.7259 10.8078C42.9258 10.5878 43.1695 10.4121 43.4414 10.2918C43.7132 10.1715 44.0072 10.1094 44.3045 10.1094C44.6017 10.1094 44.8957 10.1715 45.1676 10.2918C45.4394 10.4121 45.6832 10.5878 45.8831 10.8078C46.083 11.0278 46.2348 11.2871 46.3286 11.5692C46.4225 11.8513 46.4563 12.1498 46.428 12.4458C46.4569 12.742 46.4234 13.041 46.3298 13.3235C46.2362 13.606 46.0846 13.8658 45.8846 14.0862C45.6846 14.3067 45.4407 14.4828 45.1686 14.6033C44.8964 14.7239 44.6021 14.7861 44.3045 14.7861C44.0069 14.7861 43.7125 14.7239 43.4404 14.6033C43.1683 14.4828 42.9244 14.3067 42.7244 14.0862C42.5244 13.8658 42.3727 13.606 42.2791 13.3235C42.1855 13.041 42.1521 12.742 42.1809 12.4458ZM45.5139 12.4458C45.5139 11.4697 45.0755 10.8989 44.3059 10.8989C43.5335 10.8989 43.0989 11.4697 43.0989 12.4458C43.0989 13.4297 43.5335 13.9961 44.3059 13.9961C45.0755 13.996 45.514 13.4257 45.514 12.4458H45.5139Z" fill="white"/>
<path d="M52.0732 14.6982H51.1514L50.2207 11.3818H50.1504L49.2236 14.6982H48.3105L47.0693 10.1953H47.9707L48.7773 13.6313H48.8438L49.7695 10.1953H50.6221L51.5479 13.6313H51.6182L52.4209 10.1953H53.3096L52.0732 14.6982Z" fill="white"/>
<path d="M54.3535 10.1949H55.209V10.9102H55.2754C55.388 10.6533 55.5781 10.4379 55.8189 10.2941C56.0598 10.1503 56.3395 10.0852 56.6191 10.1079C56.8382 10.0915 57.0582 10.1245 57.2628 10.2046C57.4674 10.2847 57.6514 10.4098 57.8011 10.5707C57.9508 10.7315 58.0623 10.924 58.1275 11.1338C58.1927 11.3436 58.2099 11.5654 58.1777 11.7827V14.6977H57.2891V12.0059C57.2891 11.2823 56.9746 10.9224 56.3174 10.9224C56.1686 10.9155 56.0201 10.9408 55.8821 10.9966C55.744 11.0525 55.6197 11.1375 55.5175 11.2459C55.4154 11.3543 55.3379 11.4834 55.2904 11.6246C55.2429 11.7657 55.2264 11.9154 55.2422 12.0635V14.6978H54.3535L54.3535 10.1949Z" fill="white"/>
<path d="M59.5938 8.4375H60.4824V14.6982H59.5938V8.4375Z" fill="white"/>
<path d="M61.718 12.4439C61.6897 12.1479 61.7236 11.8494 61.8175 11.5673C61.9113 11.2852 62.0631 11.0259 62.2631 10.8059C62.463 10.5859 62.7068 10.4101 62.9786 10.2898C63.2505 10.1696 63.5445 10.1074 63.8418 10.1074C64.1391 10.1074 64.4331 10.1696 64.705 10.2898C64.9768 10.4101 65.2206 10.5859 65.4205 10.8059C65.6205 11.0259 65.7723 11.2852 65.8661 11.5673C65.96 11.8494 65.9939 12.1479 65.9656 12.4439C65.9944 12.7401 65.9609 13.0391 65.8673 13.3216C65.7737 13.6042 65.622 13.864 65.422 14.0844C65.222 14.3048 64.978 14.4809 64.7059 14.6014C64.4338 14.722 64.1394 14.7842 63.8418 14.7842C63.5442 14.7842 63.2498 14.722 62.9777 14.6014C62.7056 14.4809 62.4617 14.3048 62.2616 14.0844C62.0616 13.864 61.9099 13.6042 61.8163 13.3216C61.7227 13.0391 61.6892 12.7401 61.718 12.4439ZM65.051 12.4439C65.051 11.4678 64.6125 10.897 63.843 10.897C63.0706 10.897 62.636 11.4678 62.636 12.4439C62.636 13.4278 63.0706 13.9942 63.843 13.9942C64.6126 13.9942 65.051 13.4239 65.051 12.4439H65.051Z" fill="white"/>
<path d="M66.9004 13.4258C66.9004 12.6152 67.5039 12.1479 68.5752 12.0815L69.7949 12.0112V11.6226C69.7949 11.147 69.4805 10.8784 68.873 10.8784C68.377 10.8784 68.0332 11.0605 67.9346 11.3789H67.0742C67.165 10.6055 67.8926 10.1094 68.9141 10.1094C70.043 10.1094 70.6797 10.6714 70.6797 11.6226V14.6992H69.8242V14.0664H69.7539C69.6112 14.2934 69.4108 14.4784 69.1732 14.6027C68.9355 14.7269 68.6692 14.7858 68.4014 14.7734C68.2123 14.7931 68.0213 14.7729 67.8405 14.7142C67.6598 14.6555 67.4933 14.5596 67.3519 14.4326C67.2105 14.3056 67.0972 14.1504 67.0195 13.977C66.9417 13.8036 66.9011 13.6158 66.9004 13.4258ZM69.7949 13.041V12.6645L68.6953 12.7349C68.0752 12.7764 67.7939 12.9873 67.7939 13.3843C67.7939 13.7895 68.1455 14.0254 68.6289 14.0254C68.7706 14.0397 68.9137 14.0254 69.0497 13.9833C69.1857 13.9412 69.3118 13.8722 69.4206 13.7804C69.5294 13.6885 69.6186 13.5757 69.6829 13.4487C69.7472 13.3217 69.7853 13.183 69.7949 13.041Z" fill="white"/>
<path d="M71.8477 12.4448C71.8477 11.022 72.5791 10.1206 73.7168 10.1206C73.9982 10.1077 74.2775 10.1751 74.522 10.315C74.7666 10.4548 74.9662 10.6615 75.0977 10.9106H75.1641V8.4375H76.0527V14.6982H75.2012V13.9868H75.1309C74.9893 14.2343 74.7826 14.4383 74.5334 14.5768C74.2841 14.7153 74.0017 14.783 73.7168 14.7724C72.5713 14.7725 71.8477 13.8711 71.8477 12.4448ZM72.7657 12.4448C72.7657 13.3999 73.2159 13.9746 73.9688 13.9746C74.7178 13.9746 75.1807 13.3916 75.1807 12.4487C75.1807 11.5103 74.7129 10.919 73.9688 10.919C73.2207 10.919 72.7656 11.4976 72.7656 12.4448H72.7657Z" fill="white"/>
<path d="M79.7298 12.4458C79.7015 12.1498 79.7353 11.8513 79.8292 11.5692C79.923 11.2871 80.0748 11.0278 80.2747 10.8078C80.4746 10.5878 80.7183 10.4121 80.9902 10.2918C81.262 10.1715 81.556 10.1094 81.8533 10.1094C82.1506 10.1094 82.4446 10.1715 82.7164 10.2918C82.9883 10.4121 83.232 10.5878 83.4319 10.8078C83.6319 11.0278 83.7836 11.2871 83.8775 11.5692C83.9713 11.8513 84.0052 12.1498 83.9768 12.4458C84.0057 12.742 83.9722 13.041 83.8786 13.3235C83.7851 13.606 83.6334 13.8658 83.4334 14.0862C83.2334 14.3067 82.9895 14.4828 82.7174 14.6033C82.4453 14.7239 82.1509 14.7861 81.8533 14.7861C81.5557 14.7861 81.2613 14.7239 80.9892 14.6033C80.7171 14.4828 80.4732 14.3067 80.2732 14.0862C80.0732 13.8658 79.9216 13.606 79.828 13.3235C79.7344 13.041 79.7009 12.742 79.7298 12.4458ZM83.0628 12.4458C83.0628 11.4697 82.6243 10.8989 81.8548 10.8989C81.0823 10.8989 80.6478 11.4697 80.6478 12.4458C80.6478 13.4297 81.0823 13.9961 81.8548 13.9961C82.6243 13.996 83.0628 13.4257 83.0628 12.4458Z" fill="white"/>
<path d="M85.1689 10.1949H86.0244V10.9102H86.0908C86.2035 10.6533 86.3935 10.4379 86.6344 10.2941C86.8752 10.1503 87.155 10.0852 87.4346 10.1079C87.6537 10.0915 87.8737 10.1245 88.0783 10.2046C88.2829 10.2847 88.4668 10.4098 88.6165 10.5707C88.7662 10.7315 88.8778 10.924 88.943 11.1338C89.0082 11.3436 89.0253 11.5654 88.9932 11.7827V14.6977H88.1045V12.0059C88.1045 11.2823 87.7901 10.9224 87.1328 10.9224C86.9841 10.9155 86.8356 10.9408 86.6975 10.9966C86.5594 11.0525 86.4351 11.1375 86.333 11.2459C86.2308 11.3543 86.1534 11.4834 86.1058 11.6246C86.0583 11.7657 86.0419 11.9154 86.0576 12.0635V14.6978H85.1689V10.1949Z" fill="white"/>
<path d="M94.0146 9.07422V10.2158H94.9902V10.9644H94.0146V13.2798C94.0146 13.7515 94.209 13.958 94.6514 13.958C94.7646 13.9576 94.8778 13.9508 94.9902 13.9375V14.6777C94.8307 14.7063 94.669 14.7215 94.5068 14.7231C93.5186 14.7231 93.125 14.3755 93.125 13.5073V10.9643H92.4102V10.2158H93.125V9.07422H94.0146Z" fill="white"/>
<path d="M96.2051 8.4375H97.0859V10.919H97.1562C97.2744 10.6596 97.4696 10.443 97.7153 10.2987C97.961 10.1543 98.2452 10.0893 98.5292 10.1123C98.7472 10.1004 98.9651 10.1368 99.1674 10.2189C99.3697 10.3009 99.5513 10.4266 99.6995 10.5869C99.8476 10.7473 99.9585 10.9383 100.024 11.1465C100.09 11.3546 100.109 11.5747 100.08 11.791V14.6982H99.1905V12.0103C99.1905 11.291 98.8555 10.9268 98.2276 10.9268C98.0748 10.9142 97.9212 10.9352 97.7774 10.9883C97.6337 11.0413 97.5032 11.1252 97.3952 11.2339C97.2872 11.3426 97.2043 11.4737 97.1522 11.6178C97.1002 11.7619 97.0802 11.9157 97.0938 12.0683V14.6982H96.2051L96.2051 8.4375Z" fill="white"/>
<path d="M105.261 13.4815C105.141 13.8931 104.879 14.249 104.522 14.4872C104.166 14.7253 103.737 14.8305 103.31 14.7842C103.014 14.7921 102.719 14.7353 102.446 14.6177C102.174 14.5002 101.93 14.3248 101.732 14.1036C101.534 13.8825 101.387 13.6209 101.3 13.3371C101.213 13.0533 101.19 12.754 101.23 12.46C101.191 12.1652 101.215 11.8652 101.301 11.5805C101.388 11.2959 101.535 11.0331 101.731 10.81C101.928 10.587 102.171 10.4088 102.443 10.2876C102.714 10.1664 103.009 10.105 103.306 10.1075C104.559 10.1075 105.315 10.9635 105.315 12.3775V12.6876H102.135V12.7374C102.121 12.9026 102.142 13.069 102.196 13.2257C102.251 13.3825 102.337 13.5262 102.45 13.6476C102.563 13.7691 102.7 13.8656 102.852 13.931C103.004 13.9964 103.169 14.0292 103.335 14.0274C103.547 14.0529 103.763 14.0146 103.953 13.9174C104.144 13.8202 104.302 13.6685 104.406 13.4815L105.261 13.4815ZM102.135 12.0303H104.41C104.421 11.8792 104.4 11.7274 104.35 11.5847C104.299 11.442 104.218 11.3115 104.114 11.2016C104.01 11.0918 103.883 11.005 103.743 10.9468C103.603 10.8886 103.453 10.8604 103.301 10.8638C103.148 10.8619 102.995 10.8908 102.853 10.9487C102.71 11.0067 102.581 11.0925 102.472 11.2012C102.364 11.3099 102.278 11.4393 102.22 11.5817C102.162 11.7241 102.133 11.8766 102.135 12.0303H102.135Z" fill="white"/>
</svg>
