<svg width="375" height="288" viewBox="0 0 375 288" fill="none" xmlns="http://www.w3.org/2000/svg">
<g filter="url(#filter0_d)">
<path d="M20 28C20 23.5817 23.5817 20 28 20H347C351.418 20 355 23.5817 355 28V260C355 264.418 351.418 268 347 268H28C23.5817 268 20 264.418 20 260V28Z" fill="white"/>
<path d="M196.671 100.697C201.441 100.697 205.305 104.451 205.305 109.079C205.305 113.706 201.438 117.46 196.671 117.46C191.904 117.46 188.037 113.706 188.037 109.079C188.037 108.597 188.08 108.125 188.16 107.664" stroke="#25272A"/>
<path d="M183.561 108.742C183.561 115.771 189.43 121.805 196.671 121.805C203.912 121.805 209.781 116.107 209.781 109.078C209.781 102.679 204.915 97.3834 198.579 96.4844" stroke="#25272A"/>
<path d="M197.072 112.504V113.401H196.444V112.515C195.398 112.455 194.608 112.035 194.096 111.468L194.608 110.841C195.008 111.279 195.633 111.688 196.444 111.769V109.349C195.398 109.079 194.309 108.732 194.309 107.507C194.309 106.47 195.211 105.745 196.444 105.665V104.758H197.072V105.685C197.923 105.755 198.601 106.084 199.092 106.592L198.58 107.198C198.179 106.761 197.645 106.522 197.072 106.442V108.603C198.129 108.893 199.247 109.271 199.247 110.574C199.247 111.471 198.662 112.396 197.072 112.504ZM196.447 108.442V106.411C195.708 106.45 195.195 106.869 195.195 107.457C195.195 108.025 195.758 108.253 196.447 108.442ZM198.374 110.644C198.374 109.968 197.779 109.717 197.072 109.509V111.761C198.056 111.678 198.374 111.1 198.374 110.644Z" fill="#25272A"/>
<path d="M212.339 64.6603L213.7 71.7929C213.714 71.8681 213.796 71.9095 213.868 71.881L219.329 69.6788C219.46 69.627 219.564 69.7954 219.452 69.8809L214.346 73.7723C214.274 73.8267 214.287 73.933 214.367 73.9718L218.721 76.0497C218.849 76.1093 218.785 76.2984 218.643 76.2725L213.516 75.345C213.433 75.3294 213.359 75.3994 213.372 75.4823L214.464 81.7651C214.488 81.9024 214.287 81.9594 214.231 81.8324L211.525 75.6895C211.49 75.6092 211.384 75.5937 211.322 75.6559L206.481 80.7443C206.385 80.8453 206.216 80.7313 206.283 80.607L209.465 74.8216C209.499 74.7568 209.467 74.6765 209.395 74.6532L204.57 73.0806C204.442 73.0391 204.468 72.8578 204.602 72.85L209.11 72.5754C209.195 72.5702 209.248 72.4821 209.214 72.4069L207.914 69.6995C207.86 69.5855 207.999 69.4793 208.101 69.557L210.628 71.5002C210.7 71.5546 210.807 71.5157 210.823 71.4276L212.093 64.6629C212.123 64.5334 212.315 64.5308 212.339 64.6603Z" fill="#BFD22B"/>
<path d="M182.061 102.801C188.436 102.801 193.604 97.7846 193.604 91.596C193.604 85.4075 188.436 80.3906 182.061 80.3906C175.686 80.3906 170.518 85.4075 170.518 91.596C170.518 97.7846 175.686 102.801 182.061 102.801Z" stroke="#25272A"/>
<path d="M182.06 108.61C191.74 108.61 199.588 100.993 199.588 91.5961C199.588 82.1995 191.74 74.582 182.06 74.582C172.38 74.582 164.533 82.1995 164.533 91.5961C164.533 100.993 172.38 108.61 182.06 108.61Z" stroke="#25272A"/>
<path d="M182.599 96.1752V97.3748H181.761V96.1908C180.362 96.1105 179.305 95.5508 178.619 94.7917L179.305 93.9523C179.839 94.5378 180.677 95.0845 181.761 95.1907V91.9548C180.362 91.5946 178.907 91.1283 178.907 89.4909C178.907 88.1073 180.114 87.1332 181.761 87.027V85.8145H182.599V87.0529C183.736 87.1461 184.643 87.5866 185.3 88.2654L184.614 89.0763C184.08 88.4908 183.365 88.1721 182.599 88.0633V90.9521C184.01 91.3381 185.505 91.8433 185.505 93.5896C185.505 94.7891 184.723 96.0276 182.599 96.1752ZM181.761 90.7422V88.0244C180.773 88.0789 180.087 88.6359 180.087 89.4235C180.087 90.1826 180.842 90.4883 181.761 90.7422ZM184.339 93.6854C184.339 92.7812 183.543 92.447 182.596 92.1672V95.1752C183.914 95.069 184.339 94.2969 184.339 93.6854Z" fill="#25272A"/>
<path d="M198.181 73.1201C197.85 73.1201 197.582 72.8383 197.582 72.4927C197.582 72.147 197.851 71.8652 198.181 71.8652C198.511 71.8652 198.78 72.147 198.78 72.4927C198.78 72.8383 198.512 73.1201 198.181 73.1201ZM198.181 72.4032C198.134 72.4032 198.096 72.4436 198.096 72.4927C198.096 72.5417 198.134 72.5821 198.181 72.5821C198.228 72.5821 198.267 72.5417 198.267 72.4927C198.267 72.4436 198.229 72.4032 198.181 72.4032Z" fill="#25272A"/>
<path d="M156.099 96.8525C155.768 96.8525 155.5 96.5707 155.5 96.2251C155.5 95.8794 155.769 95.5977 156.099 95.5977C156.429 95.5977 156.698 95.8794 156.698 96.2251C156.698 96.5707 156.43 96.8525 156.099 96.8525ZM156.099 96.1356C156.052 96.1356 156.014 96.176 156.014 96.2251C156.014 96.2742 156.052 96.3145 156.099 96.3145C156.146 96.3145 156.184 96.2742 156.184 96.2251C156.184 96.176 156.147 96.1356 156.099 96.1356Z" fill="#25272A"/>
<path d="M182.935 64.6715C182.854 64.6715 182.774 64.6312 182.724 64.5565C182.643 64.4348 182.671 64.2667 182.788 64.182L184.701 62.7865C184.817 62.7018 184.978 62.7314 185.058 62.8538C185.139 62.9755 185.111 63.1436 184.994 63.2284L183.081 64.6238C183.037 64.6554 182.986 64.6715 182.935 64.6715Z" fill="#25272A"/>
<path d="M213.621 95.7047C213.54 95.7047 213.459 95.6644 213.409 95.5897C213.328 95.468 213.357 95.2999 213.474 95.2152L215.386 93.8197C215.503 93.735 215.663 93.7646 215.744 93.887C215.825 94.0087 215.797 94.1768 215.68 94.2616L213.767 95.657C213.722 95.6886 213.671 95.7047 213.621 95.7047Z" fill="#25272A"/>
<path d="M160.889 109.449C160.875 109.366 160.898 109.277 160.96 109.212C161.06 109.108 161.224 109.107 161.325 109.211L162.986 110.921C163.087 111.025 163.088 111.194 162.987 111.299C162.886 111.404 162.722 111.405 162.621 111.3L160.96 109.591C160.922 109.55 160.898 109.501 160.889 109.449Z" fill="#25272A"/>
<path d="M174.167 124C174.087 124 174.006 123.959 173.956 123.885C173.875 123.763 173.904 123.595 174.02 123.51L175.933 122.115C176.049 122.03 176.21 122.06 176.291 122.182C176.372 122.304 176.344 122.472 176.227 122.556L174.314 123.952C174.269 123.984 174.218 124 174.167 124Z" fill="#25272A"/>
<path d="M166.966 60.171C166.871 60.0348 166.905 59.8479 167.041 59.7535C167.177 59.6591 167.364 59.6929 167.459 59.829L166.966 60.171ZM169.608 65.0558C169.617 65.2213 169.489 65.3622 169.324 65.3706C169.158 65.379 169.017 65.2516 169.009 65.0862L169.608 65.0558ZM159.866 74.8867C159.701 74.8766 159.575 74.7343 159.585 74.5689C159.595 74.4035 159.737 74.2777 159.903 74.2878L159.866 74.8867ZM161.179 74.2697C161.344 74.2536 161.49 74.3741 161.507 74.539C161.523 74.7039 161.402 74.8507 161.237 74.8669L161.179 74.2697ZM169.003 65.5353C169.017 65.3703 169.162 65.248 169.327 65.2623C169.492 65.2765 169.615 65.4219 169.6 65.587L169.003 65.5353ZM169.49 66.1796C169.443 66.3383 169.275 66.4284 169.117 66.3808C168.958 66.3332 168.868 66.166 168.915 66.0073L169.49 66.1796ZM168.828 66.2396C168.897 66.0889 169.075 66.0225 169.226 66.0914C169.376 66.1602 169.443 66.3382 169.374 66.4889L168.828 66.2396ZM168.98 67.0767C168.867 67.1972 168.677 67.2028 168.556 67.0892C168.436 66.9755 168.43 66.7857 168.544 66.6651L168.98 67.0767ZM168.425 66.7782C168.55 66.6703 168.74 66.6847 168.848 66.8104C168.956 66.9361 168.941 67.1255 168.815 67.2334L168.425 66.7782ZM167.799 67.4461L167.889 67.7321L167.889 67.7321L167.799 67.4461ZM161.848 63.5401L161.573 63.659L161.569 63.6499L161.848 63.5401ZM163.46 61.465L163.308 61.7234L163.308 61.7234L163.46 61.465ZM166.333 68.6974L166.633 68.685L166.633 68.696L166.333 68.6974ZM163.898 74.0006C163.758 74.0886 163.572 74.0462 163.484 73.9058C163.396 73.7654 163.439 73.5803 163.579 73.4923L163.898 74.0006ZM163.19 73.7114C163.338 73.6366 163.519 73.6958 163.593 73.8437C163.668 73.9915 163.609 74.172 163.461 74.2468L163.19 73.7114ZM163.146 74.3938C162.993 74.459 162.817 74.3885 162.752 74.2362C162.687 74.0839 162.757 73.9075 162.91 73.8423L163.146 74.3938ZM162.695 73.9283C162.85 73.8699 163.023 73.9483 163.081 74.1033C163.14 74.2584 163.061 74.4314 162.906 74.4898L162.695 73.9283ZM162.323 74.6752C162.163 74.7174 161.999 74.6217 161.957 74.4615C161.915 74.3013 162.01 74.1372 162.17 74.095L162.323 74.6752ZM161.95 74.148C162.112 74.112 162.272 74.2139 162.308 74.3757C162.344 74.5374 162.242 74.6977 162.081 74.7337L161.95 74.148ZM161.458 74.8419C161.294 74.863 161.144 74.7469 161.122 74.5825C161.101 74.4182 161.218 74.2679 161.382 74.2468L161.458 74.8419ZM167.459 59.829C167.907 60.4747 168.419 61.3372 168.831 62.2552C169.242 63.1692 169.563 64.1598 169.608 65.0558L169.009 65.0862C168.969 64.2972 168.681 63.385 168.284 62.501C167.889 61.621 167.395 60.7905 166.966 60.171L167.459 59.829ZM159.903 74.2878C160.361 74.3159 160.786 74.3082 161.179 74.2697L161.237 74.8669C160.81 74.9087 160.354 74.9166 159.866 74.8867L159.903 74.2878ZM169.6 65.587C169.583 65.7905 169.547 65.9893 169.49 66.1796L168.915 66.0073C168.959 65.8612 168.988 65.7034 169.003 65.5353L169.6 65.587ZM169.374 66.4889C169.276 66.7023 169.146 66.9003 168.98 67.0767L168.544 66.6651C168.662 66.5391 168.756 66.3967 168.828 66.2396L169.374 66.4889ZM168.815 67.2334C168.566 67.4478 168.258 67.6152 167.889 67.7321L167.708 67.1602C168.01 67.0643 168.244 66.9331 168.425 66.7782L168.815 67.2334ZM167.889 67.7321C166.255 68.2504 164.845 67.6387 163.776 66.714C162.713 65.7937 161.952 64.5377 161.573 63.659L162.124 63.4213C162.477 64.2411 163.191 65.4142 164.169 66.2603C165.142 67.1021 166.34 67.594 167.708 67.1602L167.889 67.7321ZM161.569 63.6499C161.431 63.2993 161.329 62.9018 161.288 62.5197C161.247 62.1432 161.263 61.7524 161.391 61.4329C161.525 61.096 161.791 60.8305 162.211 60.7816C162.598 60.7365 163.065 60.8835 163.613 61.2066L163.308 61.7234C162.8 61.4239 162.473 61.3551 162.28 61.3776C162.12 61.3962 162.018 61.4814 161.948 61.6552C161.872 61.8462 161.849 62.1257 161.884 62.4557C161.919 62.7802 162.008 63.1255 162.127 63.4304L161.569 63.6499ZM163.613 61.2066C164.769 61.8887 165.496 63.3182 165.945 64.7486C166.399 66.1944 166.593 67.718 166.633 68.6851L166.033 68.7098C165.995 67.7847 165.808 66.3146 165.373 64.9284C164.933 63.5269 164.262 62.2862 163.308 61.7234L163.613 61.2066ZM166.633 68.696C166.64 70.178 166.032 72.6623 163.898 74.0006L163.579 73.4923C165.469 72.3073 166.039 70.0699 166.033 68.6988L166.633 68.696ZM163.461 74.2468C163.359 74.2985 163.254 74.3475 163.146 74.3938L162.91 73.8423C163.006 73.8009 163.1 73.7573 163.19 73.7114L163.461 74.2468ZM162.906 74.4898C162.72 74.5599 162.526 74.6219 162.323 74.6752L162.17 74.095C162.354 74.0468 162.528 73.991 162.695 73.9283L162.906 74.4898ZM162.081 74.7337C161.881 74.7781 161.673 74.8143 161.458 74.8419L161.382 74.2468C161.58 74.2214 161.769 74.1883 161.95 74.148L162.081 74.7337Z" fill="#DAE580"/>
<path d="M148.701 155.536C148.701 151.184 145.021 149.904 141.693 149.04V144.56C143.133 144.912 144.541 145.584 145.661 146.64L148.189 143.312C146.461 141.744 144.285 140.72 141.693 140.464V137.424H138.653V140.4C134.365 140.816 131.773 143.568 131.773 146.832C131.773 151.152 135.357 152.432 138.653 153.232V158.256C136.509 157.872 134.781 156.784 133.565 155.536L131.101 158.992C132.861 160.752 135.293 162.032 138.653 162.32V165.2H141.693V162.288C146.397 161.808 148.701 159.056 148.701 155.536ZM136.445 146.448C136.445 145.296 137.309 144.464 138.941 144.304V148.368C137.469 147.984 136.445 147.44 136.445 146.448ZM141.405 158.352V153.872C142.941 154.32 144.061 154.864 144.061 156.048C144.061 157.104 143.229 158.096 141.405 158.352ZM159.072 151.344C159.072 156.848 161.792 162.384 167.904 162.384C173.984 162.384 176.736 156.848 176.736 151.344C176.736 145.84 173.984 140.336 167.904 140.336C161.792 140.336 159.072 145.84 159.072 151.344ZM172.096 151.344C172.096 155.28 170.944 158.352 167.904 158.352C164.832 158.352 163.68 155.28 163.68 151.344C163.68 147.408 164.832 144.368 167.904 144.368C170.944 144.368 172.096 147.408 172.096 151.344ZM178.916 151.344C178.916 156.848 181.636 162.384 187.748 162.384C193.828 162.384 196.58 156.848 196.58 151.344C196.58 145.84 193.828 140.336 187.748 140.336C181.636 140.336 178.916 145.84 178.916 151.344ZM191.94 151.344C191.94 155.28 190.788 158.352 187.748 158.352C184.676 158.352 183.524 155.28 183.524 151.344C183.524 147.408 184.676 144.368 187.748 144.368C190.788 144.368 191.94 147.408 191.94 151.344ZM198.488 159.76C198.488 161.168 199.672 162.352 201.08 162.352C202.488 162.352 203.672 161.168 203.672 159.76C203.672 158.352 202.488 157.168 201.08 157.168C199.672 157.168 198.488 158.352 198.488 159.76ZM206.26 151.344C206.26 156.848 208.98 162.384 215.092 162.384C221.172 162.384 223.924 156.848 223.924 151.344C223.924 145.84 221.172 140.336 215.092 140.336C208.98 140.336 206.26 145.84 206.26 151.344ZM219.284 151.344C219.284 155.28 218.132 158.352 215.092 158.352C212.02 158.352 210.868 155.28 210.868 151.344C210.868 147.408 212.02 144.368 215.092 144.368C218.132 144.368 219.284 147.408 219.284 151.344ZM226.104 151.344C226.104 156.848 228.824 162.384 234.936 162.384C241.016 162.384 243.768 156.848 243.768 151.344C243.768 145.84 241.016 140.336 234.936 140.336C228.824 140.336 226.104 145.84 226.104 151.344ZM239.128 151.344C239.128 155.28 237.976 158.352 234.936 158.352C231.864 158.352 230.712 155.28 230.712 151.344C230.712 147.408 231.864 144.368 234.936 144.368C237.976 144.368 239.128 147.408 239.128 151.344Z" fill="#4C8EC3"/>
<path d="M75.1139 197H76.3139V191.416C76.3139 189.864 75.5619 189.08 74.1539 189.08C73.0339 189.08 71.9939 189.816 71.5619 190.52C71.3379 189.72 70.6659 189.08 69.4819 189.08C68.3459 189.08 67.3059 189.896 66.9859 190.392V189.272H65.7859V197H66.9859V191.352C67.4019 190.728 68.2339 190.152 69.0179 190.152C70.0259 190.152 70.4419 190.776 70.4419 191.752V197H71.6419V191.336C72.0419 190.728 72.8899 190.152 73.6899 190.152C74.6819 190.152 75.1139 190.776 75.1139 191.752V197ZM82.0838 197.192C84.4358 197.192 85.9078 195.368 85.9078 193.128C85.9078 190.888 84.4358 189.08 82.0838 189.08C79.7318 189.08 78.2598 190.888 78.2598 193.128C78.2598 195.368 79.7318 197.192 82.0838 197.192ZM82.0838 196.12C80.4358 196.12 79.5078 194.712 79.5078 193.128C79.5078 191.56 80.4358 190.152 82.0838 190.152C83.7318 190.152 84.6438 191.56 84.6438 193.128C84.6438 194.712 83.7318 196.12 82.0838 196.12ZM93.0801 197H94.2801V191.576C94.2801 189.896 93.4321 189.08 91.8161 189.08C90.6641 189.08 89.6081 189.752 89.0641 190.392V189.272H87.8641V197H89.0641V191.352C89.5121 190.728 90.4081 190.152 91.3521 190.152C92.3921 190.152 93.0801 190.584 93.0801 191.944V197ZM98.6286 197.192C99.3326 197.192 99.7646 196.984 100.069 196.696L99.7166 195.8C99.5566 195.976 99.2366 196.12 98.9006 196.12C98.3726 196.12 98.1166 195.704 98.1166 195.128V190.328H99.6846V189.272H98.1166V187.16H96.9166V189.272H95.6366V190.328H96.9166V195.384C96.9166 196.536 97.4926 197.192 98.6286 197.192ZM106.612 197H107.812V191.544C107.812 189.864 106.964 189.08 105.348 189.08C104.18 189.08 103.124 189.752 102.58 190.392V186.328H101.38V197H102.58V191.352C103.044 190.728 103.94 190.152 104.868 190.152C105.908 190.152 106.612 190.552 106.612 191.912V197ZM110.208 197H111.408V186.328H110.208V197ZM113.562 198.936L113.37 200.024C113.594 200.088 113.994 200.136 114.25 200.136C115.274 200.12 116.058 199.688 116.522 198.568L120.394 189.272H119.082L116.522 195.608L113.946 189.272H112.65L115.882 197.08L115.37 198.248C115.098 198.888 114.746 199.064 114.218 199.064C114.026 199.064 113.738 199.016 113.562 198.936ZM126.362 187.976C126.81 187.976 127.178 187.608 127.178 187.16C127.178 186.712 126.81 186.36 126.362 186.36C125.93 186.36 125.562 186.712 125.562 187.16C125.562 187.608 125.93 187.976 126.362 187.976ZM125.77 197H126.97V189.272H125.77V197ZM134.58 197H135.78V191.576C135.78 189.896 134.932 189.08 133.316 189.08C132.164 189.08 131.108 189.752 130.564 190.392V189.272H129.364V197H130.564V191.352C131.012 190.728 131.908 190.152 132.852 190.152C133.892 190.152 134.58 190.584 134.58 191.944V197ZM137.457 193.656H141.297V192.6H137.457V193.656ZM142.301 195.976C143.085 196.808 144.157 197.192 145.421 197.192C147.421 197.192 148.461 196.152 148.461 194.856C148.461 193.144 146.909 192.76 145.565 192.456C144.557 192.216 143.677 191.976 143.677 191.224C143.677 190.536 144.333 190.056 145.389 190.056C146.381 190.056 147.229 190.472 147.693 191.032L148.253 190.2C147.629 189.576 146.701 189.08 145.389 189.08C143.549 189.08 142.509 190.104 142.509 191.304C142.509 192.904 143.997 193.256 145.309 193.56C146.349 193.816 147.293 194.088 147.293 194.936C147.293 195.688 146.653 196.216 145.469 196.216C144.413 196.216 143.437 195.704 142.925 195.112L142.301 195.976ZM152.363 197.192C153.067 197.192 153.499 196.984 153.803 196.696L153.451 195.8C153.291 195.976 152.971 196.12 152.635 196.12C152.107 196.12 151.851 195.704 151.851 195.128V190.328H153.419V189.272H151.851V187.16H150.651V189.272H149.371V190.328H150.651V195.384C150.651 196.536 151.227 197.192 152.363 197.192ZM158.49 197.192C160.842 197.192 162.314 195.368 162.314 193.128C162.314 190.888 160.842 189.08 158.49 189.08C156.138 189.08 154.666 190.888 154.666 193.128C154.666 195.368 156.138 197.192 158.49 197.192ZM158.49 196.12C156.842 196.12 155.914 194.712 155.914 193.128C155.914 191.56 156.842 190.152 158.49 190.152C160.138 190.152 161.05 191.56 161.05 193.128C161.05 194.712 160.138 196.12 158.49 196.12ZM164.27 197H165.47V191.528C165.822 190.904 166.83 190.296 167.566 190.296C167.758 190.296 167.902 190.312 168.046 190.344V189.112C166.99 189.112 166.094 189.704 165.47 190.52V189.272H164.27V197ZM169.104 193.128C169.104 195.544 170.752 197.192 173.04 197.192C174.304 197.192 175.344 196.776 176.112 196.008L175.536 195.224C174.928 195.848 174.032 196.2 173.152 196.2C171.488 196.2 170.464 194.984 170.368 193.528H176.624V193.224C176.624 190.904 175.248 189.08 172.912 189.08C170.704 189.08 169.104 190.888 169.104 193.128ZM172.896 190.072C174.656 190.072 175.424 191.496 175.44 192.648H170.368C170.432 191.464 171.248 190.072 172.896 190.072ZM184.756 197H186.068L189.284 189.272H187.972L185.412 195.608L182.836 189.272H181.54L184.756 197ZM193.912 197.192C196.264 197.192 197.736 195.368 197.736 193.128C197.736 190.888 196.264 189.08 193.912 189.08C191.56 189.08 190.088 190.888 190.088 193.128C190.088 195.368 191.56 197.192 193.912 197.192ZM193.912 196.12C192.264 196.12 191.336 194.712 191.336 193.128C191.336 191.56 192.264 190.152 193.912 190.152C195.56 190.152 196.472 191.56 196.472 193.128C196.472 194.712 195.56 196.12 193.912 196.12ZM204.908 197H206.108V189.272H204.908V194.952C204.46 195.576 203.564 196.12 202.62 196.12C201.58 196.12 200.892 195.72 200.892 194.36V189.272H199.692V194.728C199.692 196.408 200.54 197.192 202.156 197.192C203.308 197.192 204.316 196.584 204.908 195.912V197ZM208.057 193.128C208.057 195.432 209.609 197.192 211.913 197.192C213.321 197.192 214.153 196.616 214.745 195.848L213.945 195.112C213.433 195.8 212.777 196.12 211.977 196.12C210.329 196.12 209.305 194.84 209.305 193.128C209.305 191.416 210.329 190.152 211.977 190.152C212.777 190.152 213.433 190.456 213.945 191.16L214.745 190.424C214.153 189.656 213.321 189.08 211.913 189.08C209.609 189.08 208.057 190.84 208.057 193.128ZM221.659 197H222.859V191.544C222.859 189.864 222.011 189.08 220.395 189.08C219.227 189.08 218.171 189.752 217.627 190.392V186.328H216.427V197H217.627V191.352C218.091 190.728 218.987 190.152 219.915 190.152C220.955 190.152 221.659 190.552 221.659 191.912V197ZM224.807 193.128C224.807 195.544 226.455 197.192 228.743 197.192C230.007 197.192 231.047 196.776 231.815 196.008L231.239 195.224C230.631 195.848 229.735 196.2 228.855 196.2C227.191 196.2 226.167 194.984 226.071 193.528H232.327V193.224C232.327 190.904 230.951 189.08 228.615 189.08C226.407 189.08 224.807 190.888 224.807 193.128ZM228.599 190.072C230.359 190.072 231.127 191.496 231.143 192.648H226.071C226.135 191.464 226.951 190.072 228.599 190.072ZM234.27 197H235.47V191.528C235.822 190.904 236.83 190.296 237.566 190.296C237.758 190.296 237.902 190.312 238.046 190.344V189.112C236.99 189.112 236.094 189.704 235.47 190.52V189.272H234.27V197ZM243.677 197H244.877V191.528C245.229 190.904 246.237 190.296 246.973 190.296C247.165 190.296 247.309 190.312 247.453 190.344V189.112C246.397 189.112 245.501 189.704 244.877 190.52V189.272H243.677V197ZM248.51 193.128C248.51 195.544 250.158 197.192 252.446 197.192C253.71 197.192 254.75 196.776 255.518 196.008L254.942 195.224C254.334 195.848 253.438 196.2 252.558 196.2C250.894 196.2 249.87 194.984 249.774 193.528H256.03V193.224C256.03 190.904 254.654 189.08 252.318 189.08C250.11 189.08 248.51 190.888 248.51 193.128ZM252.302 190.072C254.062 190.072 254.83 191.496 254.846 192.648H249.774C249.838 191.464 250.654 190.072 252.302 190.072ZM264.661 197H265.861L268.325 189.272H267.077L265.189 195.432L263.157 189.272H262.133L260.101 195.432L258.213 189.272H256.965L259.429 197H260.629L262.645 190.792L264.661 197ZM274.555 197H275.755V191.688C275.755 189.816 274.395 189.08 272.763 189.08C271.499 189.08 270.507 189.496 269.675 190.36L270.235 191.192C270.923 190.456 271.675 190.12 272.603 190.12C273.723 190.12 274.555 190.712 274.555 191.752V193.144C273.931 192.424 273.051 192.088 271.995 192.088C270.683 192.088 269.291 192.904 269.291 194.632C269.291 196.312 270.683 197.192 271.995 197.192C273.035 197.192 273.915 196.824 274.555 196.12V197ZM274.555 195.368C274.091 196.008 273.275 196.328 272.427 196.328C271.307 196.328 270.523 195.624 270.523 194.648C270.523 193.656 271.307 192.952 272.427 192.952C273.275 192.952 274.091 193.272 274.555 193.912V195.368ZM278.161 197H279.361V191.528C279.713 190.904 280.721 190.296 281.457 190.296C281.649 190.296 281.793 190.312 281.937 190.344V189.112C280.881 189.112 279.985 189.704 279.361 190.52V189.272H278.161V197ZM289.042 197H290.242V186.328H289.042V190.44C288.418 189.592 287.474 189.08 286.434 189.08C284.402 189.08 282.994 190.68 282.994 193.144C282.994 195.656 284.418 197.192 286.434 197.192C287.522 197.192 288.466 196.632 289.042 195.848V197ZM289.042 194.904C288.61 195.576 287.682 196.12 286.722 196.12C285.17 196.12 284.242 194.856 284.242 193.144C284.242 191.432 285.17 190.152 286.722 190.152C287.682 190.152 288.61 190.728 289.042 191.4V194.904ZM297.106 197H298.306V190.328H299.874V189.272H298.306V188.68C298.306 187.704 298.738 187.16 299.522 187.16C299.794 187.16 300.018 187.224 300.21 187.336L300.514 186.44C300.21 186.248 299.794 186.168 299.346 186.168C298.002 186.168 297.106 187.08 297.106 188.68V189.272H295.826V190.328H297.106V197ZM304.678 197.192C307.03 197.192 308.502 195.368 308.502 193.128C308.502 190.888 307.03 189.08 304.678 189.08C302.326 189.08 300.854 190.888 300.854 193.128C300.854 195.368 302.326 197.192 304.678 197.192ZM304.678 196.12C303.03 196.12 302.102 194.712 302.102 193.128C302.102 191.56 303.03 190.152 304.678 190.152C306.326 190.152 307.238 191.56 307.238 193.128C307.238 194.712 306.326 196.12 304.678 196.12ZM310.458 197H311.658V191.528C312.01 190.904 313.018 190.296 313.754 190.296C313.946 190.296 314.09 190.312 314.234 190.344V189.112C313.178 189.112 312.282 189.704 311.658 190.52V189.272H310.458V197ZM102.598 221H103.798V215.416C103.798 213.864 103.046 213.08 101.638 213.08C100.518 213.08 99.4783 213.816 99.0463 214.52C98.8223 213.72 98.1503 213.08 96.9663 213.08C95.8303 213.08 94.7903 213.896 94.4703 214.392V213.272H93.2703V221H94.4703V215.352C94.8863 214.728 95.7183 214.152 96.5023 214.152C97.5103 214.152 97.9263 214.776 97.9263 215.752V221H99.1263V215.336C99.5263 214.728 100.374 214.152 101.174 214.152C102.166 214.152 102.598 214.776 102.598 215.752V221ZM105.744 217.128C105.744 219.544 107.392 221.192 109.68 221.192C110.944 221.192 111.984 220.776 112.752 220.008L112.176 219.224C111.568 219.848 110.672 220.2 109.792 220.2C108.128 220.2 107.104 218.984 107.008 217.528H113.264V217.224C113.264 214.904 111.888 213.08 109.552 213.08C107.344 213.08 105.744 214.888 105.744 217.128ZM109.536 214.072C111.296 214.072 112.064 215.496 112.08 216.648H107.008C107.072 215.464 107.888 214.072 109.536 214.072ZM114.76 217.128C114.76 219.544 116.408 221.192 118.696 221.192C119.96 221.192 121 220.776 121.768 220.008L121.192 219.224C120.584 219.848 119.688 220.2 118.808 220.2C117.144 220.2 116.12 218.984 116.024 217.528H122.28V217.224C122.28 214.904 120.904 213.08 118.568 213.08C116.36 213.08 114.76 214.888 114.76 217.128ZM118.552 214.072C120.312 214.072 121.08 215.496 121.096 216.648H116.024C116.088 215.464 116.904 214.072 118.552 214.072ZM126.175 221.192C126.879 221.192 127.311 220.984 127.615 220.696L127.263 219.8C127.103 219.976 126.783 220.12 126.447 220.12C125.919 220.12 125.663 219.704 125.663 219.128V214.328H127.231V213.272H125.663V211.16H124.463V213.272H123.183V214.328H124.463V219.384C124.463 220.536 125.039 221.192 126.175 221.192ZM129.519 211.976C129.967 211.976 130.335 211.608 130.335 211.16C130.335 210.712 129.967 210.36 129.519 210.36C129.087 210.36 128.719 210.712 128.719 211.16C128.719 211.608 129.087 211.976 129.519 211.976ZM128.927 221H130.127V213.272H128.927V221ZM137.736 221H138.936V215.576C138.936 213.896 138.088 213.08 136.472 213.08C135.32 213.08 134.264 213.752 133.72 214.392V213.272H132.52V221H133.72V215.352C134.168 214.728 135.064 214.152 136.008 214.152C137.048 214.152 137.736 214.584 137.736 215.944V221ZM141.317 222.984C142.229 223.88 143.125 224.136 144.437 224.136C146.325 224.136 148.117 223.336 148.117 220.776V213.272H146.917V214.44C146.293 213.592 145.365 213.08 144.325 213.08C142.293 213.08 140.885 214.616 140.885 217.096C140.885 219.592 142.309 221.096 144.325 221.096C145.413 221.096 146.357 220.504 146.917 219.72V220.824C146.917 222.52 145.717 223.144 144.437 223.144C143.333 223.144 142.565 222.856 141.925 222.088L141.317 222.984ZM146.917 218.776C146.501 219.448 145.573 220.04 144.613 220.04C143.061 220.04 142.133 218.792 142.133 217.096C142.133 215.384 143.061 214.152 144.613 214.152C145.573 214.152 146.501 214.728 146.917 215.4V218.776ZM154.405 222.936L154.213 224.024C154.437 224.088 154.837 224.136 155.093 224.136C156.117 224.12 156.901 223.688 157.365 222.568L161.237 213.272H159.925L157.365 219.608L154.789 213.272H153.493L156.725 221.08L156.213 222.248C155.941 222.888 155.589 223.064 155.061 223.064C154.869 223.064 154.581 223.016 154.405 222.936ZM165.865 221.192C168.217 221.192 169.689 219.368 169.689 217.128C169.689 214.888 168.217 213.08 165.865 213.08C163.513 213.08 162.041 214.888 162.041 217.128C162.041 219.368 163.513 221.192 165.865 221.192ZM165.865 220.12C164.217 220.12 163.289 218.712 163.289 217.128C163.289 215.56 164.217 214.152 165.865 214.152C167.513 214.152 168.425 215.56 168.425 217.128C168.425 218.712 167.513 220.12 165.865 220.12ZM176.861 221H178.061V213.272H176.861V218.952C176.413 219.576 175.517 220.12 174.573 220.12C173.533 220.12 172.845 219.72 172.845 218.36V213.272H171.645V218.728C171.645 220.408 172.493 221.192 174.109 221.192C175.261 221.192 176.269 220.584 176.861 219.912V221ZM180.458 221H181.658V215.528C182.01 214.904 183.018 214.296 183.754 214.296C183.946 214.296 184.09 214.312 184.234 214.344V213.112C183.178 213.112 182.282 213.704 181.658 214.52V213.272H180.458V221ZM194.696 221H195.896V215.688C195.896 213.816 194.536 213.08 192.904 213.08C191.64 213.08 190.648 213.496 189.816 214.36L190.376 215.192C191.064 214.456 191.816 214.12 192.744 214.12C193.864 214.12 194.696 214.712 194.696 215.752V217.144C194.072 216.424 193.192 216.088 192.136 216.088C190.824 216.088 189.432 216.904 189.432 218.632C189.432 220.312 190.824 221.192 192.136 221.192C193.176 221.192 194.056 220.824 194.696 220.12V221ZM194.696 219.368C194.232 220.008 193.416 220.328 192.568 220.328C191.448 220.328 190.664 219.624 190.664 218.648C190.664 217.656 191.448 216.952 192.568 216.952C193.416 216.952 194.232 217.272 194.696 217.912V219.368ZM197.854 217.128C197.854 219.432 199.406 221.192 201.71 221.192C203.118 221.192 203.95 220.616 204.542 219.848L203.742 219.112C203.23 219.8 202.574 220.12 201.774 220.12C200.126 220.12 199.102 218.84 199.102 217.128C199.102 215.416 200.126 214.152 201.774 214.152C202.574 214.152 203.23 214.456 203.742 215.16L204.542 214.424C203.95 213.656 203.118 213.08 201.71 213.08C199.406 213.08 197.854 214.84 197.854 217.128ZM208.175 221.192C208.879 221.192 209.311 220.984 209.615 220.696L209.263 219.8C209.103 219.976 208.783 220.12 208.447 220.12C207.919 220.12 207.663 219.704 207.663 219.128V214.328H209.231V213.272H207.663V211.16H206.463V213.272H205.183V214.328H206.463V219.384C206.463 220.536 207.039 221.192 208.175 221.192ZM211.519 211.976C211.967 211.976 212.335 211.608 212.335 211.16C212.335 210.712 211.967 210.36 211.519 210.36C211.087 210.36 210.719 210.712 210.719 211.16C210.719 211.608 211.087 211.976 211.519 211.976ZM210.927 221H212.127V213.272H210.927V221ZM216.584 221H217.896L221.112 213.272H219.8L217.24 219.608L214.664 213.272H213.368L216.584 221ZM222.956 211.976C223.404 211.976 223.772 211.608 223.772 211.16C223.772 210.712 223.404 210.36 222.956 210.36C222.524 210.36 222.156 210.712 222.156 211.16C222.156 211.608 222.524 211.976 222.956 211.976ZM222.364 221H223.564V213.272H222.364V221ZM227.91 221.192C228.614 221.192 229.046 220.984 229.35 220.696L228.998 219.8C228.838 219.976 228.518 220.12 228.182 220.12C227.654 220.12 227.398 219.704 227.398 219.128V214.328H228.966V213.272H227.398V211.16H226.198V213.272H224.918V214.328H226.198V219.384C226.198 220.536 226.774 221.192 227.91 221.192ZM230.421 222.936L230.229 224.024C230.453 224.088 230.853 224.136 231.109 224.136C232.133 224.12 232.917 223.688 233.381 222.568L237.253 213.272H235.941L233.381 219.608L230.805 213.272H229.509L232.741 221.08L232.229 222.248C231.957 222.888 231.605 223.064 231.077 223.064C230.885 223.064 230.597 223.016 230.421 222.936ZM242.614 222.984C243.526 223.88 244.422 224.136 245.734 224.136C247.622 224.136 249.414 223.336 249.414 220.776V213.272H248.214V214.44C247.59 213.592 246.662 213.08 245.622 213.08C243.59 213.08 242.182 214.616 242.182 217.096C242.182 219.592 243.606 221.096 245.622 221.096C246.71 221.096 247.654 220.504 248.214 219.72V220.824C248.214 222.52 247.014 223.144 245.734 223.144C244.63 223.144 243.862 222.856 243.222 222.088L242.614 222.984ZM248.214 218.776C247.798 219.448 246.87 220.04 245.91 220.04C244.358 220.04 243.43 218.792 243.43 217.096C243.43 215.384 244.358 214.152 245.91 214.152C246.87 214.152 247.798 214.728 248.214 215.4V218.776ZM255.193 221.192C257.545 221.192 259.017 219.368 259.017 217.128C259.017 214.888 257.545 213.08 255.193 213.08C252.841 213.08 251.369 214.888 251.369 217.128C251.369 219.368 252.841 221.192 255.193 221.192ZM255.193 220.12C253.545 220.12 252.617 218.712 252.617 217.128C252.617 215.56 253.545 214.152 255.193 214.152C256.841 214.152 257.753 215.56 257.753 217.128C257.753 218.712 256.841 220.12 255.193 220.12ZM265.805 221H267.005V215.688C267.005 213.816 265.645 213.08 264.013 213.08C262.749 213.08 261.757 213.496 260.925 214.36L261.485 215.192C262.173 214.456 262.925 214.12 263.853 214.12C264.973 214.12 265.805 214.712 265.805 215.752V217.144C265.181 216.424 264.301 216.088 263.245 216.088C261.933 216.088 260.541 216.904 260.541 218.632C260.541 220.312 261.933 221.192 263.245 221.192C264.285 221.192 265.165 220.824 265.805 220.12V221ZM265.805 219.368C265.341 220.008 264.525 220.328 263.677 220.328C262.557 220.328 261.773 219.624 261.773 218.648C261.773 217.656 262.557 216.952 263.677 216.952C264.525 216.952 265.341 217.272 265.805 217.912V219.368ZM269.411 221H270.611V210.328H269.411V221ZM272.333 219.976C273.117 220.808 274.189 221.192 275.453 221.192C277.453 221.192 278.493 220.152 278.493 218.856C278.493 217.144 276.941 216.76 275.597 216.456C274.589 216.216 273.709 215.976 273.709 215.224C273.709 214.536 274.365 214.056 275.421 214.056C276.413 214.056 277.261 214.472 277.725 215.032L278.285 214.2C277.661 213.576 276.733 213.08 275.421 213.08C273.581 213.08 272.541 214.104 272.541 215.304C272.541 216.904 274.029 217.256 275.341 217.56C276.381 217.816 277.325 218.088 277.325 218.936C277.325 219.688 276.685 220.216 275.501 220.216C274.445 220.216 273.469 219.704 272.957 219.112L272.333 219.976ZM280.202 220.28C280.202 220.76 280.602 221.16 281.082 221.16C281.562 221.16 281.962 220.76 281.962 220.28C281.962 219.8 281.562 219.4 281.082 219.4C280.602 219.4 280.202 219.8 280.202 220.28Z" fill="#4A4F54"/>
</g>
<defs>
<filter id="filter0_d" x="0" y="0" width="375" height="288" filterUnits="userSpaceOnUse" color-interpolation-filters="sRGB">
<feFlood flood-opacity="0" result="BackgroundImageFix"/>
<feColorMatrix in="SourceAlpha" type="matrix" values="0 0 0 0 0 0 0 0 0 0 0 0 0 0 0 0 0 0 127 0"/>
<feOffset/>
<feGaussianBlur stdDeviation="10"/>
<feColorMatrix type="matrix" values="0 0 0 0 0 0 0 0 0 0.243137 0 0 0 0 0.419608 0 0 0 0.1 0"/>
<feBlend mode="normal" in2="BackgroundImageFix" result="effect1_dropShadow"/>
<feBlend mode="normal" in="SourceGraphic" in2="effect1_dropShadow" result="shape"/>
</filter>
</defs>
</svg>
