<svg width="335" height="228" viewBox="0 0 335 228" fill="none" xmlns="http://www.w3.org/2000/svg">
<path fill-rule="evenodd" clip-rule="evenodd" d="M20.4704 107.939C20.7303 107.939 20.9409 107.729 20.9409 107.47C20.9409 107.21 20.7303 107 20.4704 107C20.2106 107 20 107.21 20 107.47C20 107.729 20.2106 107.939 20.4704 107.939Z" stroke="#25272A" stroke-width="0.948176"/>
<path d="M323 191L325.592 192.883" stroke="#25272A" stroke-width="0.948176" stroke-linecap="round"/>
<path d="M89.1172 15.9722L91.7089 17.8543" stroke="#25272A" stroke-width="0.948176" stroke-linecap="round"/>
<path d="M30.6296 196L28 197.829" stroke="#25272A" stroke-width="0.948176" stroke-linecap="round"/>
<path d="M240.63 155L238 156.829" stroke="#25272A" stroke-width="0.948176" stroke-linecap="round"/>
<path d="M29.6296 35L27 36.8289" stroke="#25272A" stroke-width="0.948176" stroke-linecap="round"/>
<path d="M296 47.1702L298.983 46" stroke="#25272A" stroke-width="0.948176" stroke-linecap="round"/>
<path d="M317 15L318.743 17.6849" stroke="#25272A" stroke-width="0.948176" stroke-linecap="round"/>
<path d="M281.214 122.545C281.264 122.288 281.096 122.039 280.839 121.99C280.582 121.94 280.333 122.108 280.283 122.365L281.214 122.545ZM280.747 138.008C280.845 138.251 281.121 138.369 281.364 138.271C281.607 138.173 281.724 137.897 281.626 137.654L280.747 138.008ZM317.428 150.782C317.659 150.658 317.746 150.371 317.622 150.14C317.498 149.91 317.21 149.823 316.98 149.947L317.428 150.782ZM313.535 151.488C313.288 151.575 313.159 151.846 313.247 152.093C313.334 152.34 313.605 152.469 313.852 152.381L313.535 151.488ZM282.193 138.826C282.062 138.6 281.772 138.523 281.545 138.654C281.319 138.786 281.242 139.076 281.373 139.302L282.193 138.826ZM282.317 140.604C282.493 140.798 282.793 140.812 282.986 140.636C283.18 140.46 283.194 140.16 283.018 139.967L282.317 140.604ZM283.558 140.483C283.356 140.316 283.058 140.345 282.891 140.546C282.724 140.748 282.752 141.047 282.954 141.214L283.558 140.483ZM284.578 142.156C284.823 142.248 285.096 142.123 285.188 141.878C285.28 141.633 285.155 141.36 284.91 141.268L284.578 142.156ZM285.395 141.421C285.142 141.356 284.883 141.508 284.817 141.761C284.751 142.015 284.903 142.273 285.157 142.339L285.395 141.421ZM287.959 141.99L288.024 142.459L288.024 142.459L287.959 141.99ZM299.044 124.848L299.518 124.842L299.518 124.834L299.518 124.826L299.044 124.848ZM292.357 121.574L291.972 121.298L291.972 121.298L292.357 121.574ZM293.29 143.36L292.852 143.542L292.856 143.55L292.86 143.558L293.29 143.36ZM306.011 153.42C306.272 153.448 306.505 153.26 306.533 153C306.561 152.739 306.373 152.506 306.113 152.478L306.011 153.42ZM307.432 152.559C307.17 152.555 306.954 152.764 306.95 153.025C306.945 153.287 307.154 153.503 307.415 153.508L307.432 152.559ZM308.393 153.494C308.655 153.482 308.857 153.261 308.846 152.999C308.834 152.738 308.613 152.535 308.351 152.547L308.393 153.494ZM309.035 152.5C308.774 152.523 308.582 152.753 308.605 153.014C308.629 153.275 308.859 153.468 309.12 153.444L309.035 152.5ZM310.831 153.204C311.088 153.155 311.257 152.907 311.208 152.65C311.16 152.392 310.911 152.224 310.654 152.272L310.831 153.204ZM311.312 152.137C311.056 152.196 310.897 152.45 310.955 152.705C311.013 152.96 311.268 153.12 311.523 153.062L311.312 152.137ZM313.253 152.584C313.502 152.503 313.639 152.236 313.558 151.987C313.477 151.738 313.21 151.601 312.961 151.682L313.253 152.584ZM280.283 122.365C279.866 124.525 279.533 127.309 279.526 130.107C279.519 132.899 279.836 135.745 280.747 138.008L281.626 137.654C280.781 135.555 280.467 132.848 280.474 130.11C280.481 127.379 280.807 124.655 281.214 122.545L280.283 122.365ZM316.98 149.947C315.787 150.588 314.638 151.096 313.535 151.488L313.852 152.381C315.003 151.972 316.196 151.444 317.428 150.782L316.98 149.947ZM281.373 139.302C281.648 139.776 281.961 140.214 282.317 140.604L283.018 139.967C282.713 139.631 282.439 139.249 282.193 138.826L281.373 139.302ZM282.954 141.214C283.433 141.61 283.973 141.93 284.578 142.156L284.91 141.268C284.408 141.08 283.96 140.815 283.558 140.483L282.954 141.214ZM285.157 142.339C286.009 142.561 286.963 142.608 288.024 142.459L287.893 141.52C286.936 141.654 286.11 141.607 285.395 141.421L285.157 142.339ZM288.024 142.459C292.747 141.799 295.646 138.664 297.34 135.094C299.03 131.534 299.552 127.489 299.518 124.842L298.57 124.854C298.602 127.395 298.096 131.29 296.483 134.688C294.875 138.076 292.198 140.918 287.893 141.52L288.024 142.459ZM299.518 124.826C299.47 123.801 299.278 122.702 298.948 121.717C298.62 120.741 298.141 119.833 297.489 119.236C296.813 118.617 295.946 118.334 294.954 118.666C294.009 118.983 293.018 119.836 291.972 121.298L292.743 121.85C293.745 120.449 294.591 119.788 295.255 119.565C295.872 119.359 296.387 119.513 296.848 119.935C297.333 120.379 297.746 121.117 298.049 122.019C298.349 122.913 298.527 123.924 298.571 124.87L299.518 124.826ZM291.972 121.298C289.816 124.311 289.564 128.693 290.06 132.842C290.559 137.014 291.83 141.072 292.852 143.542L293.728 143.179C292.733 140.773 291.489 136.8 291.002 132.729C290.512 128.636 290.802 124.562 292.743 121.85L291.972 121.298ZM292.86 143.558C294.559 147.258 299.001 152.666 306.011 153.42L306.113 152.478C299.555 151.772 295.341 146.688 293.721 143.162L292.86 143.558ZM307.415 153.508C307.737 153.513 308.062 153.508 308.393 153.494L308.351 152.547C308.039 152.56 307.733 152.565 307.432 152.559L307.415 153.508ZM309.12 153.444C309.678 153.394 310.248 153.315 310.831 153.204L310.654 152.272C310.101 152.378 309.562 152.452 309.035 152.5L309.12 153.444ZM311.523 153.062C312.089 152.933 312.666 152.774 313.253 152.584L312.961 151.682C312.4 151.864 311.85 152.014 311.312 152.137L311.523 153.062Z" fill="#25272A"/>
<path d="M58.8253 118.75C58.8749 118.493 58.7067 118.244 58.4497 118.194C58.1926 118.145 57.9439 118.313 57.8943 118.57L58.8253 118.75ZM58.1304 126.223C58.2282 126.466 58.5043 126.584 58.7472 126.486C58.9901 126.388 59.1077 126.112 59.0099 125.869L58.1304 126.223ZM76.0976 132.485C76.3283 132.361 76.4149 132.074 76.291 131.843C76.1671 131.613 75.8796 131.526 75.649 131.65L76.0976 132.485ZM74.0292 132.374C73.7824 132.462 73.6534 132.733 73.7409 132.979C73.8285 133.226 74.0995 133.355 74.3463 133.268L74.0292 132.374ZM59.2672 126.401C59.1361 126.174 58.8461 126.097 58.6194 126.228C58.3928 126.359 58.3153 126.649 58.4464 126.876L59.2672 126.401ZM58.932 127.547C59.1085 127.74 59.4084 127.754 59.6018 127.577C59.7951 127.401 59.8088 127.101 59.6323 126.907L58.932 127.547ZM59.8644 127.13C59.6625 126.963 59.3636 126.992 59.1969 127.193C59.0302 127.395 59.0588 127.694 59.2607 127.861L59.8644 127.13ZM60.1105 128.355C60.3556 128.447 60.6289 128.323 60.721 128.078C60.813 127.832 60.6889 127.559 60.4437 127.467L60.1105 128.355ZM60.6509 127.533C60.3973 127.468 60.1388 127.62 60.0735 127.874C60.0082 128.128 60.1608 128.386 60.4144 128.451L60.6509 127.533ZM61.821 128.044L61.7553 127.575L61.7552 127.575L61.821 128.044ZM67.1468 119.809L67.6209 119.803L67.6208 119.795L67.6204 119.787L67.1468 119.809ZM63.9344 118.237L64.3199 118.513L64.3199 118.513L63.9344 118.237ZM64.3827 128.703L63.9447 128.884L63.9481 128.892L63.9519 128.901L64.3827 128.703ZM70.4672 133.78C70.7275 133.808 70.9613 133.62 70.9893 133.36C71.0173 133.099 70.829 132.866 70.5687 132.838L70.4672 133.78ZM71.1805 132.875C70.9187 132.871 70.7027 133.079 70.698 133.341C70.6934 133.603 70.9018 133.819 71.1636 133.823L71.1805 132.875ZM71.6497 133.816C71.9113 133.804 72.1136 133.582 72.1016 133.321C72.0895 133.059 71.8677 132.857 71.6062 132.869L71.6497 133.816ZM71.9255 132.848C71.6647 132.871 71.4719 133.101 71.495 133.362C71.518 133.623 71.7481 133.815 72.009 133.792L71.9255 132.848ZM72.8546 133.675C73.1119 133.626 73.2812 133.378 73.2328 133.121C73.1843 132.864 72.9365 132.694 72.6792 132.743L72.8546 133.675ZM72.9859 132.68C72.7307 132.739 72.5716 132.994 72.6304 133.249C72.6892 133.504 72.9437 133.663 73.1989 133.604L72.9859 132.68ZM74.05 133.368C74.2991 133.288 74.4357 133.02 74.355 132.771C74.2743 132.522 74.007 132.386 73.7579 132.466L74.05 133.368ZM57.8943 118.57C57.6914 119.621 57.5294 120.973 57.526 122.335C57.5225 123.69 57.6756 125.094 58.1304 126.223L59.0099 125.869C58.621 124.903 58.4709 123.64 58.4741 122.338C58.4774 121.043 58.632 119.75 58.8253 118.75L57.8943 118.57ZM75.649 131.65C75.0865 131.952 74.5465 132.191 74.0292 132.374L74.3463 133.268C74.9116 133.067 75.4955 132.809 76.0976 132.485L75.649 131.65ZM58.4464 126.876C58.5861 127.117 58.747 127.344 58.932 127.547L59.6323 126.907C59.4996 126.762 59.3779 126.592 59.2672 126.401L58.4464 126.876ZM59.2607 127.861C59.5104 128.067 59.7931 128.236 60.1105 128.355L60.4437 127.467C60.2299 127.387 60.0378 127.273 59.8644 127.13L59.2607 127.861ZM60.4144 128.451C60.8586 128.566 61.3494 128.589 61.8868 128.514L61.7552 127.575C61.3238 127.635 60.9595 127.613 60.6509 127.533L60.4144 128.451ZM61.8866 128.514C64.2635 128.181 65.7139 126.6 66.5505 124.837C67.3823 123.085 67.6375 121.102 67.6209 119.803L66.6728 119.815C66.688 121.009 66.4487 122.841 65.6939 124.431C64.9438 126.011 63.7154 127.301 61.7553 127.575L61.8866 128.514ZM67.6204 119.787C67.5965 119.274 67.5006 118.723 67.3339 118.227C67.17 117.739 66.9225 117.258 66.5658 116.932C66.1855 116.583 65.6776 116.414 65.1036 116.606C64.5766 116.783 64.0625 117.243 63.5488 117.961L64.3199 118.513C64.7904 117.855 65.1588 117.588 65.4049 117.505C65.6039 117.439 65.7596 117.479 65.9254 117.631C66.1148 117.804 66.2959 118.114 66.4351 118.529C66.5714 118.935 66.6531 119.398 66.6733 119.831L67.6204 119.787ZM63.5488 117.961C62.457 119.486 62.3458 121.671 62.5861 123.679C62.8291 125.709 63.4466 127.681 63.9447 128.884L64.8208 128.521C64.3492 127.382 63.7584 125.495 63.5276 123.566C63.294 121.614 63.4435 119.737 64.3199 118.513L63.5488 117.961ZM63.9519 128.901C64.789 130.723 66.9818 133.405 70.4672 133.78L70.5687 132.838C67.5359 132.511 65.5707 130.153 64.8135 128.505L63.9519 128.901ZM71.1636 133.823C71.3246 133.826 71.4868 133.823 71.6497 133.816L71.6062 132.869C71.4608 132.875 71.319 132.878 71.1805 132.875L71.1636 133.823ZM72.009 133.792C72.2857 133.768 72.5676 133.729 72.8546 133.675L72.6792 132.743C72.4208 132.791 72.1696 132.826 71.9255 132.848L72.009 133.792ZM73.1989 133.604C73.4772 133.54 73.7608 133.462 74.05 133.368L73.7579 132.466C73.4949 132.552 73.2376 132.622 72.9859 132.68L73.1989 133.604Z" fill="#25272A"/>
<path d="M80.1516 207.48H262.801" stroke="#25272A" stroke-width="0.948176" stroke-linecap="round"/>
<path d="M164.254 50.3557C164.315 50.1924 164.233 50.01 164.069 49.9484C163.906 49.8868 163.724 49.9693 163.662 50.1326L164.254 50.3557ZM164.6 61.6216L164.327 61.7811L164.33 61.7874L164.334 61.7936L164.6 61.6216ZM164.596 62.1558C164.705 62.2921 164.904 62.3141 165.04 62.2049C165.176 62.0958 165.198 61.8969 165.089 61.7607L164.596 62.1558ZM171.549 60.8451C171.448 60.9877 171.482 61.1849 171.625 61.2856C171.767 61.3863 171.964 61.3524 172.065 61.2098L171.549 60.8451ZM173.321 58.9318C173.382 58.7683 173.299 58.5862 173.136 58.525C172.972 58.4639 172.79 58.5469 172.729 58.7104L173.321 58.9318ZM172.063 61.2147C172.165 61.0737 172.134 60.876 171.993 60.7732C171.852 60.6704 171.654 60.7015 171.552 60.8426L172.063 61.2147ZM170.09 62.7355L170.266 62.9983L170.266 62.9983L170.09 62.7355ZM165.474 62.5792L165.666 62.3278L165.666 62.3277L165.474 62.5792ZM165.088 61.7612C164.978 61.6251 164.78 61.6034 164.643 61.7127C164.507 61.822 164.486 62.0209 164.595 62.157L165.088 61.7612ZM172.118 60.9709C172.086 60.7993 171.921 60.686 171.749 60.7179C171.578 60.7498 171.464 60.9148 171.496 61.0864L172.118 60.9709ZM172.442 64.4422L172.131 64.4999L172.179 64.7582H172.442V64.4422ZM174.983 64.7582C175.158 64.7582 175.299 64.6167 175.299 64.4422C175.299 64.2676 175.158 64.1261 174.983 64.1261V64.7582ZM165.154 61.9194C165.132 61.7462 164.974 61.6236 164.801 61.6455C164.628 61.6674 164.505 61.8255 164.527 61.9987L165.154 61.9194ZM165.179 64.6314L165.21 64.9459L165.533 64.9137L165.492 64.5918L165.179 64.6314ZM162.872 64.5442C162.698 64.5615 162.571 64.7164 162.589 64.8901C162.606 65.0638 162.761 65.1905 162.934 65.1732L162.872 64.5442ZM163.662 50.1326C163.257 51.2068 162.811 53.0607 162.769 55.1684C162.727 57.2767 163.09 59.6633 164.327 61.7811L164.873 61.4622C163.712 59.4757 163.361 57.2147 163.401 55.1809C163.441 53.1466 163.873 51.3639 164.254 50.3557L163.662 50.1326ZM164.334 61.7936C164.418 61.9222 164.505 62.0429 164.596 62.1558L165.089 61.7607C165.012 61.6642 164.937 61.5606 164.865 61.4497L164.334 61.7936ZM172.065 61.2098C172.347 60.8107 172.999 59.7938 173.321 58.9318L172.729 58.7104C172.435 59.4956 171.821 60.4597 171.549 60.8451L172.065 61.2098ZM171.552 60.8426C171.16 61.38 170.448 62.1165 169.915 62.4727L170.266 62.9983C170.877 62.5902 171.64 61.7947 172.063 61.2147L171.552 60.8426ZM169.915 62.4727C168.034 63.7286 166.245 62.7692 165.666 62.3278L165.283 62.8306C165.939 63.3309 168.045 64.4818 170.266 62.9983L169.915 62.4727ZM165.666 62.3277C165.463 62.1736 165.269 61.9865 165.088 61.7612L164.595 62.157C164.808 62.4219 165.039 62.645 165.283 62.8308L165.666 62.3277ZM171.496 61.0864L172.131 64.4999L172.752 64.3844L172.118 60.9709L171.496 61.0864ZM172.442 64.7582H174.983V64.1261H172.442V64.7582ZM164.527 61.9987L164.865 64.6711L165.492 64.5918L165.154 61.9194L164.527 61.9987ZM165.147 64.3169L162.872 64.5442L162.934 65.1732L165.21 64.9459L165.147 64.3169Z" fill="#25272A"/>
<path d="M171.25 61.8823C168.959 64.0158 165.963 63.0004 164.861 62.1846L165.165 64.2742C167.984 65.8358 170.469 63.3028 171.25 61.8823Z" fill="#25272A"/>
<path d="M171.996 58.6959C172.695 58.8166 174.177 58.782 174.513 57.6772C174.932 56.2964 173.651 55.6966 172.484 56.1832" stroke="#25272A" stroke-width="0.632118" stroke-linecap="round"/>
<path d="M163.309 53.2944C163.867 53.2944 165.257 53.5892 165.671 54.5919C166.086 55.5946 165.6 58.189 164.803 59.542C165.222 59.4227 165.84 59.363 166.756 58.189" stroke="#25272A" stroke-width="0.632118" stroke-linecap="round"/>
<path d="M168.02 54.1098C168.481 53.7084 169.673 53.1689 170.754 54.2223" stroke="#25272A" stroke-width="0.632118" stroke-linecap="round"/>
<path d="M167.125 60.3465C167.466 60.3894 168.259 60.2997 168.702 59.5972" stroke="#25272A" stroke-width="0.632118" stroke-linecap="round"/>
<path d="M162.546 51.9266C159.391 53.8503 161.692 55.8348 163.178 56.4848C163.045 55.4624 163.304 53.5927 163.304 53.4981C163.912 53.2103 163.924 52.7344 163.854 52.5325L165.469 50.9209L170.944 51.1377C170.657 52.9099 172.242 54.754 172.956 55.3724C172.615 55.6564 172.728 56.1109 172.728 56.0162C174.048 55.6073 174.542 56.3885 174.625 56.8304C175.092 56.357 176.01 55.1452 175.934 54.085C175.858 53.0247 174.536 52.2042 173.886 51.9266C175.159 47.534 172.546 46.8777 171.079 47.0985C171.192 46.5495 171.004 44.9023 169.638 44.5236C165.352 43.6905 165.011 48.1777 165.011 48.0831C162.356 47.8104 162.262 50.5318 162.546 51.9266Z" fill="#25272A"/>
<path d="M172.388 60.0485C171.888 59.473 171.914 58.9633 171.99 58.7803H173.07L172.388 60.0485Z" fill="#25272A"/>
<path d="M171.996 54.9277L166.839 55.3631L167.996 57.8246L171.144 58.0328L171.996 54.9277Z" fill="#25272A"/>
<path d="M168.48 55.2236L167.988 55.2656L168.893 57.8833L169.345 57.9172L168.48 55.2236Z" fill="white"/>
<path d="M169.29 55.1543L168.821 55.1946L169.768 57.9407L170.152 57.9683L169.29 55.1543Z" fill="white"/>
<path d="M160.569 54.9277L165.727 55.3631L164.571 57.8246L161.423 58.0328L160.569 54.9277Z" fill="#25272A"/>
<path d="M162.564 55.098L162.046 55.0449L163.029 57.9251L163.465 57.896L162.564 55.098Z" fill="white"/>
<path d="M163.426 55.1674L162.907 55.1255L163.861 57.8712L164.24 57.8457L163.426 55.1674Z" fill="white"/>
<path d="M165.106 56.1873H167.552" stroke="#25272A" stroke-width="0.632118"/>
<path d="M171.346 55.9605L173.317 55.4297" stroke="#25272A" stroke-width="0.632118"/>
<path d="M198.171 95.4287C197.977 95.2528 197.677 95.2675 197.501 95.4615C197.325 95.6555 197.34 95.9553 197.534 96.1312L198.171 95.4287ZM210.011 106.803L209.693 107.154L209.711 107.171L209.731 107.185L210.011 106.803ZM236.464 72.1989L236.206 71.8011L236.042 71.9073L236 72.098L236.464 72.1989ZM245.154 66.5627L245.628 66.5775L245.656 65.6719L244.896 66.1649L245.154 66.5627ZM245.121 67.6365L245.594 67.6653L245.595 67.6513L245.121 67.6365ZM248.36 68.1941L248.824 68.2914L248.829 68.2643L248.832 68.2368L248.36 68.1941ZM248.531 58.6243L249.005 58.6213L249.005 58.6017L249.003 58.5821L248.531 58.6243ZM245.231 57.2211C245.052 57.4119 245.061 57.7119 245.252 57.8912C245.442 58.0706 245.742 58.0613 245.922 57.8706L245.231 57.2211ZM245.103 57.5465C245.103 57.8084 245.315 58.0206 245.577 58.0206C245.839 58.0206 246.051 57.8084 246.051 57.5465H245.103ZM242.93 53.9173C242.713 54.0624 242.654 54.3568 242.799 54.5747C242.944 54.7926 243.238 54.8516 243.456 54.7064L242.93 53.9173ZM246.049 57.5473C246.049 57.2855 245.837 57.0732 245.575 57.0732C245.314 57.0732 245.101 57.2855 245.101 57.5473H246.049ZM245.101 64.6487C245.101 64.9105 245.314 65.1228 245.575 65.1228C245.837 65.1228 246.049 64.9105 246.049 64.6487H245.101ZM242.719 54.3114C242.719 54.5733 242.931 54.7855 243.193 54.7855C243.455 54.7855 243.667 54.5733 243.667 54.3114H242.719ZM240.682 52.3441L240.549 51.8891L240.54 51.8915L240.532 51.8943L240.682 52.3441ZM238.491 53.4501C238.344 53.6669 238.401 53.9617 238.618 54.1085C238.834 54.2554 239.129 54.1987 239.276 53.9819L238.491 53.4501ZM243.668 54.3129C243.668 54.0511 243.456 53.8388 243.194 53.8388C242.932 53.8388 242.72 54.0511 242.72 54.3129H243.668ZM242.72 62.9628C242.72 63.2246 242.932 63.4369 243.194 63.4369C243.456 63.4369 243.668 63.2246 243.668 62.9628H242.72ZM238.419 53.6236C238.368 53.8804 238.535 54.1299 238.791 54.1808C239.048 54.2318 239.298 54.0649 239.349 53.8081L238.419 53.6236ZM235.798 52.6467L236.108 53.0049L236.108 53.0049L235.798 52.6467ZM224.442 68.1941L224.051 67.9261L224.015 67.9789L223.994 68.0393L224.442 68.1941ZM216.608 90.8647L216.293 91.2187L216.824 91.6917L217.057 91.0195L216.608 90.8647ZM207.211 81.862C207.015 81.6879 206.716 81.7053 206.542 81.9008C206.367 82.0964 206.385 82.396 206.58 82.5701L207.211 81.862ZM239.315 53.9162C239.424 53.6785 239.321 53.3968 239.083 53.2871C238.845 53.1774 238.564 53.2812 238.454 53.5189L239.315 53.9162ZM235.798 60.4043L235.368 60.2057L235.235 60.4938L235.45 60.7266L235.798 60.4043ZM235.396 67.9443C235.257 68.1663 235.325 68.4588 235.547 68.5977C235.769 68.7366 236.061 68.6693 236.2 68.4473L235.396 67.9443ZM240.605 56.4917C240.605 56.2299 240.392 56.0176 240.13 56.0176C239.869 56.0176 239.656 56.2299 239.656 56.4917H240.605ZM239.656 63.3958C239.656 63.6577 239.869 63.8699 240.13 63.8699C240.392 63.8699 240.605 63.6577 240.605 63.3958H239.656ZM197.534 96.1312L209.693 107.154L210.33 106.452L198.171 95.4287L197.534 96.1312ZM209.731 107.185C212.236 109.02 214.822 110.332 217.403 110.514C220.017 110.698 222.555 109.717 224.924 107.122L224.224 106.483C222.021 108.895 219.755 109.729 217.469 109.568C215.151 109.405 212.741 108.214 210.292 106.42L209.731 107.185ZM224.924 107.122C226.125 105.807 227.337 103.545 228.507 100.798C229.684 98.0379 230.839 94.7383 231.914 91.3083C234.063 84.4477 235.895 77.0342 236.927 72.2998L236 72.098C234.973 76.8121 233.147 84.1973 231.009 91.0249C229.94 94.4391 228.795 97.706 227.635 100.427C226.469 103.162 225.309 105.295 224.224 106.483L224.924 107.122ZM236.722 72.5967L245.412 66.9604L244.896 66.1649L236.206 71.8011L236.722 72.5967ZM244.68 66.5479L244.647 67.6217L245.595 67.6513L245.628 66.5775L244.68 66.5479ZM244.648 67.6076C244.563 68.9927 245.333 70.0723 246.35 70.3267C246.863 70.4552 247.415 70.36 247.877 70.0002C248.332 69.6457 248.661 69.0668 248.824 68.2914L247.896 68.0968C247.765 68.7211 247.524 69.073 247.294 69.2521C247.071 69.426 246.821 69.4673 246.58 69.4069C246.088 69.2838 245.532 68.6848 245.594 67.6653L244.648 67.6076ZM248.832 68.2368C248.973 66.6776 249.029 62.3395 249.005 58.6213L248.057 58.6273C248.081 62.3558 248.024 66.6462 247.887 68.1514L248.832 68.2368ZM249.003 58.5821C248.828 56.6203 246.487 55.8847 245.231 57.2211L245.922 57.8706C246.621 57.1262 247.957 57.5256 248.059 58.6665L249.003 58.5821ZM246.051 57.5465V56.1586H245.103V57.5465H246.051ZM246.051 56.1586C246.051 55.3525 245.755 54.53 245.207 54.0243C244.927 53.7656 244.573 53.5844 244.164 53.5541C243.754 53.5237 243.335 53.6481 242.93 53.9173L243.456 54.7064C243.719 54.5311 243.932 54.4877 244.094 54.4997C244.256 54.5117 244.415 54.583 244.564 54.7207C244.874 55.0077 245.103 55.553 245.103 56.1586H246.051ZM245.101 57.5473V64.6487H246.049V57.5473H245.101ZM243.667 54.3114C243.667 53.7378 243.499 52.9781 243.007 52.4269C242.755 52.1438 242.419 51.9195 241.993 51.8147C241.57 51.7107 241.088 51.7314 240.549 51.8891L240.815 52.7992C241.23 52.6777 241.539 52.6795 241.767 52.7354C241.991 52.7905 242.163 52.9049 242.3 53.058C242.586 53.3794 242.719 53.8824 242.719 54.3114H243.667ZM240.532 51.8943C239.425 52.2629 238.869 52.8924 238.491 53.4501L239.276 53.9819C239.578 53.5363 239.982 53.0767 240.831 52.7939L240.532 51.8943ZM242.72 54.3129V62.9628H243.668V54.3129H242.72ZM239.349 53.8081C239.414 53.4763 239.354 53.0892 239.218 52.7446C239.08 52.3934 238.843 52.0334 238.496 51.7747C238.141 51.5091 237.682 51.3609 237.148 51.4342C236.625 51.506 236.069 51.7836 235.487 52.2885L236.108 53.0049C236.602 52.5769 236.992 52.4126 237.276 52.3736C237.549 52.3362 237.76 52.4084 237.929 52.5343C238.107 52.6671 238.248 52.8697 238.336 53.0923C238.426 53.3214 238.439 53.5193 238.419 53.6236L239.349 53.8081ZM235.487 52.2884C234.916 52.7831 234.104 53.7447 233.179 54.9399C232.246 56.1463 231.172 57.6243 230.073 59.1789C227.875 62.2874 225.562 65.7211 224.051 67.9261L224.833 68.4621C226.35 66.248 228.654 62.8272 230.847 59.7263C231.943 58.1762 233.008 56.7109 233.929 55.5202C234.859 54.3184 235.618 53.4294 236.108 53.0049L235.487 52.2884ZM223.994 68.0393L216.16 90.7098L217.057 91.0195L224.89 68.3489L223.994 68.0393ZM216.924 90.5106L207.211 81.862L206.58 82.5701L216.293 91.2187L216.924 90.5106ZM238.454 53.5189L235.368 60.2057L236.229 60.603L239.315 53.9162L238.454 53.5189ZM235.45 60.7266C236.292 61.6345 237.599 64.425 235.396 67.9443L236.2 68.4473C238.655 64.5241 237.245 61.2674 236.146 60.082L235.45 60.7266ZM239.656 56.4917V63.3958H240.605V56.4917H239.656Z" fill="#25272A"/>
<path d="M148.895 92.4319C149.1 92.2686 149.133 91.9703 148.97 91.7656C148.807 91.5609 148.509 91.5273 148.304 91.6905L148.895 92.4319ZM139.533 98.6851C139.328 98.8483 139.295 99.1466 139.458 99.3513C139.621 99.556 139.919 99.5897 140.124 99.4264L139.533 98.6851ZM102.379 51.6103C102.548 51.8097 102.847 51.8339 103.047 51.6643C103.246 51.4947 103.271 51.1955 103.101 50.9961L102.379 51.6103ZM99.7344 52.2324L99.2649 52.1665L99.2621 52.186L99.261 52.2056L99.7344 52.2324ZM99.4252 61.7987L98.9515 61.8177L98.9526 61.8454L98.9569 61.8727L99.4252 61.7987ZM102.687 61.4039L102.213 61.3946L102.213 61.4018L102.213 61.409L102.687 61.4039ZM102.709 60.3298L102.986 59.9455L102.253 59.4155L102.235 60.3204L102.709 60.3298ZM111.105 66.3939L111.572 66.3164L111.54 66.1239L111.382 66.0096L111.105 66.3939ZM121.242 101.549L120.876 101.851L120.876 101.851L121.242 101.549ZM124.059 104.588C124.288 104.715 124.577 104.632 124.703 104.403C124.83 104.173 124.747 103.885 124.518 103.758L124.059 104.588ZM102.268 51.2798C102.255 51.5413 102.456 51.764 102.718 51.7771C102.979 51.7902 103.202 51.5889 103.215 51.3274L102.268 51.2798ZM102.811 49.9174L102.338 49.8936L102.338 49.8936L102.811 49.9174ZM105.002 48.5733C105.213 48.7291 105.51 48.6849 105.666 48.4746C105.821 48.2642 105.777 47.9673 105.567 47.8114L105.002 48.5733ZM103.214 51.3254C103.227 51.0639 103.026 50.8413 102.764 50.8281C102.503 50.815 102.28 51.0163 102.267 51.2778L103.214 51.3254ZM101.91 58.3703C101.897 58.6318 102.099 58.8545 102.36 58.8676C102.622 58.8808 102.844 58.6794 102.857 58.4179L101.91 58.3703ZM104.809 48.1681C104.796 48.4296 104.997 48.6522 105.258 48.6653C105.52 48.6785 105.743 48.4771 105.756 48.2156L104.809 48.1681ZM107.889 46.3528L108.061 45.911L108.052 45.9078L108.044 45.905L107.889 46.3528ZM115.94 52.2324L115.624 52.5856L115.632 52.5931L115.641 52.6001L115.94 52.2324ZM117.239 53.9005C117.442 54.0658 117.741 54.0351 117.906 53.832C118.071 53.6289 118.041 53.3303 117.838 53.165L117.239 53.9005ZM105.757 48.2153C105.77 47.9538 105.568 47.7312 105.307 47.718C105.045 47.7049 104.823 47.9062 104.81 48.1677L105.757 48.2153ZM104.375 56.8066C104.362 57.0681 104.564 57.2908 104.825 57.3039C105.087 57.317 105.309 57.1157 105.322 56.8542L104.375 56.8066ZM140.629 78.3344C140.836 78.1733 140.872 77.8754 140.711 77.6689C140.55 77.4625 140.252 77.4258 140.046 77.5869L140.629 78.3344ZM129.999 86.0291L129.548 86.1746L129.756 86.8201L130.291 86.4028L129.999 86.0291ZM121.709 60.3288L121.245 60.2296L121.219 60.3536L121.258 60.4743L121.709 60.3288ZM122.3 46.1515L121.972 46.4937L121.972 46.4937L122.3 46.1515ZM119.079 49.5167L118.632 49.3606L118.632 49.3608L119.079 49.5167ZM117.098 53.3597C117.003 53.6037 117.124 53.8785 117.368 53.9736C117.612 54.0686 117.887 53.9479 117.982 53.7039L117.098 53.3597ZM117.691 53.9806C117.939 53.8957 118.071 53.6261 117.986 53.3784C117.901 53.1307 117.632 52.9987 117.384 53.0836L117.691 53.9806ZM113.245 61.4966C113.296 61.7533 113.546 61.9196 113.803 61.868C114.059 61.8165 114.226 61.5666 114.174 61.3099L113.245 61.4966ZM109.082 50.7859C109.1 50.5246 108.902 50.2986 108.641 50.281C108.38 50.2633 108.154 50.4608 108.136 50.722L109.082 50.7859ZM107.684 57.4273C107.666 57.6886 107.864 57.9146 108.125 57.9322C108.386 57.9499 108.612 57.7524 108.63 57.4912L107.684 57.4273ZM148.304 91.6905L139.533 98.6851L140.124 99.4264L148.895 92.4319L148.304 91.6905ZM103.101 50.9961C101.913 49.5986 99.5387 50.216 99.2649 52.1665L100.204 52.2983C100.363 51.1637 101.717 50.8317 102.379 51.6103L103.101 50.9961ZM99.261 52.2056C99.0509 55.9179 98.8887 60.2533 98.9515 61.8177L99.8989 61.7797C99.8383 60.2696 99.997 55.9819 100.208 52.2592L99.261 52.2056ZM98.9569 61.8727C99.0805 62.6552 99.3802 63.2498 99.8171 63.6267C100.26 64.0092 100.806 64.1319 101.325 64.0293C102.354 63.8261 103.176 62.7864 103.162 61.3989L102.213 61.409C102.224 62.4304 101.639 63.0008 101.141 63.0991C100.898 63.1473 100.651 63.0936 100.436 62.9088C100.216 62.7184 99.993 62.3549 99.8935 61.7248L98.9569 61.8727ZM103.161 61.4133L103.183 60.3391L102.235 60.3204L102.213 61.3946L103.161 61.4133ZM102.431 60.7141L110.827 66.7783L111.382 66.0096L102.986 59.9455L102.431 60.7141ZM110.637 66.4715C111.429 71.2516 112.888 78.7473 114.69 85.7069C115.59 89.1863 116.579 92.5395 117.616 95.3555C118.647 98.1569 119.743 100.477 120.876 101.851L121.608 101.248C120.584 100.007 119.532 97.8179 118.505 95.028C117.484 92.2527 116.504 88.9325 115.608 85.4692C113.815 78.5433 112.361 71.076 111.572 66.3164L110.637 66.4715ZM120.876 101.851C121.886 103.075 122.949 103.975 124.059 104.588L124.518 103.758C123.529 103.212 122.554 102.395 121.608 101.248L120.876 101.851ZM103.215 51.3274L103.285 49.9412L102.338 49.8936L102.268 51.2798L103.215 51.3274ZM103.285 49.9412C103.315 49.3365 103.57 48.8032 103.895 48.5321C104.051 48.402 104.213 48.3387 104.376 48.3348C104.538 48.3309 104.748 48.385 105.002 48.5733L105.567 47.8114C105.177 47.5223 104.764 47.3771 104.353 47.3869C103.942 47.3967 103.58 47.56 103.287 47.8043C102.715 48.2819 102.378 49.0886 102.338 49.8936L103.285 49.9412ZM102.267 51.2778L101.91 58.3703L102.857 58.4179L103.214 51.3254L102.267 51.2778ZM105.756 48.2156C105.777 47.7872 105.935 47.2914 106.237 46.9848C106.381 46.8387 106.559 46.7331 106.786 46.6893C107.015 46.6448 107.324 46.6585 107.733 46.8006L108.044 45.905C107.513 45.7205 107.033 45.6756 106.605 45.7584C106.175 45.8417 105.828 46.0489 105.562 46.3191C105.043 46.845 104.838 47.5953 104.809 48.1681L105.756 48.2156ZM107.717 46.7946C108.975 47.2848 110.42 48.2508 111.832 49.3511C113.237 50.4461 114.575 51.6471 115.624 52.5856L116.256 51.8791C115.211 50.944 113.849 49.7214 112.415 48.6032C110.987 47.4902 109.453 46.4533 108.061 45.911L107.717 46.7946ZM115.641 52.6001L117.239 53.9005L117.838 53.165L116.239 51.8646L115.641 52.6001ZM104.81 48.1677L104.375 56.8066L105.322 56.8542L105.757 48.2153L104.81 48.1677ZM140.046 77.5869L129.707 85.6553L130.291 86.4028L140.629 78.3344L140.046 77.5869ZM130.45 85.8835L122.16 60.1832L121.258 60.4743L129.548 86.1746L130.45 85.8835ZM121.709 60.3288C122.173 60.4279 122.173 60.4279 122.173 60.4277C122.173 60.4276 122.173 60.4274 122.173 60.4272C122.173 60.4268 122.173 60.4262 122.173 60.4254C122.174 60.4238 122.174 60.4214 122.175 60.4184C122.176 60.4122 122.178 60.4032 122.18 60.3914C122.185 60.3677 122.193 60.3327 122.202 60.2871C122.221 60.196 122.248 60.0625 122.282 59.8922C122.35 59.5515 122.445 59.0632 122.553 58.4714C122.768 57.2885 123.033 55.6886 123.235 54.0257C123.437 52.3662 123.577 50.6277 123.537 49.1729C123.516 48.4462 123.451 47.7737 123.318 47.2098C123.189 46.6584 122.981 46.1469 122.629 45.8093L121.972 46.4937C122.127 46.6416 122.28 46.9374 122.395 47.4268C122.507 47.9038 122.57 48.5058 122.589 49.1993C122.627 50.5848 122.493 52.2693 122.294 53.9113C122.095 55.5498 121.833 57.1302 121.62 58.302C121.514 58.8876 121.42 59.3703 121.353 59.7064C121.319 59.8743 121.292 60.0056 121.274 60.0947C121.264 60.1392 121.257 60.1731 121.253 60.1959C121.25 60.2072 121.248 60.2158 121.247 60.2214C121.247 60.2242 121.246 60.2263 121.246 60.2277C121.246 60.2284 121.246 60.2289 121.245 60.2292C121.245 60.2294 121.245 60.2295 121.245 60.2295C121.245 60.2296 121.245 60.2296 121.709 60.3288ZM122.629 45.8093C122.136 45.3367 121.367 45.3706 120.666 45.9204C119.98 46.4588 119.27 47.5294 118.632 49.3606L119.527 49.6728C120.142 47.9093 120.775 47.0404 121.252 46.6664C121.714 46.3038 121.929 46.4525 121.972 46.4937L122.629 45.8093ZM118.632 49.3608C118.53 49.6516 118.149 50.6453 117.789 51.5788C117.61 52.0427 117.437 52.488 117.309 52.8173C117.245 52.9819 117.192 53.1176 117.156 53.212C117.137 53.2593 117.123 53.2962 117.113 53.3213C117.108 53.3339 117.104 53.3435 117.102 53.3499C117.101 53.3532 117.1 53.3556 117.099 53.3573C117.099 53.3581 117.098 53.3587 117.098 53.3591C117.098 53.3593 117.098 53.3595 117.098 53.3596C117.098 53.3596 117.098 53.3597 117.098 53.3597C117.098 53.3597 117.098 53.3597 117.54 53.5318C117.982 53.7039 117.982 53.7039 117.982 53.7039C117.982 53.7039 117.982 53.7038 117.982 53.7038C117.982 53.7037 117.982 53.7035 117.982 53.7033C117.982 53.7029 117.982 53.7023 117.983 53.7014C117.983 53.6998 117.984 53.6973 117.985 53.6941C117.988 53.6876 117.992 53.678 117.997 53.6654C118.006 53.6402 118.021 53.6032 118.039 53.5559C118.076 53.4613 118.129 53.3255 118.193 53.1606C118.321 52.831 118.494 52.3851 118.673 51.9204C119.03 50.9966 119.419 49.9827 119.527 49.6726L118.632 49.3608ZM117.384 53.0836C116.777 53.2916 115.456 53.9303 114.426 55.2563C113.381 56.6022 112.666 58.6175 113.245 61.4966L114.174 61.3099C113.649 58.6938 114.303 56.9604 115.175 55.838C116.062 54.6957 117.208 54.1464 117.691 53.9806L117.384 53.0836ZM108.136 50.722L107.684 57.4273L108.63 57.4912L109.082 50.7859L108.136 50.722Z" fill="#25272A"/>
<path d="M158.571 100.541C158.832 100.562 159.06 100.367 159.081 100.106C159.101 99.845 158.906 99.6168 158.645 99.5962L158.571 100.541ZM135.776 98.9424L135.791 98.4685L135.164 98.4486L135.316 99.0575L135.776 98.9424ZM139.875 117.279C139.939 117.533 140.196 117.687 140.45 117.624C140.704 117.56 140.859 117.303 140.795 117.049L139.875 117.279ZM169.373 130.179C169.635 130.189 169.855 129.985 169.865 129.724C169.875 129.462 169.671 129.242 169.409 129.232L169.373 130.179ZM143.313 128.704L142.854 128.823L142.942 129.164L143.295 129.178L143.313 128.704ZM140.794 117.045C140.728 116.792 140.47 116.639 140.216 116.705C139.963 116.77 139.81 117.029 139.876 117.282L140.794 117.045ZM169.866 129.723C169.875 129.462 169.67 129.242 169.409 129.233C169.147 129.224 168.927 129.428 168.918 129.69L169.866 129.723ZM168.088 166.66L167.614 166.644L167.596 167.167L168.119 167.134L168.088 166.66ZM185.922 165.982C186.183 165.966 186.381 165.74 186.365 165.479C186.348 165.217 186.122 165.019 185.861 165.036L185.922 165.982ZM168.917 129.706C168.917 129.968 169.129 130.18 169.391 130.18C169.653 130.18 169.865 129.968 169.865 129.706H168.917ZM169.865 120.796C169.865 120.534 169.653 120.322 169.391 120.322C169.129 120.322 168.917 120.534 168.917 120.796H169.865ZM194.949 107.905C194.907 107.647 194.663 107.472 194.405 107.514C194.146 107.556 193.971 107.8 194.013 108.058L194.949 107.905ZM203.693 164.357L203.724 164.83L204.246 164.796L204.161 164.281L203.693 164.357ZM185.86 165.036C185.598 165.053 185.4 165.278 185.417 165.54C185.434 165.801 185.66 165.999 185.921 165.982L185.86 165.036ZM185.419 165.46C185.392 165.721 185.581 165.954 185.841 165.981C186.102 166.008 186.335 165.819 186.362 165.558L185.419 165.46ZM191.3 118.081C191.327 117.82 191.138 117.587 190.877 117.56C190.617 117.533 190.384 117.722 190.357 117.983L191.3 118.081ZM183.834 109.347C183.687 109.131 183.392 109.076 183.175 109.223C182.959 109.371 182.904 109.666 183.052 109.882L183.834 109.347ZM194.991 121.419C195.232 121.521 195.51 121.408 195.612 121.166C195.713 120.925 195.6 120.647 195.359 120.545L194.991 121.419ZM140.479 116.712C140.23 116.633 139.963 116.77 139.883 117.02C139.803 117.269 139.941 117.536 140.19 117.616L140.479 116.712ZM169.247 126.899C169.496 126.979 169.763 126.841 169.843 126.592C169.922 126.343 169.785 126.076 169.535 125.996L169.247 126.899ZM158.645 99.5962C154.362 99.2588 148.647 98.9769 144.007 98.7794C141.686 98.6806 139.632 98.6029 138.158 98.5499C137.422 98.5234 136.83 98.5031 136.422 98.4893C136.218 98.4825 136.061 98.4773 135.954 98.4738C135.9 98.4721 135.86 98.4707 135.832 98.4699C135.819 98.4694 135.808 98.4691 135.801 98.4689C135.798 98.4688 135.795 98.4687 135.794 98.4686C135.793 98.4686 135.792 98.4686 135.792 98.4686C135.791 98.4685 135.791 98.4685 135.791 98.4685C135.791 98.4685 135.791 98.4685 135.776 98.9424C135.761 99.4162 135.761 99.4162 135.761 99.4162C135.761 99.4162 135.761 99.4162 135.761 99.4163C135.762 99.4163 135.763 99.4163 135.763 99.4163C135.765 99.4164 135.768 99.4165 135.771 99.4166C135.778 99.4168 135.788 99.4171 135.802 99.4175C135.829 99.4184 135.87 99.4197 135.923 99.4215C136.029 99.4249 136.187 99.4301 136.39 99.437C136.797 99.4507 137.388 99.471 138.124 99.4975C139.596 99.5504 141.648 99.6281 143.966 99.7267C148.605 99.9241 154.306 100.205 158.571 100.541L158.645 99.5962ZM135.316 99.0575L139.875 117.279L140.795 117.049L136.236 98.8273L135.316 99.0575ZM169.409 129.232L143.331 128.23L143.295 129.178L169.373 130.179L169.409 129.232ZM143.772 128.586L140.794 117.045L139.876 117.282L142.854 128.823L143.772 128.586ZM168.918 129.69L167.614 166.644L168.562 166.677L169.866 129.723L168.918 129.69ZM168.119 167.134L185.922 165.982L185.861 165.036L168.058 166.187L168.119 167.134ZM169.865 129.706V120.796H168.917V129.706H169.865ZM194.013 108.058L203.225 164.434L204.161 164.281L194.949 107.905L194.013 108.058ZM203.663 163.884L185.86 165.036L185.921 165.982L203.724 164.83L203.663 163.884ZM186.362 165.558L191.3 118.081L190.357 117.983L185.419 165.46L186.362 165.558ZM183.052 109.882C184.093 111.405 185.929 113.798 188.068 116.05C190.196 118.291 192.671 120.442 194.991 121.419L195.359 120.545C193.229 119.648 190.866 117.619 188.755 115.397C186.655 113.186 184.85 110.833 183.834 109.347L183.052 109.882ZM140.19 117.616L169.247 126.899L169.535 125.996L140.479 116.712L140.19 117.616Z" fill="#25272A"/>
<path d="M157.658 65.2295L162.871 64.5018C163.827 65.6633 166.508 68.2599 169.797 67.8494C173.087 67.439 174.484 65.0596 174.874 64.084C177.338 64.1425 183.256 64.714 186.4 65.2295C189.544 65.7448 192.403 67.826 193.439 68.8021L207.425 82.3055L197.861 96.3558L191.679 90.0626L194.905 108.16L157.658 100.371L156.602 87.7199L147.452 94.4555L137.714 79.4616C140.471 77.1775 146.654 71.9531 149.328 69.3293C152.519 66.0963 156.124 65.4279 157.658 65.2295Z" fill="#2C68C9"/>
<path d="M156.583 82.7916C156.56 82.5308 156.33 82.3379 156.069 82.3607C155.808 82.3836 155.615 82.6136 155.638 82.8744L156.583 82.7916ZM155.966 86.609C155.988 86.8698 156.218 87.0627 156.479 87.0399C156.74 87.017 156.933 86.787 156.91 86.5262L155.966 86.609ZM191.174 84.0188C191.133 83.7602 190.89 83.5836 190.632 83.6244C190.373 83.6652 190.196 83.9079 190.237 84.1666L191.174 84.0188ZM191.033 89.2082C191.073 89.4668 191.316 89.6434 191.575 89.6026C191.833 89.5618 192.01 89.3191 191.969 89.0604L191.033 89.2082ZM155.638 82.8744L155.966 86.609L156.91 86.5262L156.583 82.7916L155.638 82.8744ZM190.237 84.1666L191.033 89.2082L191.969 89.0604L191.174 84.0188L190.237 84.1666Z" fill="#25272A"/>
<path d="M166.851 214.656L185.965 193.851H206.965L211.111 209.963L166.851 214.656Z" fill="#25272A" stroke="#25272A" stroke-width="0.948176"/>
<path d="M166.851 214.656L166.502 214.335L165.653 215.26L166.901 215.128L166.851 214.656ZM211.111 209.964L211.161 210.435L211.707 210.377L211.57 209.845L211.111 209.964ZM181.97 165.674L185.495 193.91L186.436 193.793L182.911 165.556L181.97 165.674ZM185.616 193.531L166.502 214.335L167.2 214.977L186.314 194.172L185.616 193.531ZM166.901 215.128L211.161 210.435L211.061 209.492L166.801 214.185L166.901 215.128ZM211.57 209.845L207.424 193.733L206.506 193.97L210.652 210.082L211.57 209.845ZM185.963 194.327H206.963V193.379H185.963V194.327ZM198.978 164.716L206.504 193.97L207.423 193.734L199.896 164.48L198.978 164.716Z" fill="#25272A"/>
<path fill-rule="evenodd" clip-rule="evenodd" d="M186.251 195.231C184.569 192.886 180.813 188.507 179.239 189.749C177.666 190.992 183.259 193.921 186.251 195.231Z" stroke="#25272A" stroke-width="0.948176"/>
<path fill-rule="evenodd" clip-rule="evenodd" d="M186.165 195.272C183.732 193.718 178.615 191.044 177.617 192.781C176.618 194.518 182.899 195.165 186.165 195.272Z" stroke="#25272A" stroke-width="0.948176"/>
<path d="M185.95 195.354C185.061 194.257 182.552 192.73 179.629 195.403C176.707 198.075 174.163 196.553 173.256 195.458" stroke="#25272A" stroke-width="0.948176" stroke-linecap="round"/>
<path d="M113.664 182.524L132.778 161.718H153.778L157.923 177.831L113.664 182.524Z" fill="#25272A" stroke="#25272A" stroke-width="0.948176"/>
<path d="M124.541 132.465L124.078 132.57L124.081 132.582L124.084 132.594L124.541 132.465ZM120.975 116.764L120.512 116.864L120.513 116.869L120.975 116.764ZM113.662 182.524L113.313 182.203L112.464 183.128L113.712 182.995L113.662 182.524ZM157.921 177.831L157.971 178.303L158.517 178.245L158.381 177.713L157.921 177.831ZM133.233 161.59L124.997 132.337L124.084 132.594L132.32 161.847L133.233 161.59ZM125.003 132.36L121.438 116.659L120.513 116.869L124.078 132.57L125.003 132.36ZM121.439 116.664C120.977 114.529 121.4 110.132 123.546 106.303C125.671 102.51 129.462 99.3117 135.744 99.4371L135.763 98.4891C129.071 98.3555 124.984 101.797 122.719 105.839C120.474 109.845 119.996 114.477 120.512 116.864L121.439 116.664ZM132.426 161.398L113.313 182.203L114.011 182.845L133.125 162.039L132.426 161.398ZM113.712 182.995L157.971 178.303L157.871 177.36L113.612 182.053L113.712 182.995ZM158.381 177.713L154.235 161.6L153.317 161.837L157.462 177.95L158.381 177.713ZM132.774 162.191H153.775V161.243H132.774V162.191ZM142.814 128.665L153.324 161.861L154.228 161.574L143.718 128.379L142.814 128.665Z" fill="#25272A"/>
<path fill-rule="evenodd" clip-rule="evenodd" d="M133.467 162.876C131.734 160.569 127.883 156.273 126.337 157.549C124.792 158.825 130.446 161.633 133.467 162.876Z" stroke="#25272A" stroke-width="0.948176"/>
<path fill-rule="evenodd" clip-rule="evenodd" d="M133.383 162.921C130.916 161.421 125.743 158.859 124.782 160.617C123.822 162.375 130.115 162.886 133.383 162.921Z" stroke="#25272A" stroke-width="0.948176"/>
<path d="M133.169 163.005C132.257 161.927 129.714 160.456 126.851 163.192C123.988 165.927 121.411 164.461 120.481 163.386" stroke="#25272A" stroke-width="0.948176" stroke-linecap="round"/>
<path d="M212.434 26.3217C212.268 26.1198 211.969 26.0912 211.767 26.2579C211.565 26.4246 211.537 26.7234 211.703 26.9253L212.434 26.3217ZM234.203 54.1855C234.37 54.3875 234.669 54.416 234.871 54.2494C235.073 54.0827 235.101 53.7839 234.935 53.582L234.203 54.1855ZM263.937 90.2096C264.104 90.4116 264.403 90.4401 264.605 90.2735C264.807 90.1068 264.835 89.808 264.669 89.606L263.937 90.2096ZM247.991 69.4008C247.824 69.1988 247.526 69.1702 247.324 69.3369C247.122 69.5036 247.093 69.8024 247.26 70.0043L247.991 69.4008ZM211.703 26.9253L234.203 54.1855L234.935 53.582L212.434 26.3217L211.703 26.9253ZM264.669 89.606L247.991 69.4008L247.26 70.0043L263.937 90.2096L264.669 89.606Z" fill="#25272A"/>
<path d="M226.858 26.208C223.049 30.5601 215.552 28.1723 212.206 26.5016L226.953 44.3925C229.313 45.3063 234.735 45.5263 239.128 39.3581C244.928 30.8939 250.668 30.6627 252.813 31.6051L238.27 14C230.933 16.4416 231.62 20.7679 226.858 26.208Z" fill="#ABC3E9"/>
<path d="M239.539 18.7949C239.78 18.6927 239.893 18.4144 239.791 18.1733C239.689 17.9323 239.41 17.8197 239.169 17.9219L239.539 18.7949ZM224.866 32.542C224.604 32.5362 224.387 32.7437 224.381 33.0054C224.375 33.2672 224.583 33.4841 224.845 33.4899L224.866 32.542ZM235.908 32.4434C235.792 32.6783 235.889 32.9625 236.124 33.0781C236.359 33.1936 236.643 33.0968 236.759 32.8619L235.908 32.4434ZM240.523 26.5369C240.676 26.3248 240.629 26.0284 240.417 25.8748C240.205 25.7212 239.908 25.7686 239.755 25.9807L240.523 26.5369ZM239.169 17.9219C238.654 18.1402 237.823 18.8177 236.81 20.0773C235.781 21.3556 234.529 23.2775 233.188 26.0539L234.042 26.4664C235.358 23.7416 236.573 21.8836 237.548 20.6717C238.539 19.4411 239.248 18.9183 239.539 18.7949L239.169 17.9219ZM233.188 26.0539C230.609 31.3903 226.49 32.5781 224.866 32.542L224.845 33.4899C226.845 33.5344 231.304 32.1324 234.042 26.4664L233.188 26.0539ZM236.759 32.8619C237.336 31.6879 238.902 28.7745 240.523 26.5369L239.755 25.9807C238.09 28.2789 236.497 31.2449 235.908 32.4434L236.759 32.8619Z" fill="#25272A"/>
</svg>
