<svg width="335" height="228" viewBox="0 0 335 228" fill="none" xmlns="http://www.w3.org/2000/svg">
<path d="M279.089 219.65H55.326C55.1464 219.65 55.001 219.505 55.001 219.325C55.001 219.145 55.1464 219 55.326 219H279.089C279.268 219 279.414 219.145 279.414 219.325C279.414 219.505 279.268 219.65 279.089 219.65Z" fill="#002544"/>
<path d="M43.3885 34.4067C43.7759 34.4067 44.0918 34.0908 44.0918 33.7033C44.0918 33.3159 43.7759 33 43.3885 33C43.0002 33 42.6851 33.3159 42.6851 33.7033C42.6851 34.0908 43.001 34.4067 43.3885 34.4067ZM43.3885 33.6031C43.4435 33.6031 43.4887 33.6483 43.4887 33.7033C43.4887 33.7584 43.4435 33.8036 43.3885 33.8036C43.3334 33.8036 43.2882 33.7584 43.2882 33.7033C43.2882 33.6483 43.3334 33.6031 43.3885 33.6031Z" fill="#002544"/>
<path d="M40.3885 165.407C40.7767 165.407 41.0918 165.091 41.0918 164.703C41.0918 164.316 40.7759 164 40.3885 164C40.001 164 39.6851 164.316 39.6851 164.703C39.6851 165.091 40.0002 165.407 40.3885 165.407ZM40.3885 164.603C40.4435 164.603 40.4887 164.648 40.4887 164.703C40.4887 164.758 40.4435 164.804 40.3885 164.804C40.3334 164.804 40.2882 164.758 40.2882 164.703C40.2882 164.648 40.3334 164.603 40.3885 164.603Z" fill="#002544"/>
<path d="M30.3012 101.899C30.4 101.899 30.4965 101.85 30.5545 101.762L32.0434 99.4653C32.1338 99.3259 32.0939 99.1389 31.9544 99.0484C31.8149 98.958 31.628 98.9979 31.5375 99.1374L30.0487 101.434C29.9582 101.573 29.9982 101.76 30.1376 101.85C30.1881 101.883 30.2447 101.899 30.3012 101.899Z" fill="#002544"/>
<path d="M81.7906 61.8987C81.6918 61.8987 81.5953 61.8505 81.5373 61.7615L80.0484 59.4653C79.958 59.3259 79.9979 59.1389 80.1374 59.0484C80.2768 58.958 80.4638 58.9979 80.5543 59.1374L82.0431 61.4336C82.1336 61.5731 82.0936 61.76 81.9542 61.8505C81.9037 61.8829 81.8471 61.8987 81.7906 61.8987Z" fill="#002544"/>
<path d="M236.79 152.167C236.885 152.167 236.979 152.122 237.038 152.038C237.133 151.902 237.1 151.713 236.962 151.618L234.717 150.054C234.58 149.959 234.392 149.992 234.297 150.129C234.202 150.266 234.235 150.454 234.372 150.549L236.618 152.114C236.671 152.15 236.731 152.167 236.79 152.167Z" fill="#002544"/>
<path d="M304.79 202.167C304.885 202.167 304.979 202.122 305.038 202.038C305.133 201.902 305.1 201.713 304.962 201.618L302.717 200.054C302.58 199.959 302.392 199.992 302.297 200.129C302.202 200.266 302.235 200.454 302.372 200.549L304.618 202.114C304.671 202.15 304.731 202.167 304.79 202.167Z" fill="#002544"/>
<path d="M292.388 143.407C292.777 143.407 293.092 143.091 293.092 142.703C293.092 142.316 292.776 142 292.388 142C292.001 142 291.685 142.316 291.685 142.703C291.685 143.091 292 143.407 292.388 143.407ZM292.388 142.603C292.443 142.603 292.489 142.648 292.489 142.703C292.489 142.758 292.443 142.804 292.388 142.804C292.333 142.804 292.288 142.758 292.288 142.703C292.288 142.648 292.333 142.603 292.388 142.603Z" fill="#002544"/>
<path d="M159.95 35.4834H152.013C151.854 35.4834 151.723 35.3517 151.723 35.1929C151.723 35.034 151.854 34.9023 152.013 34.9023H159.95C160.109 34.9023 160.241 35.034 160.241 35.1929C160.241 35.3517 160.113 35.4834 159.95 35.4834Z" fill="#002544"/>
<path d="M167.983 16.1928C167.91 16.1928 167.836 16.1657 167.778 16.1076L162.165 10.4948C162.053 10.3825 162.053 10.1966 162.165 10.0842C162.278 9.97192 162.464 9.97192 162.576 10.0842L168.189 15.697C168.301 15.8093 168.301 15.9952 168.189 16.1076C168.134 16.1657 168.061 16.1928 167.983 16.1928Z" fill="#002544"/>
<path d="M162.371 60.5874C162.297 60.5874 162.223 60.5602 162.165 60.5021C162.053 60.3898 162.053 60.2039 162.165 60.0915L167.778 54.4827C167.89 54.3704 168.076 54.3704 168.189 54.4827C168.301 54.595 168.301 54.7809 168.189 54.8933L162.576 60.5021C162.518 60.5602 162.444 60.5874 162.371 60.5874Z" fill="#002544"/>
<path d="M281.536 54.5764L289.403 53.5344C289.561 53.515 289.674 53.3678 289.654 53.209C289.635 53.0502 289.488 52.9379 289.329 52.9572L281.462 53.9992C281.303 54.0186 281.191 54.1658 281.21 54.3246C281.23 54.4873 281.377 54.5996 281.536 54.5764Z" fill="#002544"/>
<path d="M271.038 36.5098C271.111 36.4982 271.181 36.4633 271.232 36.3975L276.058 30.0953C276.155 29.9674 276.132 29.7854 276.004 29.6885C275.876 29.5917 275.694 29.6149 275.597 29.7428L270.771 36.045C270.674 36.1728 270.697 36.3549 270.825 36.4517C270.887 36.5021 270.964 36.5214 271.038 36.5098Z" fill="#002544"/>
<path d="M282.434 79.7801C282.507 79.7685 282.577 79.7336 282.627 79.6678C282.724 79.54 282.701 79.3579 282.573 79.2611L276.271 74.4385C276.143 74.3417 275.961 74.3649 275.864 74.4928C275.767 74.6206 275.791 74.8026 275.919 74.8995L282.221 79.722C282.283 79.7724 282.36 79.7917 282.434 79.7801Z" fill="#002544"/>
<path d="M182 117.245L181.869 116.673L184.633 116.021L197.428 119.652C198.097 119.862 198.361 119.755 198.401 119.702C198.438 119.652 198.421 119.47 198.22 119.175L198.628 118.764C198.964 118.989 199.538 118.966 199.858 118.713C200.237 118.413 200.152 117.908 200.013 117.537L199.782 116.917L200.398 117.159C200.704 117.279 201.084 117.217 201.302 117.009C201.552 116.77 201.504 116.423 201.419 116.174C201.395 116.102 201.271 115.86 201.02 115.678C200.757 115.486 199.864 115.003 199.327 114.726L199.486 114.172L202.13 114.36C202.388 114.378 202.658 114.152 202.72 113.866C202.788 113.557 202.589 113.299 202.16 113.139L191.846 110.705L197.32 108.586C197.686 108.403 197.955 107.895 197.874 107.533C197.77 107.065 197.123 106.994 196.747 106.994L196.726 106.994C195.866 106.932 188.385 107.653 183.539 108.155L180.367 109.466L180.145 108.924L183.397 107.579L183.44 107.575C183.933 107.524 195.492 106.327 196.762 106.406C197.211 106.408 198.25 106.511 198.448 107.402C198.589 108.033 198.184 108.82 197.564 109.119L197.542 109.128L193.826 110.567L202.332 112.574L202.349 112.58C203.206 112.892 203.4 113.511 203.296 113.987C203.17 114.563 202.639 114.983 202.086 114.945L200.805 114.854C201.039 114.988 201.249 115.114 201.37 115.202C201.729 115.465 201.92 115.816 201.976 115.982C202.172 116.554 202.073 117.083 201.707 117.432C201.446 117.681 201.07 117.813 200.693 117.806C200.782 118.374 200.619 118.858 200.221 119.173C199.888 119.436 199.427 119.547 198.993 119.498C199.033 119.767 198.949 119.947 198.872 120.05C198.611 120.4 198.036 120.458 197.254 120.214L184.616 116.627L182 117.245Z" fill="#002544"/>
<path d="M191.839 116.737C191.766 116.657 191.74 116.539 191.782 116.43C191.842 116.279 192.012 116.204 192.164 116.262L198.616 118.761C198.767 118.819 198.841 118.989 198.782 119.141C198.722 119.292 198.552 119.367 198.401 119.309L191.948 116.81C191.905 116.794 191.869 116.768 191.839 116.737ZM193.155 114.927C193.081 114.847 193.056 114.729 193.099 114.621C193.159 114.47 193.33 114.395 193.481 114.454L200.472 117.19C200.623 117.25 200.697 117.42 200.637 117.571C200.576 117.722 200.406 117.797 200.255 117.737L193.263 115.001C193.221 114.984 193.185 114.959 193.155 114.927ZM194.516 113.733C194.454 113.667 194.425 113.573 194.444 113.477C194.476 113.318 194.631 113.214 194.79 113.245L199.829 114.23C199.988 114.261 200.091 114.415 200.059 114.574C200.027 114.733 199.872 114.837 199.713 114.806L194.674 113.822C194.611 113.809 194.556 113.777 194.516 113.733Z" fill="#002544"/>
<g clip-path="url(#clip0)">
<path d="M126.214 69.8254C125.921 69.8987 125.632 69.9835 125.342 70.0684C124.675 70.2689 124.016 70.4925 123.38 70.747C123.364 70.7509 121.999 71.2792 120.634 71.9694C105.699 79.4889 96.9574 90.7295 96.8726 90.8413C93.4021 95.3607 91.2349 99.9418 86.9161 109.065C84.8916 113.334 83.0137 117.719 81.3247 122.088C81.2591 122.257 81.1936 122.419 81.1319 122.581L81.0201 122.874C80.9699 123.001 81.0162 123.148 81.1319 123.221C81.4905 123.453 82.0612 123.804 82.6975 124.181C83.9391 124.926 85.6937 125.944 87.3904 126.9L87.4444 126.931C87.4984 126.962 87.5485 126.989 87.6025 127.016C87.6063 127.02 87.6102 127.02 87.614 127.023C88.0151 127.251 88.4007 127.471 88.7709 127.679C88.7824 127.687 88.794 127.694 88.8056 127.702C89.1256 127.879 89.4303 128.049 89.7195 128.211L90.537 128.655C90.5563 128.666 90.5794 128.678 90.6025 128.689C90.9804 128.894 91.2851 129.056 91.501 129.16C91.5396 129.179 91.5859 129.191 91.6283 129.191C91.6591 129.191 91.6938 129.187 91.7247 129.175C91.7979 129.148 91.8596 129.094 91.8905 129.025L93.2941 126.017C94.7864 122.824 96.2788 119.627 97.7672 116.427L98.7814 114.252C99.622 112.451 100.463 110.65 101.299 108.849L102.557 106.154L109.829 98.6654C109.69 98.9855 110.396 97.6551 110.257 97.9752C118.355 89.4184 124.216 80.9426 126.596 69.4668C126.461 69.5015 126.353 69.7869 126.214 69.8254Z" fill="#BFD22B"/>
<path d="M149.594 74.6383C149 74.1872 148.391 73.7553 147.759 73.3542C143.613 70.7359 138.654 69.2282 133.665 69.0238C132.812 68.9891 131.956 68.9968 131.104 69.0392C129.805 73.0149 131.181 77.7425 134.775 79.7014C137.845 81.3094 140.525 80.974 142.861 79.6089C145.302 78.6063 147.624 76.7823 149.594 74.6383ZM135.542 79.6976C135.693 79.7631 135.847 79.8287 135.998 79.8865C135.847 79.8287 135.697 79.767 135.542 79.6976ZM136.186 79.9482C136.279 79.9791 136.368 80.0138 136.46 80.0408C136.368 80.0138 136.275 79.9829 136.186 79.9482ZM136.699 80.1102C136.773 80.1295 136.842 80.1526 136.915 80.1719C136.842 80.1565 136.773 80.1333 136.699 80.1102ZM137.197 80.2336C137.258 80.2452 137.316 80.2606 137.378 80.2721C137.316 80.2644 137.255 80.249 137.197 80.2336ZM137.679 80.3261C137.729 80.3338 137.783 80.3454 137.833 80.3531C137.783 80.3416 137.733 80.3338 137.679 80.3261ZM138.172 80.384C138.215 80.3878 138.257 80.3955 138.296 80.3955C138.253 80.3955 138.215 80.3878 138.172 80.384ZM138.654 80.4148C138.689 80.4148 138.724 80.4187 138.759 80.4187C138.724 80.4225 138.689 80.4187 138.654 80.4148ZM139.136 80.4225C139.163 80.4225 139.19 80.4225 139.217 80.4225C139.19 80.4225 139.163 80.4187 139.136 80.4225ZM139.615 80.3994C139.634 80.3994 139.653 80.3955 139.676 80.3955C139.657 80.3955 139.638 80.3955 139.615 80.3994ZM140.093 80.3493C140.108 80.3493 140.12 80.3454 140.135 80.3454C140.12 80.3493 140.108 80.3493 140.093 80.3493ZM140.567 80.2799C140.575 80.2799 140.582 80.276 140.59 80.276C140.582 80.276 140.575 80.276 140.567 80.2799ZM141.034 80.1873C141.037 80.1873 141.045 80.1835 141.049 80.1835C141.045 80.1835 141.037 80.1835 141.034 80.1873ZM141.5 80.0678H141.504C141.5 80.0678 141.5 80.0678 141.5 80.0678Z" fill="#BFD22B"/>
<path d="M149.593 74.6381C147.623 76.7821 145.302 78.6061 142.857 79.6048C140.52 80.9737 137.84 81.3054 134.77 79.6974C131.18 77.7384 129.8 73.0147 131.099 69.0352C129.461 69.1161 127.837 69.3398 126.248 69.7215C123.869 81.1974 117.402 90.1783 109.301 98.7351C109.119 99.1554 108.664 100.466 108.483 100.887C108.479 100.895 108.472 100.906 108.468 100.918L101.727 116.481C101.696 116.554 101.696 116.643 101.727 116.716C101.762 116.79 101.824 116.847 101.905 116.87L135.927 127.714C135.95 127.722 135.974 127.722 135.997 127.725C136.004 127.725 136.008 127.729 136.016 127.729C136.051 127.729 136.082 127.722 136.112 127.71C136.124 127.706 136.132 127.699 136.143 127.695C136.163 127.683 136.182 127.672 136.201 127.656C136.209 127.648 136.216 127.641 136.228 127.629C136.243 127.61 136.259 127.591 136.27 127.571C136.274 127.564 136.282 127.56 136.286 127.552C139.066 121.155 141.924 114.761 144.781 108.553C146.011 105.881 147.16 103.416 148.275 101.049C148.302 92.7851 148.749 84.0664 152.027 76.7281C151.267 75.9839 150.449 75.2859 149.593 74.6381Z" fill="#002544"/>
<path d="M185.425 106.289C181.577 105.294 177.732 104.291 173.888 103.285C170.452 102.383 167.024 101.477 163.592 100.563C162.524 96.7065 161.147 92.9082 159.481 89.2449C156.574 82.8398 155.116 79.6238 152.081 76.5813C152.062 76.562 152.043 76.5466 152.023 76.5273C148.746 83.8656 148.295 92.5843 148.271 100.848C148.356 100.671 148.437 100.493 148.522 100.32C149.143 101.156 150.014 102.795 150.932 104.519C152.428 107.334 154.129 110.523 155.614 112.015C155.733 112.135 155.845 112.235 155.957 112.332C158.178 114.252 172.291 116.731 181.627 118.374C182.61 118.548 183.52 118.706 184.342 118.852C184.423 118.868 184.508 118.845 184.573 118.794C184.639 118.744 184.677 118.667 184.681 118.582C184.801 116.307 184.963 113.978 185.159 111.668C185.286 110.103 185.445 108.445 185.637 106.597C185.653 106.459 185.564 106.324 185.425 106.289Z" fill="#BFD22B"/>
</g>
<path d="M137.856 206.895C137.384 211.121 136.911 215.347 136.435 219.573C138.976 219.507 141.54 219.456 144.127 219.414C146.095 219.383 148.384 219.356 151.96 219.332C155.682 219.305 160.88 219.286 167.349 219.305C166.888 217.175 165.835 214.072 163.123 212.31C161.736 211.407 160.59 211.407 157.878 210.691C154.795 209.869 152.347 208.87 150.685 208.099C150.716 207.801 150.743 207.503 150.778 207.204L137.856 206.895Z" fill="#002544"/>
<path d="M71.9826 199.992C71.0453 201.937 70.1117 203.889 69.1782 205.857C68.419 207.464 67.6675 209.064 66.9238 210.656C69.7786 211.977 72.6683 213.348 75.5889 214.766C78.6102 216.23 81.5657 217.702 84.4631 219.178C88.449 219.197 92.431 219.216 96.4168 219.24C96.3084 217.109 95.7971 214.258 93.7015 212.577C92.3264 211.469 91.0288 211.497 88.8673 210.799C86.8841 210.156 82.0383 205.005 82.4295 204.296L71.9826 199.992Z" fill="#002544"/>
<path d="M140.92 62.7154C140.846 62.7154 140.765 62.7115 140.676 62.7037C140.467 62.6882 140.261 62.6456 140.056 62.5875C138.402 62.0956 137.457 60.3525 137.945 58.7024C138.417 57.1026 140.056 56.1575 141.675 56.5526C141.714 56.5603 141.768 56.5758 141.822 56.5874C142.283 56.7114 142.593 56.9244 142.725 57.0174C143.07 57.2576 143.376 57.5829 143.612 57.9587C143.697 58.0942 143.654 58.2724 143.519 58.3576C143.383 58.4429 143.205 58.4002 143.12 58.2647C142.926 57.9548 142.678 57.6914 142.396 57.4938C142.287 57.4202 142.035 57.2459 141.675 57.1491C141.636 57.1375 141.594 57.1259 141.555 57.1181C140.226 56.7927 138.894 57.5636 138.507 58.8651C138.313 59.5158 138.386 60.2053 138.708 60.8018C139.033 61.3984 139.572 61.8322 140.223 62.0297C140.385 62.0801 140.556 62.1111 140.722 62.1227C140.912 62.1382 141.063 62.1266 141.152 62.1188C141.261 62.1111 141.35 62.0995 141.419 62.0878C141.574 62.0607 141.725 62.1692 141.753 62.328C141.78 62.4868 141.671 62.634 141.512 62.6611C141.431 62.6727 141.326 62.6882 141.199 62.6999C141.137 62.7076 141.04 62.7154 140.92 62.7154Z" fill="#002544"/>
<path d="M148.826 52.81L141.865 53.5499L141.613 56.8346C140.153 56.4783 138.662 57.3266 138.232 58.783C137.786 60.2859 138.642 61.8586 140.145 62.3079C140.494 62.4125 140.842 62.4435 141.183 62.4125L140.951 65.4532H136.152C136.318 64.9652 136.485 64.481 136.655 63.9929H136.651C136.035 63.0516 135.09 61.3047 135.024 59.0193C134.904 54.987 137.531 49.8894 141.931 49.351C144.743 49.0024 147.152 50.668 148.826 52.81Z" fill="#002544"/>
<path d="M143.647 71.4887C143.627 71.4887 143.604 71.4848 143.581 71.4809C143.426 71.446 143.325 71.2911 143.36 71.1323L143.728 69.517C143.763 69.3621 143.914 69.2653 144.069 69.2962C144.363 69.3543 144.673 69.3853 144.987 69.3892C145.378 69.3931 145.746 69.3427 146.103 69.2459C147.458 68.8702 148.725 67.712 149.674 65.9921C151.169 63.2729 151.556 59.8139 150.693 56.9591C150.282 55.6033 149.538 54.1895 148.593 52.981C147.489 51.5594 145.157 49.2392 141.966 49.6343C138.631 50.0448 135.16 53.9067 135.311 59.0043C135.361 60.6428 135.9 62.3007 136.872 63.7958C136.876 63.8036 136.884 63.8113 136.887 63.8152C136.942 63.8927 136.957 63.9895 136.926 64.0786C136.756 64.5667 136.589 65.0509 136.423 65.5351L135.063 69.4706C135.009 69.6216 134.846 69.703 134.695 69.6487C134.544 69.5984 134.463 69.4318 134.517 69.2808L135.876 65.3453C136.024 64.9075 136.179 64.466 136.334 64.0244C135.338 62.4595 134.784 60.7319 134.734 59.0159C134.672 56.9126 135.346 54.5536 136.539 52.706C137.895 50.6065 139.796 49.3089 141.896 49.0494C145.37 48.6194 147.869 51.0984 149.05 52.6169C150.038 53.8796 150.817 55.3593 151.247 56.7848C152.157 59.7829 151.75 63.4124 150.181 66.2633C149.159 68.1226 147.764 69.3776 146.257 69.7959C145.847 69.9083 145.429 69.9586 144.983 69.9586C144.731 69.9547 144.48 69.9392 144.236 69.9005L143.929 71.2446C143.899 71.3996 143.778 71.4887 143.647 71.4887Z" fill="#002544"/>
<path d="M143.797 70.5244C143.213 70.2765 142.213 69.7614 141.307 68.7465C140.637 67.995 140.261 67.2397 140.048 66.7129C140.54 67.2978 141.33 68.0764 142.484 68.7078C143.058 69.0215 143.6 69.2307 144.072 69.374C144.041 69.5289 144.01 69.6878 143.972 69.8504C143.917 70.0867 143.859 70.3114 143.797 70.5244Z" fill="#002544"/>
<path d="M79.1183 141.771C78.9982 141.771 78.8937 141.752 78.7968 141.724C78.6574 141.686 78.3165 141.554 78.0918 141.225C77.5883 140.493 77.9873 139.214 79.0641 138.122C79.1764 138.006 79.3624 138.006 79.4747 138.118C79.5909 138.231 79.5909 138.413 79.4786 138.529C78.5102 139.513 78.2894 140.485 78.5722 140.896C78.7 141.078 78.9169 141.151 78.9595 141.163C79.099 141.202 79.5289 141.326 80.9389 140.082C81.853 139.276 82.4496 138.533 82.6471 138.289C83.3753 137.386 84.0687 136.422 84.7194 135.426C84.8085 135.291 84.9867 135.252 85.1223 135.341C85.2579 135.43 85.2966 135.608 85.2075 135.744C84.549 136.759 83.8401 137.739 83.1003 138.657C82.895 138.908 82.2752 139.683 81.3224 140.524C80.1874 141.523 79.5483 141.771 79.1183 141.771Z" fill="#002544"/>
<path d="M83.9719 143.807C83.3134 143.807 82.9842 143.493 82.9455 143.455C82.3877 142.889 82.6549 141.971 83.0578 140.58L83.1972 140.1C83.5342 138.911 83.8402 137.66 84.1075 136.382C84.1385 136.223 84.2934 136.122 84.4523 136.157C84.6111 136.192 84.7118 136.343 84.6769 136.502C84.4058 137.795 84.0998 139.058 83.7589 140.263L83.6195 140.747C83.2863 141.897 83.0423 142.73 83.3638 143.052C83.3677 143.056 83.604 143.269 84.1114 143.226C84.4058 143.199 85.5175 142.525 87.4349 134.921C87.4504 134.859 87.4659 134.793 87.4852 134.724L87.5472 134.472C87.6014 134.247 87.6595 134.011 87.7176 133.771L87.7486 133.639C87.7641 133.573 87.7796 133.507 87.7951 133.438C87.7951 133.43 87.799 133.422 87.799 133.414C87.9927 132.601 88.1941 131.722 88.4033 130.777C88.4381 130.622 88.5931 130.521 88.748 130.556C88.9029 130.591 89.0036 130.746 88.9688 130.9C88.7596 131.842 88.5582 132.721 88.3645 133.534C88.3645 133.538 88.3645 133.546 88.3606 133.55C88.3451 133.627 88.3258 133.701 88.3064 133.775L88.2754 133.902C88.2173 134.143 88.1592 134.379 88.105 134.607L88.043 134.863C88.0236 134.933 88.0082 134.991 87.9965 135.053C86.052 142.761 84.8745 143.737 84.1579 143.799C84.0959 143.803 84.0339 143.807 83.9719 143.807Z" fill="#002544"/>
<path d="M77.5223 139.237C77.2628 139.237 77.042 139.175 76.8522 139.055C76.767 139.004 76.3176 138.702 76.2092 138.171C76.0349 137.265 76.9645 136.494 77.8632 135.75L78.0026 135.634C78.7425 135.022 79.4436 134.426 80.0246 133.918C79.8658 134.007 79.6954 134.104 79.521 134.201C76.4803 135.882 75.632 135.987 75.1401 135.599C74.8651 135.386 74.7101 135.03 74.6946 134.569C74.6753 133.527 75.5894 132.911 78.022 131.261L78.115 131.199C78.4868 130.947 79.3816 130.343 80.6792 129.464C80.7373 128.507 80.9814 127.113 81.7871 125.679C82.0505 125.214 82.3603 124.773 82.7051 124.366C82.8019 124.254 82.8988 124.142 82.9995 124.033C83.1079 123.917 83.2939 123.909 83.4101 124.021C83.5263 124.13 83.534 124.316 83.4217 124.432C83.3287 124.529 83.2358 124.633 83.1467 124.742C82.8213 125.125 82.5424 125.524 82.2906 125.962C81.5004 127.372 81.2874 128.736 81.2486 129.634C81.2448 129.727 81.1983 129.812 81.1208 129.863C79.7573 130.785 78.8199 131.424 78.4365 131.679L78.3435 131.741C76.1627 133.217 75.2602 133.829 75.2718 134.546C75.2795 134.825 75.3609 135.034 75.4926 135.138C75.8063 135.382 77.0304 134.91 79.2383 133.69C79.8193 133.368 80.3229 133.078 80.7141 132.849C81.7328 132.257 81.8916 132.167 82.0659 132.442C82.2286 132.667 82.3293 132.81 78.3706 136.08L78.2312 136.196C77.4991 136.804 76.6663 137.494 76.7747 138.055C76.8367 138.361 77.1466 138.555 77.1582 138.563C77.4952 138.78 78.1886 138.601 79.1221 138.071C80.7218 137.157 82.6586 135.41 83.6735 134.449C83.7897 134.337 83.9717 134.344 84.0841 134.461C84.1964 134.577 84.1886 134.763 84.0724 134.871C83.0421 135.851 81.0666 137.633 79.4087 138.578C78.6418 139.016 78.0142 139.237 77.5223 139.237Z" fill="#002544"/>
<path d="M89.4218 136.006C89.2397 136.006 89.0538 135.971 88.8873 135.898C88.5154 135.739 88.2481 135.414 88.0622 134.906C88.0196 134.79 87.977 134.654 87.946 134.503C87.8956 134.287 87.853 134.039 87.822 133.76L87.7949 133.516C87.7949 133.353 87.9227 133.206 88.0854 133.206C88.2443 133.206 88.376 133.318 88.376 133.477L88.3992 133.69C88.4302 133.942 88.4689 134.174 88.5115 134.368C88.5386 134.484 88.5696 134.6 88.6084 134.701C88.7362 135.053 88.9027 135.267 89.1197 135.359C89.325 135.449 89.5845 135.441 89.7704 135.336C90.4483 134.968 90.3243 133.322 90.243 132.234C90.2236 131.962 90.2043 131.718 90.1849 131.459C90.1655 131.219 90.15 130.963 90.1307 130.696L90.0919 130.142C90.0726 129.855 90.0493 129.557 90.0299 129.239C90.0106 128.937 89.9873 128.62 89.968 128.29C89.9563 128.131 90.0803 127.992 90.2391 127.98C90.4057 127.961 90.5374 128.093 90.549 128.252C90.5684 128.581 90.5916 128.895 90.611 129.197C90.6303 129.51 90.6536 129.813 90.6729 130.099L90.7117 130.653C90.7311 130.917 90.7465 131.172 90.7659 131.412C90.7853 131.672 90.8008 131.916 90.8201 132.152C90.9209 133.496 91.0564 135.294 90.0532 135.844C89.8634 135.952 89.6426 136.006 89.4218 136.006Z" fill="#002544"/>
<path d="M90.4172 130.68C89.9601 130.304 89.472 129.909 88.9762 129.502C86.9659 127.864 84.7308 126.036 82.9258 124.556C83.0187 124.444 83.1156 124.335 83.2124 124.234C84.5062 125.009 86.2764 126.032 87.9188 126.961C87.9885 127 88.0543 127.039 88.124 127.074C88.1318 127.081 88.1395 127.081 88.1434 127.085C88.5579 127.322 88.9569 127.546 89.3365 127.759V127.763C89.6618 127.941 89.9678 128.112 90.2545 128.274C90.2739 128.604 90.2971 128.917 90.3165 129.223C90.3358 129.537 90.3591 129.839 90.3784 130.126C90.3901 130.316 90.4056 130.498 90.4172 130.68Z" fill="#002544"/>
<path d="M151.878 207.536C151.874 207.536 151.87 207.536 151.87 207.536C148.594 207.431 145.243 207.342 141.912 207.269C138.453 207.191 134.943 207.129 131.484 207.087C131.395 207.087 131.31 207.044 131.256 206.974C131.201 206.905 131.182 206.812 131.205 206.727L144.511 155.453C138.282 152.443 131.872 149.615 125.453 147.043C119.004 144.46 112.384 142.074 105.772 139.947C105.621 139.897 105.535 139.734 105.586 139.583C105.636 139.432 105.799 139.347 105.95 139.397C112.574 141.527 119.209 143.921 125.67 146.509C132.174 149.112 138.67 151.982 144.98 155.038C145.103 155.1 145.169 155.24 145.134 155.371L131.86 206.517C135.199 206.56 138.584 206.622 141.923 206.696C145.177 206.769 148.45 206.854 151.654 206.955C158.049 181.343 162.112 163.266 163.65 155.55C163.925 154.167 164.572 150.928 163.328 147.396C162.166 144.088 159.753 141.667 153.401 137.437C148.198 133.974 142.644 130.806 136.88 128.028C136.737 127.958 136.675 127.784 136.744 127.641C136.814 127.498 136.988 127.436 137.132 127.505C142.919 130.294 148.501 133.474 153.722 136.953C160.195 141.264 162.662 143.755 163.875 147.202C165.168 150.886 164.502 154.233 164.219 155.662C162.678 163.405 158.591 181.583 152.161 207.323C152.13 207.447 152.01 207.536 151.878 207.536Z" fill="#002544"/>
<path d="M85.3929 205.703C85.358 205.703 85.3271 205.699 85.2922 205.684C82.1508 204.526 79.0016 203.29 75.9338 202.004C72.6761 200.64 69.3875 199.176 66.1686 197.65C66.0989 197.615 66.0447 197.557 66.0176 197.484C65.9904 197.41 65.9982 197.329 66.0292 197.259L105.14 117.553C105.21 117.41 105.384 117.348 105.527 117.422C105.671 117.491 105.733 117.666 105.659 117.809L66.6838 197.255C69.8097 198.731 72.9976 200.149 76.1584 201.469C79.1372 202.717 82.1934 203.921 85.2496 205.049L115.405 143.181C115.475 143.037 115.649 142.975 115.792 143.045C115.936 143.115 115.998 143.289 115.928 143.432L85.6563 205.541C85.606 205.641 85.5014 205.703 85.3929 205.703Z" fill="#002544"/>
<path d="M78.8741 203.19C78.8315 203.19 78.7889 203.182 78.7463 203.159C78.603 203.089 78.541 202.915 78.6107 202.772L108.619 140.834C108.689 140.691 108.863 140.629 109.006 140.699C109.15 140.768 109.212 140.943 109.142 141.086L79.1337 203.024C79.0833 203.128 78.9826 203.19 78.8741 203.19Z" fill="#002544"/>
<path d="M143.93 207.315C143.771 207.315 143.64 207.187 143.64 207.024V207.02C143.64 206.997 143.643 206.978 143.647 206.954C147.304 191.023 150.585 175.102 153.145 160.914C153.773 157.428 154.555 153.093 152.204 149.363C150.554 146.748 148.241 145.815 137.12 141.325C135.335 140.605 133.324 139.795 131.058 138.87C125.593 136.642 122.2 134.771 121.022 131.793C120.46 130.371 120.313 128.779 121.15 124.437C121.251 123.933 121.359 123.399 121.479 122.833C121.514 122.678 121.665 122.578 121.824 122.612C121.979 122.647 122.079 122.802 122.045 122.957C121.925 123.515 121.816 124.046 121.719 124.549C120.914 128.748 121.041 130.259 121.564 131.58C122.664 134.369 125.961 136.166 131.279 138.331C133.545 139.253 135.555 140.066 137.341 140.787C148.605 145.334 150.949 146.28 152.7 149.053C155.171 152.973 154.334 157.621 153.722 161.018C151.162 175.215 147.877 191.143 144.221 207.082C144.186 207.214 144.069 207.315 143.93 207.315Z" fill="#002544"/>
<path d="M233.891 49.5047L227.833 14.4609L173.735 23.9511L179.65 65.7851L220.601 61.4041" stroke="#002544" stroke-width="0.7"/>
<path d="M173.735 24.0299L201.501 40L227.501 14.5" stroke="#002544" stroke-width="0.7"/>
<path d="M151.123 56.8984C150.48 56.9759 148.922 57.5027 148.585 58.7151C148.248 59.9275 149.159 62.8482 150.263 64.2969C149.767 64.2155 149.046 64.231 147.834 63.007" stroke="#002544" stroke-width="0.6" stroke-linecap="round"/>
<path d="M146.977 58.0953C146.393 57.6963 144.948 57.2393 143.852 58.5989" stroke="#002544" stroke-width="0.6" stroke-linecap="round"/>
<path d="M147.133 59.8584C146.61 59.3316 145.297 58.6653 144.247 60.2031" stroke="#002544" stroke-width="0.6" stroke-linecap="round"/>
<path d="M151.575 59.4736C151.048 58.9468 149.739 58.2806 148.689 59.8183" stroke="#002544" stroke-width="0.6" stroke-linecap="round"/>
<path d="M145.683 60.5505C146.011 60.5505 146.276 60.2852 146.276 59.9579C146.276 59.6306 146.011 59.3652 145.683 59.3652C145.356 59.3652 145.091 59.6306 145.091 59.9579C145.091 60.2852 145.356 60.5505 145.683 60.5505Z" stroke="#002544" stroke-width="0.6" stroke-linecap="round"/>
<path d="M150.127 60.1638C150.454 60.1638 150.719 59.8985 150.719 59.5712C150.719 59.2439 150.454 58.9785 150.127 58.9785C149.8 58.9785 149.534 59.2439 149.534 59.5712C149.534 59.8985 149.8 60.1638 150.127 60.1638Z" stroke="#002544" stroke-width="0.6" stroke-linecap="round"/>
<path d="M234.949 124.826L265.736 119.911C269.195 119.361 271.585 116.157 271.131 112.687L263.586 54.8977C263.164 51.675 260.421 49.2656 257.171 49.2656H226.741C222.875 49.2656 219.873 52.6317 220.315 56.4704L227.504 119.171C227.922 122.835 231.312 125.407 234.949 124.826Z" stroke="#002544" stroke-width="0.7"/>
<path d="M228.743 49.2656C224.877 49.2656 221.875 52.6317 222.317 56.4704L229.506 119.171C229.924 122.832 233.314 125.404 236.955 124.823" stroke="#002544" stroke-width="0.7"/>
<path d="M233.136 49.2656L233.732 54.6033C233.845 55.5988 234.705 56.3348 235.7 56.2999L252.453 55.6686C253.092 55.6453 253.565 55.0643 253.46 54.4368L252.596 49.2656H233.136Z" fill="#002544"/>
<path d="M147.256 66.5531C147.521 65.6722 147.377 64.8502 146.935 64.7171C146.492 64.5839 145.919 65.1901 145.654 66.071C145.389 66.9519 145.533 67.7739 145.975 67.9071C146.418 68.0402 146.991 67.434 147.256 66.5531Z" stroke="#002544" stroke-width="0.6"/>
<path d="M202.69 50.7611C203.752 49.5293 206.463 47.8986 208.83 51.2298" stroke="#002544" stroke-width="0.774704" stroke-linecap="round"/>
<path d="M253.019 87.1549C251.842 86.0355 248.983 84.6797 246.957 88.2279" stroke="#002544" stroke-width="0.774704" stroke-linecap="round"/>
<path d="M187.75 43.9313C188.304 44.3729 189.71 44.9345 190.907 43.6602" stroke="#002544" stroke-width="0.774704" stroke-linecap="round"/>
<path d="M216.782 40.8668C217.367 41.2658 218.812 41.7229 219.908 40.3633" stroke="#002544" stroke-width="0.774704" stroke-linecap="round"/>
<path d="M240.178 79.2184C240.763 79.6174 242.207 80.0744 243.304 78.7148" stroke="#002544" stroke-width="0.774704" stroke-linecap="round"/>
<path d="M253.019 78.3082C253.603 78.7072 255.048 79.1643 256.144 77.8047" stroke="#002544" stroke-width="0.774704" stroke-linecap="round"/>
<path d="M263.886 28.3386C263.757 28.3386 263.639 28.2631 263.585 28.1379L261.583 23.4578L257.98 27.3579C257.865 27.4814 257.683 27.5001 257.546 27.4026C257.409 27.3051 257.367 27.1263 257.446 26.9776L259.821 22.5266L256.226 21.32C256.074 21.2688 255.983 21.1226 256.004 20.9641C256.025 20.8057 256.151 20.6879 256.31 20.6773L259.607 20.4709L258.687 18.4941C258.622 18.3543 258.661 18.191 258.782 18.0951C258.902 18.0001 259.071 18.0001 259.191 18.0951L260.976 19.5089L261.932 14.2706C261.961 14.1113 262.094 14 262.256 14C262.256 14 262.256 14 262.257 14C262.419 14 262.552 14.1113 262.582 14.2698L263.616 19.8567L267.66 18.1764C267.815 18.1122 267.988 18.1707 268.072 18.3145C268.157 18.4583 268.123 18.6379 267.991 18.7411L264.213 21.7068L267.349 23.2498C267.499 23.3237 267.569 23.4919 267.516 23.6504C267.464 23.8088 267.307 23.9014 267.143 23.8705L263.405 23.1734L264.212 27.9519C264.24 28.1192 264.142 28.2761 263.98 28.324C263.95 28.3337 263.918 28.3386 263.886 28.3386ZM261.607 22.9898C261.626 22.9898 261.644 22.9914 261.664 22.9946C261.774 23.0141 261.867 23.0873 261.911 23.1905L263.707 27.3904L262.988 23.1344C262.97 23.028 263.005 22.9199 263.083 22.8443C263.159 22.7688 263.269 22.7355 263.374 22.755L266.674 23.37L263.926 22.0188C263.824 21.9684 263.755 21.8701 263.743 21.7572C263.731 21.6434 263.778 21.5337 263.867 21.463L267.304 18.7663L263.686 20.2694C263.594 20.3076 263.49 20.3028 263.402 20.2548C263.313 20.2069 263.253 20.1232 263.234 20.0249L262.259 14.7524L261.355 19.708C261.334 19.8234 261.256 19.9168 261.147 19.9574C261.038 19.9981 260.917 19.9802 260.825 19.9071L259.192 18.6135L260.024 20.4003C260.07 20.4994 260.065 20.6148 260.009 20.7082C259.953 20.8025 259.854 20.8626 259.745 20.8691L256.725 21.0584L260.036 22.1699C260.129 22.2008 260.202 22.2707 260.238 22.3609C260.274 22.4511 260.268 22.5526 260.222 22.6379L258.083 26.6461L261.364 23.0946C261.428 23.0271 261.516 22.9898 261.607 22.9898Z" fill="#BFD22B"/>
<path d="M205.612 142.364C205.725 142.302 205.792 142.179 205.779 142.043L205.281 136.977L210.317 138.662C210.477 138.715 210.646 138.643 210.719 138.492C210.792 138.34 210.743 138.164 210.602 138.071L206.378 135.313L208.948 132.525C209.057 132.407 209.066 132.235 208.972 132.106C208.877 131.977 208.71 131.935 208.566 132.002L205.576 133.408L205.432 131.232C205.421 131.078 205.309 130.954 205.156 130.928C205.005 130.903 204.857 130.984 204.797 131.125L203.913 133.224L200.554 129.092C200.452 128.966 200.282 128.933 200.14 129.01C200.14 129.01 200.14 129.01 200.139 129.011C199.997 129.089 199.934 129.25 199.984 129.404L201.767 134.798L197.413 135.272C197.247 135.29 197.123 135.425 197.118 135.592C197.113 135.758 197.23 135.899 197.395 135.926L202.134 136.708L200.127 139.57C200.032 139.706 200.051 139.888 200.173 140.001C200.296 140.115 200.478 140.12 200.607 140.014L203.548 137.605L205.14 142.181C205.196 142.342 205.357 142.432 205.523 142.396C205.553 142.39 205.584 142.379 205.612 142.364ZM205.036 136.578C205.019 136.587 205.004 136.598 204.988 136.61C204.901 136.68 204.855 136.789 204.866 136.9L205.312 141.447L203.894 137.37C203.859 137.268 203.776 137.19 203.672 137.161C203.569 137.131 203.457 137.155 203.373 137.223L200.777 139.35L202.535 136.843C202.601 136.75 202.614 136.631 202.57 136.526C202.526 136.42 202.432 136.347 202.319 136.328L198.009 135.618L201.904 135.194C202.003 135.183 202.091 135.129 202.146 135.045C202.2 134.96 202.213 134.858 202.182 134.762L200.499 129.672L203.677 133.58C203.751 133.671 203.864 133.716 203.979 133.699C204.094 133.682 204.192 133.608 204.237 133.5L205.046 131.58L205.177 133.547C205.184 133.656 205.244 133.754 205.338 133.809C205.433 133.865 205.548 133.87 205.647 133.823L208.386 132.535L206.018 135.104C205.951 135.175 205.921 135.272 205.933 135.368C205.945 135.464 205.999 135.551 206.08 135.603L209.884 138.087L205.299 136.553C205.21 136.525 205.115 136.534 205.036 136.578Z" fill="#BFD22B"/>
<defs>
<clipPath id="clip0">
<rect width="104.64" height="60.1942" fill="white" transform="translate(81.001 69)"/>
</clipPath>
</defs>
</svg>
