<svg width="251" height="128" viewBox="0 0 251 128" fill="none" xmlns="http://www.w3.org/2000/svg">
<path d="M124.765 96.9861C134.13 96.9861 143.491 97.0174 152.855 96.9782C160.172 96.9469 164.103 90.1347 160.498 83.8044C159.204 81.5363 157.872 79.2877 156.563 77.0314C148.672 63.4188 140.786 49.8062 132.896 36.1975C132.074 34.7834 131.221 33.4006 129.794 32.4722C125.646 29.7692 120.358 30.8622 117.858 35.1438C108.344 51.4358 98.8535 67.7435 89.4496 84.0982C85.9192 90.2405 89.9489 96.9547 97.0726 96.9861C106.3 97.0174 115.534 96.9861 124.765 96.9861Z" fill="#EFA7B1" stroke="#25272A" stroke-linejoin="round"/>
<path d="M181.993 59.631L194.693 52.0301" stroke="#BBC6D2" stroke-width="1.5" stroke-linecap="round"/>
<path d="M184.215 65.8732L204.473 60.8471" stroke="#BBC6D2" stroke-width="1.5" stroke-linecap="round"/>
<path d="M185.24 72.9531L195.999 75.2423" stroke="#BBC6D2" stroke-width="1.5" stroke-linecap="round"/>
<path d="M64.6169 40.0279L77.1881 49.056" stroke="#BBC6D2" stroke-width="1.5" stroke-linecap="round"/>
<path d="M54.6609 47.8418L73.9256 56.2007" stroke="#BBC6D2" stroke-width="1.5" stroke-linecap="round"/>
<path d="M56.5222 61.1387L72.0485 62.9928" stroke="#BBC6D2" stroke-width="1.5" stroke-linecap="round"/>
<path d="M120.2 55.713C120.283 54.5043 119.798 53.237 120.155 51.923C120.835 49.4352 123.108 47.7624 125.572 48.0276C128.153 48.3044 130.086 50.2346 129.978 52.8471C129.692 59.7176 129.306 66.5842 128.845 73.443C128.696 75.689 127.049 77.0382 124.987 76.9992C123.025 76.9602 121.461 75.65 121.295 73.4703C120.847 67.5863 120.557 61.6867 120.2 55.713Z" fill="white" stroke="#25272A" stroke-linejoin="round"/>
<path d="M129.982 85.0816C129.978 87.6889 127.648 90 125.017 90C122.293 90 119.993 87.6472 120.022 84.8938C120.052 82.2156 122.264 80.0338 124.983 80.0005C127.724 79.9629 129.982 82.2573 129.982 85.0816Z" fill="white" stroke="#25272A" stroke-linejoin="round"/>
<path fill-rule="evenodd" clip-rule="evenodd" d="M96.1495 19.2989C96.5081 19.2989 96.7989 19.0081 96.7989 18.6495C96.7989 18.2908 96.5081 18 96.1495 18C95.7908 18 95.5 18.2908 95.5 18.6495C95.5 19.0081 95.7908 19.2989 96.1495 19.2989Z" stroke="#25272A" stroke-width="1.5"/>
<path fill-rule="evenodd" clip-rule="evenodd" d="M186.149 108.299C186.508 108.299 186.799 108.008 186.799 107.649C186.799 107.291 186.508 107 186.149 107C185.791 107 185.5 107.291 185.5 107.649C185.5 108.008 185.791 108.299 186.149 108.299Z" stroke="#25272A" stroke-width="1.5"/>
<path d="M161.129 15L157.5 17.5279" stroke="#25272A" stroke-width="1.5" stroke-linecap="round"/>
<path d="M62.5 98L64.9061 101.711" stroke="#25272A" stroke-width="1.5" stroke-linecap="round"/>
</svg>
