<svg width="335" height="228" viewBox="0 0 335 228" fill="none" xmlns="http://www.w3.org/2000/svg">
<g clip-path="url(#clip0)">
<path d="M243.703 73.4067C243.315 73.4067 243 73.0908 243 72.7033C243 72.3159 243.316 72 243.703 72C244.091 72 244.406 72.3159 244.406 72.7033C244.406 73.0908 244.091 73.4067 243.703 73.4067ZM243.703 72.6031C243.648 72.6031 243.603 72.6483 243.603 72.7033C243.603 72.7584 243.648 72.8036 243.703 72.8036C243.758 72.8036 243.803 72.7584 243.803 72.7033C243.803 72.6483 243.758 72.6031 243.703 72.6031Z" fill="#25272A"/>
<path d="M222.732 179.107C222.637 179.107 222.543 179.061 222.484 178.978C222.389 178.841 222.422 178.653 222.56 178.558L224.805 176.994C224.941 176.899 225.13 176.932 225.225 177.069C225.32 177.205 225.286 177.394 225.149 177.489L222.904 179.053C222.852 179.089 222.792 179.107 222.732 179.107Z" fill="#25272A"/>
<path d="M262.103 208.066H72.2649C72.0983 208.066 71.9634 207.931 71.9634 207.764C71.9634 207.598 72.0983 207.463 72.2649 207.463H262.103C262.269 207.463 262.404 207.598 262.404 207.764C262.404 207.931 262.269 208.066 262.103 208.066Z" fill="#25272A"/>
<path d="M188.176 207.508C190.322 207.508 192.062 205.769 192.062 203.622C192.062 201.476 190.322 199.736 188.176 199.736C186.03 199.736 184.29 201.476 184.29 203.622C184.29 205.769 186.03 207.508 188.176 207.508Z" fill="#25272A"/>
<path d="M132.193 207.508C134.339 207.508 136.079 205.769 136.079 203.622C136.079 201.476 134.339 199.736 132.193 199.736C130.047 199.736 128.307 201.476 128.307 203.622C128.307 205.769 130.047 207.508 132.193 207.508Z" fill="#25272A"/>
<path d="M228.935 156.833L228.636 156.739L196.193 146.626C190.403 144.638 178.249 138.007 173.692 127.144C172.255 124.18 168.993 111.936 167.468 105.87C167.427 105.709 167.525 105.545 167.687 105.505C167.848 105.464 168.012 105.562 168.052 105.723C169.573 111.773 172.824 123.982 174.238 126.888L174.245 126.903C178.716 137.571 190.68 144.094 196.385 146.054L228.516 156.07L235.261 131.144L200.254 122.566L189.795 86.5612C189.748 86.4013 189.84 86.234 190 86.1872C190.16 86.1405 190.327 86.2325 190.374 86.3923L200.736 122.063L236.005 130.704L228.935 156.833ZM186.283 77.1494C186.154 77.1494 186.034 77.0657 185.995 76.936L184.959 73.549L171.344 76.5478C171.181 76.584 171.021 76.4807 170.985 76.3179C170.948 76.155 171.052 75.9945 171.215 75.9583L184.782 72.97L184.592 72.3473C184.543 72.1883 184.632 72.0194 184.791 71.9704C184.95 71.9214 185.119 72.0111 185.168 72.1702L185.454 73.1027C185.455 73.1042 185.455 73.1057 185.456 73.108L186.573 76.7589C186.622 76.9179 186.532 77.0868 186.372 77.1358C186.342 77.1456 186.313 77.1494 186.283 77.1494Z" fill="#25272A"/>
<path d="M169.572 113.851L155.918 172.213L156.505 172.35L170.159 113.988L169.572 113.851Z" fill="#25272A"/>
<path d="M234.724 133.926L194.061 125.235L194.027 125.032L187.878 87.7093L188.473 87.6113L194.589 124.731L234.85 133.337L234.724 133.926Z" fill="#25272A"/>
<path d="M173.652 174.624L147.529 171.525L147.543 171.244L151.32 96.8173C151.328 96.6507 151.47 96.524 151.636 96.5316C151.803 96.5399 151.93 96.6816 151.922 96.8482L148.16 170.994L173.06 173.948L173.811 127.582C173.815 127.415 173.951 127.284 174.118 127.285C174.284 127.288 174.417 127.425 174.414 127.591L173.652 174.624Z" fill="#25272A"/>
<path d="M170.759 25.8653C173.844 28.4608 173.436 33.8893 172.846 36.279C171.83 36.279 171.303 36.5963 171.168 36.7554C171.871 34.5097 172.529 31.333 170.464 31.5825C165.999 32.0906 163.635 31.1747 163.144 30.6605C163.408 29.6655 166.902 22.6207 170.759 25.8653Z" fill="#25272A"/>
<path d="M172.548 31.7274C172.51 31.7274 172.471 31.7199 172.433 31.7048C171.931 31.5254 164.387 30.5635 157.188 29.7048C157.023 29.6852 156.905 29.5352 156.924 29.3694C156.944 29.2035 157.095 29.0867 157.26 29.1055C158.767 29.2849 172.005 30.8703 172.665 31.1477C172.819 31.2125 172.89 31.3889 172.825 31.5427C172.777 31.658 172.666 31.7274 172.548 31.7274Z" fill="#25272A"/>
<path d="M167.067 43.4556C166.308 43.4556 165.494 43.2437 164.738 42.6474C164.396 42.3866 164.09 42.0534 163.836 41.6607L163.829 41.6486C161.51 37.6728 162.4 32.6326 163.195 30.5233C163.254 30.3673 163.428 30.2889 163.583 30.3477C163.739 30.4065 163.817 30.5806 163.759 30.7359C163 32.7517 162.145 37.5597 164.346 41.3388C164.561 41.6705 164.818 41.9509 165.107 42.1703C166.662 43.396 168.523 42.7017 169.29 42.1635C169.775 41.8393 170.321 41.2996 170.719 40.7523C170.984 40.3776 171.562 39.4647 171.842 38.7161C171.9 38.5601 172.074 38.4809 172.23 38.539C172.386 38.597 172.466 38.7712 172.408 38.9272C172.106 39.7338 171.492 40.7033 171.21 41.1036C170.763 41.7172 170.174 42.2984 169.632 42.6618C169.109 43.0266 168.145 43.4556 167.067 43.4556Z" fill="#25272A"/>
<path d="M165.772 46.3847C165.622 46.3847 165.493 46.2739 165.473 46.1216L165.064 42.9388C165.043 42.7737 165.159 42.6222 165.325 42.6011C165.49 42.58 165.641 42.6968 165.662 42.8619L166.072 46.0447C166.093 46.2098 165.976 46.3613 165.811 46.3824C165.798 46.3839 165.784 46.3847 165.772 46.3847ZM172.199 45.8396C172.06 45.8396 171.936 45.7439 171.905 45.6029L170.844 40.7828C170.809 40.62 170.911 40.4594 171.074 40.4232C171.236 40.3871 171.398 40.4903 171.434 40.6532L172.494 45.4733C172.53 45.6361 172.427 45.7967 172.265 45.8329C172.242 45.8374 172.22 45.8396 172.199 45.8396Z" fill="#25272A"/>
<path d="M167.981 43.0788C166.988 43.461 165.9 43.0976 165.479 42.8684L165.728 44.5676C168.691 45.4843 170.361 43.0215 170.749 41.5703C170.246 41.9842 168.974 42.6966 167.981 43.0788Z" fill="#25272A"/>
<path d="M171.567 39.1706C171.395 39.1706 171.24 39.157 171.115 39.1351C170.95 39.1065 170.84 38.9504 170.869 38.7869C170.897 38.6233 171.053 38.5132 171.217 38.5411C171.801 38.6421 172.998 38.4831 173.252 37.6433C173.405 37.1397 173.335 36.707 173.058 36.4575C172.798 36.2223 172.392 36.1868 171.97 36.3625C171.816 36.4266 171.64 36.3542 171.576 36.2004C171.512 36.0466 171.584 35.8702 171.738 35.8061C172.38 35.5385 173.025 35.6147 173.462 36.0104C173.912 36.4175 174.05 37.0937 173.83 37.8189C173.66 38.3783 173.228 38.7899 172.581 39.0092C172.23 39.1268 171.871 39.1706 171.567 39.1706Z" fill="#25272A"/>
<path d="M165.03 39.4833C164.883 39.4833 164.738 39.4343 164.613 39.3363C164.377 39.1509 164.29 38.838 164.397 38.5561C164.902 37.2293 165.1 35.5535 164.831 34.8984C164.505 34.1106 163.339 33.8453 162.856 33.8453C162.69 33.8453 162.555 33.7103 162.555 33.5437C162.555 33.3771 162.69 33.2422 162.856 33.2422C163.361 33.2422 164.907 33.5038 165.388 34.6677C165.758 35.5633 165.462 37.457 164.962 38.7702C164.948 38.8063 164.956 38.8373 164.987 38.8606C165.03 38.8945 165.064 38.8704 165.075 38.8629C165.345 38.6752 165.618 38.4038 165.906 38.0329C166.009 37.9017 166.198 37.8784 166.329 37.9809C166.46 38.0834 166.484 38.2726 166.381 38.4038C166.054 38.8237 165.739 39.1358 165.418 39.3582C165.298 39.4418 165.164 39.4833 165.03 39.4833Z" fill="#25272A"/>
<path d="M169.957 34.732C169.881 34.732 169.805 34.7033 169.747 34.646C168.67 33.5952 167.594 34.5104 167.548 34.5503C167.423 34.6596 167.232 34.6468 167.123 34.5217C167.014 34.3958 167.027 34.2058 167.152 34.0965C167.68 33.6351 168.991 33.0667 170.167 34.2156C170.286 34.3317 170.289 34.5232 170.172 34.6423C170.114 34.7011 170.035 34.732 169.957 34.732Z" fill="#25272A"/>
<path d="M166.73 40.8492C166.494 40.8492 166.237 40.8107 165.96 40.7225C165.802 40.672 165.714 40.5024 165.765 40.3434C165.816 40.1843 165.985 40.0976 166.144 40.1481C167.577 40.6057 168.131 39.3046 168.153 39.2495C168.217 39.0957 168.393 39.0219 168.547 39.0852C168.701 39.1485 168.774 39.3249 168.711 39.4787C168.492 40.0124 167.831 40.8492 166.73 40.8492Z" fill="#25272A"/>
<path d="M171.238 37.9344C171.183 37.9344 171.128 37.9201 171.079 37.8892C170.938 37.801 170.894 37.6155 170.982 37.4738C171.196 37.1286 171.848 36.5051 172.777 36.6167C172.942 36.6363 173.06 36.7863 173.041 36.9522C173.021 37.1173 172.87 37.2364 172.705 37.216C172.055 37.1376 171.611 37.605 171.495 37.7919C171.437 37.8839 171.338 37.9344 171.238 37.9344Z" fill="#25272A"/>
<path d="M167.396 36.0795C167.331 36.0795 167.265 36.0584 167.21 36.0155C167.079 35.9122 167.056 35.723 167.16 35.5918C167.437 35.239 167.951 34.856 168.562 34.8402C169.086 34.8289 169.577 35.0754 170.017 35.5797C170.126 35.7056 170.113 35.8956 169.988 36.0049C169.862 36.115 169.672 36.1014 169.563 35.9763C169.246 35.6137 168.916 35.435 168.578 35.4433C168.176 35.4538 167.818 35.7305 167.634 35.965C167.573 36.0396 167.485 36.0795 167.396 36.0795Z" fill="#25272A"/>
<path d="M162.735 35.9944C162.669 35.9944 162.604 35.9732 162.549 35.9295C162.417 35.8262 162.396 35.637 162.498 35.5059C162.776 35.1523 163.291 34.7701 163.901 34.7543C164.428 34.743 164.915 34.9902 165.354 35.4938C165.464 35.6197 165.451 35.8097 165.325 35.919C165.2 36.0283 165.009 36.0155 164.9 35.8896C164.584 35.5277 164.253 35.346 163.916 35.3566C163.514 35.3664 163.156 35.6438 162.971 35.8783C162.912 35.9552 162.824 35.9944 162.735 35.9944Z" fill="#25272A"/>
<path d="M160.958 98.8713C160.415 98.8713 159.955 98.67 159.737 98.321C159.668 98.2109 159.591 98.0322 159.606 97.794C159.149 97.8589 158.657 97.7503 158.305 97.4736C157.896 97.1533 157.729 96.658 157.82 96.0737C157.433 96.0828 157.047 95.9509 156.779 95.6968C156.403 95.3402 156.302 94.7982 156.501 94.2087C156.56 94.0368 156.757 93.6765 157.123 93.4059C157.248 93.3139 157.463 93.1827 157.703 93.044L156.389 93.1458C155.822 93.1895 155.277 92.7613 155.147 92.1711C155.04 91.6826 155.239 91.0448 156.118 90.7199L156.152 90.7101L164.861 88.5963L161.025 87.1346C160.388 86.8316 159.972 86.0272 160.116 85.3781C160.319 84.463 161.385 84.3491 161.845 84.3439C162.801 84.273 172.843 83.835 175.394 83.8245L190.731 73.5231L186.027 65.6831C185.941 65.5406 185.987 65.3552 186.13 65.2692C186.272 65.1833 186.458 65.23 186.544 65.3725L191.543 73.704L175.578 84.4268H175.486C173.096 84.4268 162.782 84.8761 161.882 84.9454L161.862 84.9462C161.476 84.9492 160.813 85.0269 160.706 85.5078C160.624 85.8795 160.9 86.3996 161.276 86.5851L166.893 88.7237L156.314 91.2913C155.873 91.4587 155.669 91.7248 155.738 92.0414C155.803 92.3347 156.081 92.5661 156.345 92.5442L159.057 92.3339L159.22 92.9016C158.672 93.1888 157.757 93.6886 157.484 93.8906C157.229 94.0791 157.099 94.3301 157.074 94.4032C156.988 94.658 156.938 95.0146 157.196 95.2588C157.419 95.4707 157.809 95.5332 158.123 95.4073L158.754 95.1548L158.517 95.7926C158.375 96.1748 158.289 96.6942 158.678 96.9995C159.006 97.2565 159.596 97.2776 159.94 97.0439L160.36 97.4623C160.253 97.6191 160.148 97.8393 160.249 98.0006C160.359 98.1747 160.717 98.3157 161.192 98.2516L177.179 94.6784L194.11 83.1603C194.388 82.9598 194.688 82.748 195.004 82.5241C196.822 81.2388 199.313 79.4793 200.947 77.4145C202.84 75.0225 203.217 72.7354 202.098 70.421C199.247 64.5214 196.21 59.3538 196.18 59.3025C196.096 59.1593 196.143 58.9739 196.287 58.8894C196.43 58.805 196.616 58.8525 196.7 58.9965C196.73 59.0485 199.779 64.2365 202.642 70.1587C205.419 75.9038 199.118 80.356 195.353 83.0171C195.036 83.241 194.737 83.4528 194.461 83.6526L194.454 83.6579L177.424 95.243L177.368 95.2558L161.301 98.8464L161.29 98.8479C161.174 98.8637 161.064 98.8713 160.958 98.8713Z" fill="#25272A"/>
<path d="M168.592 36.209C168.862 36.209 169.082 35.9899 169.082 35.7197C169.082 35.4495 168.862 35.2305 168.592 35.2305C168.322 35.2305 168.103 35.4495 168.103 35.7197C168.103 35.9899 168.322 36.209 168.592 36.209Z" fill="#25272A"/>
<path d="M163.931 36.1211C164.201 36.1211 164.42 35.902 164.42 35.6318C164.42 35.3616 164.201 35.1426 163.931 35.1426C163.661 35.1426 163.442 35.3616 163.442 35.6318C163.442 35.902 163.661 36.1211 163.931 36.1211Z" fill="#25272A"/>
<path d="M172.168 38.3695C172.115 38.3695 172.062 38.3551 172.013 38.3265C171.87 38.2405 171.824 38.0551 171.91 37.9126C172.015 37.7385 172.054 37.5907 172.019 37.4972C171.988 37.4158 171.906 37.3864 171.897 37.3834C171.738 37.3314 171.652 37.161 171.704 37.0027C171.756 36.8444 171.926 36.7585 172.084 36.8097C172.314 36.8851 172.501 37.063 172.584 37.2862C172.655 37.4761 172.685 37.7935 172.426 38.2232C172.37 38.3174 172.27 38.3695 172.168 38.3695Z" fill="#25272A"/>
<path d="M157.954 46.0059L165.368 45.1133C165.894 45.8204 167.441 47.16 169.193 46.771C170.947 46.3813 172.136 44.8789 172.24 44.2245C173.513 44.1047 176.219 43.8604 179.04 43.4632C184.838 42.6761 189.031 46.4755 190.403 48.4732L198.187 60.0154L187.271 67.9783L183.513 62.3418L185.393 72.8994L170.987 76.2096L166.513 49.1615L148.961 52.3525C152.239 47.7684 156.322 46.2109 157.954 46.0059Z" fill="#2C68C9"/>
<path d="M182.762 60.8498C182.619 60.8498 182.493 60.7488 182.466 60.6033L181.689 56.4308C181.659 56.2672 181.767 56.1096 181.93 56.0795C182.094 56.0486 182.252 56.1571 182.282 56.3207L183.058 60.4933C183.088 60.6568 182.98 60.8144 182.817 60.8446C182.799 60.8483 182.781 60.8498 182.762 60.8498Z" fill="#25272A"/>
<path d="M159.861 97.7308C159.751 97.7308 159.645 97.6697 159.591 97.5649C159.517 97.4164 159.576 97.2347 159.725 97.1601L166.374 93.81C166.522 93.7346 166.704 93.7949 166.779 93.9434C166.853 94.0919 166.794 94.2736 166.645 94.3483L159.996 97.6983C159.953 97.721 159.907 97.7308 159.861 97.7308ZM158.332 95.9622C158.217 95.9622 158.106 95.8951 158.056 95.7828C157.989 95.6305 158.058 95.4526 158.21 95.3848L165.211 92.2865C165.363 92.2194 165.541 92.288 165.609 92.4403C165.676 92.5925 165.607 92.7704 165.455 92.8383L158.455 95.9366C158.415 95.9532 158.373 95.9622 158.332 95.9622ZM158.767 93.0252C158.632 93.0252 158.51 92.9348 158.475 92.7983C158.433 92.637 158.531 92.4727 158.692 92.4312L163.802 91.1248C163.964 91.0833 164.128 91.1806 164.169 91.3419C164.211 91.5032 164.114 91.6676 163.952 91.709L158.842 93.0154C158.816 93.0222 158.791 93.0252 158.767 93.0252Z" fill="#25272A"/>
<path d="M118.105 100.771L112.124 58.4639L112.411 58.4134L166.673 48.8945L172.768 84.1475L172.174 84.2508L166.181 49.5926L112.803 58.9569L118.62 100.107L158.019 95.7703L158.085 96.3696L118.105 100.771Z" fill="#25272A"/>
<path d="M118.728 100.572L118.287 100.159L141.342 75.5251L112.314 59.0452L112.612 58.5205L141.767 75.0728L166.133 49.0371L166.573 49.4487L142.306 75.3788L160.457 85.6847L160.16 86.2086L141.882 75.8319L118.728 100.572Z" fill="#25272A"/>
<path d="M151.199 104.369L151.72 97.0788L157.967 96.2247C158.185 97.4422 159.334 97.6857 159.88 97.6548C159.894 97.896 160.477 98.38 160.588 98.4606C160.669 98.5202 169.902 96.5956 174.679 95.5938L174.227 96.5187L151.199 104.369Z" fill="#25272A"/>
<path d="M135.749 193.246H169.057C169.662 193.246 170.154 192.755 170.154 192.149V178.337C170.154 177.732 169.663 177.24 169.057 177.24H159.579C158.928 177.24 158.421 177.803 158.488 178.451L158.644 179.948C158.705 180.535 158.291 181.065 157.707 181.147C155.607 181.443 152.51 181.891 151.529 182.081C141.755 183.472 136.738 188.294 134.803 191.591C134.374 192.325 134.9 193.246 135.749 193.246Z" fill="#25272A"/>
<path d="M170.455 193.548H135.404C134.978 193.548 134.594 193.33 134.377 192.964C134.158 192.597 134.15 192.154 134.353 191.777C135.001 190.581 136.569 188.246 139.785 186.055C142.992 183.869 146.927 182.433 151.48 181.784C152.587 181.57 156.347 181.032 158.424 180.743L158.062 177.273L157.563 172.496L158.163 172.434L158.634 176.94H169.853V173.825H170.456V193.548H170.455ZM158.696 177.543L159.085 181.261L158.796 181.301C156.8 181.577 152.726 182.157 151.587 182.378L151.572 182.381C147.108 183.016 143.256 184.421 140.125 186.555C137.014 188.674 135.506 190.917 134.883 192.066C134.781 192.253 134.786 192.474 134.894 192.656C135.002 192.837 135.193 192.946 135.404 192.946H169.852V177.544H158.696V177.543ZM158.362 177.242L158.356 177.242L158.362 177.242Z" fill="#25272A"/>
<path d="M182.498 184.802L170.409 193.574V184.383L182.498 184.802Z" fill="#25272A"/>
<path d="M247.07 174.106L253.193 141.97C253.329 141.26 252.862 140.574 252.151 140.438L239.003 137.934C238.293 137.798 237.607 138.265 237.471 138.975L235.782 147.844C235.636 148.607 236.184 149.329 236.958 149.394L238.016 149.483C238.719 149.543 239.248 150.147 239.215 150.852C239.113 152.961 238.982 155.921 238.985 156.888C238.539 166.398 242.055 172.159 244.886 174.816C245.64 175.524 246.877 175.121 247.07 174.106Z" fill="#25272A"/>
<path d="M245.689 175.349C245.246 175.349 244.821 175.178 244.489 174.854C242.578 172.987 238.189 167.499 238.683 156.882C238.681 155.75 238.856 151.959 238.961 149.866L230.698 149.169L230.748 148.568L235.264 148.949L237.364 137.926L234.016 137.251L234.135 136.66L237.774 137.393L253.791 140.444L253.734 140.741L247.411 173.931C247.289 174.572 246.844 175.072 246.221 175.268C246.044 175.322 245.865 175.349 245.689 175.349ZM235.868 148.999L239.593 149.313L239.578 149.604C239.475 151.614 239.283 155.723 239.285 156.887V156.902C238.799 167.281 243.057 172.612 244.91 174.422C245.212 174.717 245.634 174.818 246.039 174.691C246.447 174.563 246.738 174.236 246.818 173.817L253.085 140.922L237.955 138.04L235.868 148.999Z" fill="#25272A"/>
<path d="M160.978 201.266C145.388 201.266 130.728 200.364 119.7 198.727C114.336 197.929 110.126 197.002 107.19 195.971C105.701 195.448 104.556 194.9 103.789 194.343C103.002 193.772 102.603 193.185 102.603 192.596C102.603 192.008 103.002 191.42 103.789 190.848C104.556 190.291 105.701 189.743 107.19 189.221C110.13 188.188 114.34 187.261 119.7 186.465C130.728 184.827 145.388 183.926 160.978 183.926C176.568 183.926 191.227 184.827 202.256 186.465C207.616 187.261 211.825 188.188 214.766 189.221C216.255 189.743 217.401 190.291 218.167 190.848C218.954 191.419 219.353 192.007 219.353 192.596C219.353 193.185 218.954 193.773 218.167 194.343C217.401 194.9 216.255 195.448 214.766 195.971C211.83 197.002 207.62 197.93 202.256 198.727C191.227 200.364 176.568 201.266 160.978 201.266ZM160.978 184.529C145.416 184.529 130.789 185.428 119.789 187.062C114.466 187.853 110.295 188.77 107.39 189.791C105.955 190.294 104.863 190.814 104.143 191.337C103.53 191.782 103.206 192.217 103.206 192.596C103.206 192.975 103.53 193.41 104.143 193.855C104.863 194.377 105.955 194.898 107.39 195.401C110.291 196.42 114.463 197.338 119.789 198.13C130.789 199.763 145.416 200.663 160.978 200.663C176.539 200.663 191.167 199.763 202.167 198.13C207.493 197.338 211.665 196.42 214.565 195.401C216.001 194.897 217.093 194.377 217.813 193.855C218.426 193.41 218.75 192.974 218.75 192.596C218.75 192.217 218.426 191.782 217.813 191.337C217.093 190.814 216.001 190.294 214.565 189.791C211.661 188.771 207.49 187.853 202.167 187.062C191.167 185.429 176.539 184.529 160.978 184.529Z" fill="#25272A"/>
<path d="M112.302 27.1671C112.207 27.1671 112.113 27.1219 112.054 27.0382C111.959 26.9018 111.992 26.7133 112.129 26.6183L114.375 25.0541C114.511 24.9591 114.7 24.9923 114.795 25.1295C114.89 25.2659 114.857 25.4544 114.719 25.5494L112.474 27.1136C112.421 27.1498 112.361 27.1671 112.302 27.1671Z" fill="#25272A"/>
</g>
<path d="M293.703 25.4067C293.316 25.4067 293 25.0908 293 24.7033C293 24.3159 293.316 24 293.703 24C294.092 24 294.407 24.3159 294.407 24.7033C294.407 25.0908 294.091 25.4067 293.703 25.4067ZM293.703 24.6031C293.648 24.6031 293.603 24.6483 293.603 24.7033C293.603 24.7584 293.648 24.8036 293.703 24.8036C293.758 24.8036 293.804 24.7584 293.804 24.7033C293.804 24.6483 293.758 24.6031 293.703 24.6031Z" fill="#25272A"/>
<path d="M296.703 156.407C296.315 156.407 296 156.091 296 155.703C296 155.316 296.316 155 296.703 155C297.091 155 297.407 155.316 297.407 155.703C297.407 156.091 297.092 156.407 296.703 156.407ZM296.703 155.603C296.648 155.603 296.603 155.648 296.603 155.703C296.603 155.758 296.648 155.804 296.703 155.804C296.758 155.804 296.804 155.758 296.804 155.703C296.804 155.648 296.758 155.603 296.703 155.603Z" fill="#25272A"/>
<path d="M306.791 92.8987C306.692 92.8987 306.595 92.8505 306.537 92.7615L305.048 90.4653C304.958 90.3259 304.998 90.1389 305.137 90.0484C305.277 89.958 305.464 89.9979 305.554 90.1374L307.043 92.4336C307.134 92.5731 307.094 92.76 306.954 92.8505C306.904 92.8829 306.847 92.8987 306.791 92.8987Z" fill="#25272A"/>
<path d="M100.302 143.167C100.207 143.167 100.113 143.122 100.054 143.038C99.9591 142.902 99.9923 142.713 100.129 142.618L102.375 141.054C102.512 140.959 102.7 140.992 102.795 141.129C102.89 141.266 102.857 141.454 102.72 141.549L100.474 143.114C100.421 143.15 100.361 143.167 100.302 143.167Z" fill="#25272A"/>
<path d="M32.3021 193.167C32.2071 193.167 32.1129 193.122 32.0541 193.038C31.9591 192.902 31.9923 192.713 32.1295 192.618L34.3752 191.054C34.5116 190.959 34.7001 190.992 34.7951 191.129C34.8901 191.266 34.8569 191.454 34.7197 191.549L32.474 193.114C32.4212 193.15 32.3609 193.167 32.3021 193.167Z" fill="#25272A"/>
<path d="M44.7033 134.407C44.3151 134.407 44 134.091 44 133.703C44 133.316 44.3159 133 44.7033 133C45.0908 133 45.4067 133.316 45.4067 133.703C45.4067 134.091 45.0916 134.407 44.7033 134.407ZM44.7033 133.603C44.6483 133.603 44.6031 133.648 44.6031 133.703C44.6031 133.758 44.6483 133.804 44.7033 133.804C44.7584 133.804 44.8036 133.758 44.8036 133.703C44.8036 133.648 44.7591 133.603 44.7033 133.603Z" fill="#25272A"/>
<path d="M64.8016 46.0379C64.5378 46.0379 64.2807 46.0258 64.0327 46.0032C63.9958 45.9994 63.9603 45.9896 63.9287 45.9745C63.8947 45.9828 63.8578 45.9851 63.8209 45.9806C63.6151 45.9557 63.4145 45.9218 63.2238 45.8811C63.1831 45.872 63.1454 45.8554 63.1138 45.8328C63.0746 45.8389 63.0331 45.8373 62.9916 45.8275C62.8009 45.7793 62.6125 45.722 62.433 45.6564C62.3923 45.6413 62.3561 45.6187 62.3267 45.5908C62.286 45.5923 62.2438 45.5848 62.2039 45.5682C62.1051 45.5283 62.0064 45.4838 61.9016 45.4333C61.8164 45.3926 61.7591 45.3164 61.7387 45.2312C61.6566 45.2606 61.5616 45.2546 61.4809 45.2056C59.5277 44.0289 58.8432 41.8276 58.85 40.3003V40.289C58.859 40.0855 58.8749 39.8578 58.8997 39.6128C58.504 39.6226 58.0894 39.5698 57.6597 39.4394C57.3121 39.3339 57.0121 39.1794 56.7694 38.9788C56.74 38.9547 56.7166 38.9268 56.6993 38.8959C56.6669 38.8808 56.6367 38.8605 56.6103 38.8333C56.4543 38.675 56.3261 38.4903 56.2281 38.2853C56.204 38.2348 56.1957 38.1813 56.2002 38.1292C56.1618 38.0946 56.1316 38.0493 56.115 37.9958C56.0615 37.8247 56.0253 37.6392 56.008 37.444C55.9989 37.3468 56.0381 37.2555 56.1045 37.1945C56.0366 37.1357 55.9952 37.0467 56.0005 36.9502C56.0826 35.386 57.1207 33.432 58.0645 32.1248C58.1617 31.9899 58.3502 31.9598 58.4851 32.057C58.6201 32.1542 58.6502 32.3427 58.553 32.4776C57.7004 33.6589 56.6774 35.5473 56.602 36.9819C56.5975 37.0641 56.5606 37.1372 56.5048 37.1884C56.5621 37.2374 56.6013 37.3083 56.6081 37.3897C56.6216 37.542 56.6495 37.686 56.6902 37.8164C56.7023 37.8548 56.7061 37.8948 56.703 37.9325C56.7309 37.9581 56.7551 37.9898 56.7724 38.026C56.841 38.17 56.9307 38.2996 57.0393 38.4097C57.0581 38.4285 57.0739 38.4496 57.086 38.4715C57.1094 38.482 57.1312 38.4956 57.1516 38.513C57.3333 38.6622 57.5624 38.7798 57.8338 38.862C58.2288 38.9826 58.6095 39.0241 58.9736 39.0037C59.2601 37.0241 60.0516 34.3494 61.7523 33.386C62.5846 32.9149 63.2155 32.8591 63.6264 33.2209C64.0289 33.5752 64.2151 34.4708 63.7236 35.6717L63.7199 35.6807C63.119 37.0181 61.6046 39.1394 59.5104 39.545C59.481 39.8141 59.4614 40.0704 59.4508 40.3079C59.4463 41.6769 60.0554 43.6429 61.79 44.6877C61.8624 44.7314 61.9099 44.8 61.928 44.8762C62.0018 44.8498 62.0848 44.8521 62.1609 44.8882C62.2544 44.9335 62.3426 44.9727 62.4293 45.0081C62.4655 45.0232 62.4971 45.0443 62.5243 45.0692C62.5612 45.0684 62.5989 45.0737 62.6358 45.0873C62.7971 45.1453 62.966 45.1973 63.1371 45.2403C63.1741 45.2493 63.2072 45.2652 63.2366 45.2863C63.2728 45.2802 63.3105 45.281 63.3482 45.2893C63.5208 45.3262 63.704 45.3571 63.8917 45.3798C63.9257 45.3843 63.9581 45.3933 63.9867 45.4076C64.0184 45.4001 64.0515 45.3978 64.0862 45.4009C64.4722 45.437 64.883 45.4431 65.3082 45.4182C65.4741 45.4084 65.6173 45.535 65.6271 45.7016C65.6369 45.8682 65.5102 46.0107 65.3436 46.0205C65.162 46.0326 64.9803 46.0379 64.8016 46.0379ZM62.9645 33.5911C62.7399 33.5911 62.4247 33.6996 62.0523 33.9107C60.6683 34.6955 59.9009 36.9804 59.5986 38.9065C61.352 38.4549 62.6426 36.6125 63.1703 35.4388C63.4711 34.7007 63.4982 33.9092 63.2306 33.674C63.1673 33.6182 63.0776 33.5911 62.9645 33.5911Z" fill="#25272A"/>
<defs>
<clipPath id="clip0">
<rect width="190.441" height="189.066" fill="white" transform="translate(71.9636 19)"/>
</clipPath>
</defs>
</svg>
