<svg width="124" height="124" viewBox="0 0 124 124" fill="none" xmlns="http://www.w3.org/2000/svg">
<circle cx="62" cy="62" r="62" fill="#E9F6F6"/>
<path d="M88.703 72.1833C87.7234 72.1833 86.825 72.5118 86.1012 73.0613C86.1012 70.6358 84.1546 68.665 81.7587 68.665C80.3424 68.665 79.0821 69.3598 78.2835 70.4273C77.4911 69.3598 76.2308 68.665 74.8082 68.665C73.8287 68.665 72.9302 68.9934 72.2065 69.543V62.5126C72.2065 60.087 70.2598 58.1162 67.864 58.1162C65.4681 58.1162 63.5215 60.087 63.5215 62.5126V87.1221C63.5215 87.6085 63.9083 88.0001 64.3887 88.0001C64.8692 88.0001 65.256 87.6085 65.256 87.1221V62.5126C65.256 61.0598 66.4227 59.8785 67.8577 59.8785C69.2928 59.8785 70.4595 61.0598 70.4595 62.5126V73.0613V80.0917C70.4595 80.5781 70.8463 80.9697 71.3268 80.9697C71.8072 80.9697 72.194 80.5781 72.194 80.0917V73.0613C72.194 71.6085 73.3607 70.4273 74.7958 70.4273C76.2308 70.4273 77.3975 71.6085 77.3975 73.0613V80.0917C77.3975 80.5781 77.7844 80.9697 78.2648 80.9697C78.7452 80.9697 79.132 80.5781 79.132 80.0917V73.0613C79.132 71.6085 80.2988 70.4273 81.7338 70.4273C83.1688 70.4273 84.3355 71.6085 84.3355 73.0613V76.5797V80.0981C84.3355 80.5844 84.7224 80.9761 85.2028 80.9761C85.6832 80.9761 86.07 80.5844 86.07 80.0981V76.5734C86.07 75.1206 87.2368 73.9393 88.6718 73.9393C90.1068 73.9393 91.2736 75.1206 91.2736 76.5734V87.1221C91.2736 87.6085 91.6604 88.0001 92.1408 88.0001C92.6212 88.0001 93.0081 87.6085 93.0081 87.1221V76.5734C93.0455 74.1541 91.0989 72.1833 88.703 72.1833Z" fill="#25272A"/>
<path d="M67.8702 47.5742C67.3898 47.5742 67.0029 47.9658 67.0029 48.4522V53.7266C67.0029 54.213 67.3898 54.6046 67.8702 54.6046C68.3506 54.6046 68.7374 54.213 68.7374 53.7266V48.4522C68.7374 47.9658 68.3506 47.5742 67.8702 47.5742Z" fill="#25272A"/>
<path d="M59.1918 59.8789H53.982C53.5016 59.8789 53.1147 60.2705 53.1147 60.7569C53.1147 61.2433 53.5016 61.6349 53.982 61.6349H59.1918C59.6722 61.6349 60.059 61.2433 60.059 60.7569C60.059 60.2705 59.6659 59.8789 59.1918 59.8789Z" fill="#25272A"/>
<path d="M81.7591 59.8789H76.5494C76.069 59.8789 75.6821 60.2705 75.6821 60.7569C75.6821 61.2433 76.069 61.6349 76.5494 61.6349H81.7591C82.2396 61.6349 82.6264 61.2433 82.6264 60.7569C82.6264 60.2705 82.2396 59.8789 81.7591 59.8789Z" fill="#25272A"/>
<path d="M62.4048 54.863L58.9296 51.3447C58.5927 51.0036 58.0436 51.0036 57.7004 51.3447C57.3635 51.6858 57.3635 52.2417 57.7004 52.5891L61.1757 56.1074C61.3442 56.278 61.5688 56.3664 61.7871 56.3664C62.0055 56.3664 62.2301 56.278 62.3986 56.1074C62.748 55.76 62.748 55.2041 62.4048 54.863Z" fill="#25272A"/>
<path d="M78.0342 51.3447C77.6973 51.0036 77.1482 51.0036 76.8051 51.3447L73.3298 54.863C72.9929 55.2041 72.9929 55.76 73.3298 56.1074C73.4983 56.278 73.7229 56.3664 73.9413 56.3664C74.1659 56.3664 74.3843 56.278 74.5527 56.1074L78.028 52.5891C78.3711 52.248 78.3711 51.6921 78.0342 51.3447Z" fill="#25272A"/>
<path d="M45.8647 66.4004H40.9097C33.5353 66.4004 27.5625 61.381 27.5625 55.1932V53.6075C27.5625 47.4198 33.5411 42.4004 40.9097 42.4004H84.2778C91.6522 42.4004 97.625 47.4198 97.625 53.6075V55.1932C97.625 61.381 91.6464 66.4004 84.2778 66.4004" stroke="#25272A" stroke-width="1.5" stroke-miterlimit="10"/>
</svg>
