<svg width="336" height="228" viewBox="0 0 336 228" fill="none" xmlns="http://www.w3.org/2000/svg">
<path d="M24.1833 26.3748C23.8061 26.3748 23.5 26.0661 23.5 25.6874C23.5 25.3087 23.8069 25 24.1833 25C24.5598 25 24.8666 25.3087 24.8666 25.6874C24.8666 26.0661 24.5605 26.3748 24.1833 26.3748ZM24.1833 25.5894C24.1298 25.5894 24.0859 25.6336 24.0859 25.6874C24.0859 25.7412 24.1298 25.7854 24.1833 25.7854C24.2368 25.7854 24.2807 25.7412 24.2807 25.6874C24.2807 25.6336 24.2375 25.5894 24.1833 25.5894Z" fill="#25272A"/>
<path d="M78.3347 74.7688C78.2431 74.7688 78.153 74.726 78.0959 74.645L76.5543 72.4657C76.4605 72.3331 76.4913 72.1489 76.6231 72.0546C76.7549 71.9603 76.938 71.9912 77.0318 72.1238L78.5734 74.3032C78.6672 74.4358 78.6364 74.62 78.5046 74.7143C78.4526 74.7511 78.3933 74.7688 78.3347 74.7688Z" fill="#25272A"/>
<path d="M23.2396 190.833C23.1436 190.833 23.0499 190.786 22.9935 190.699L21.5471 188.455C21.4592 188.318 21.498 188.136 21.6335 188.047C21.769 187.959 21.9506 187.998 22.0385 188.134L23.4849 190.378C23.5728 190.515 23.534 190.697 23.3985 190.786C23.3494 190.818 23.2945 190.833 23.2396 190.833Z" fill="#25272A"/>
<path d="M69.1833 142.375C68.8061 142.375 68.5 142.066 68.5 141.687C68.5 141.308 68.8069 141 69.1833 141C69.5598 141 69.8666 141.309 69.8666 141.687C69.8666 142.066 69.5605 142.375 69.1833 142.375ZM69.1833 141.589C69.1298 141.589 69.0859 141.634 69.0859 141.687C69.0859 141.741 69.1298 141.785 69.1833 141.785C69.2368 141.785 69.2807 141.741 69.2807 141.687C69.2807 141.634 69.2375 141.589 69.1833 141.589Z" fill="#25272A"/>
<path d="M308.793 35.5685C308.676 35.5685 308.566 35.4978 308.52 35.3814C308.461 35.2296 308.535 35.0587 308.686 34.999L311.161 34.0206C311.312 33.9609 311.481 34.0353 311.541 34.1871C311.6 34.3389 311.526 34.5098 311.375 34.5695L308.901 35.5479C308.865 35.5619 308.829 35.5685 308.793 35.5685Z" fill="#25272A"/>
<path d="M301.183 121.375C300.806 121.375 300.5 121.066 300.5 120.687C300.5 120.309 300.807 120 301.183 120C301.56 120 301.867 120.309 301.867 120.687C301.867 121.066 301.56 121.375 301.183 121.375ZM301.183 120.589C301.13 120.589 301.086 120.634 301.086 120.687C301.086 120.741 301.13 120.785 301.183 120.785C301.237 120.785 301.281 120.741 301.281 120.687C301.281 120.634 301.237 120.589 301.183 120.589Z" fill="#25272A"/>
<path d="M277.943 53.1637C277.883 53.1637 277.823 53.1452 277.771 53.1069L275.621 51.5332C275.49 51.4374 275.461 51.2532 275.556 51.1214C275.651 50.9895 275.834 50.9608 275.966 51.0565L278.116 52.6302C278.247 52.726 278.275 52.9102 278.18 53.0421C278.122 53.1209 278.033 53.1637 277.943 53.1637Z" fill="#25272A"/>
<path d="M308.794 205.118C308.701 205.118 308.61 205.074 308.553 204.992C308.46 204.859 308.493 204.674 308.626 204.582L310.808 203.053C310.94 202.96 311.123 202.992 311.215 203.127C311.308 203.26 311.275 203.444 311.142 203.537L308.96 205.066C308.91 205.1 308.851 205.118 308.794 205.118Z" fill="#25272A"/>
<path d="M87.7335 133.971C88.1756 133.869 88.6276 133.744 89.0882 133.594M63.0901 109.799C62.435 113.23 62.0475 118.649 63.4622 122.15L63.0901 109.799ZM92.372 132.168C91.4001 132.693 90.4621 133.111 89.5587 133.434L92.372 132.168ZM63.942 123.138C64.1511 123.499 64.3879 123.828 64.6532 124.118L63.942 123.138ZM65.1253 124.57C65.4797 124.862 65.8764 125.096 66.3201 125.262L65.1253 124.57ZM66.7476 125.396C67.3765 125.559 68.0907 125.595 68.8996 125.48C76.1391 124.454 77.8291 115.862 77.7691 111.694C77.6169 108.527 75.6786 104.467 72.4002 109.073C69.1218 113.678 71.5529 122.659 73.179 126.574C74.5145 129.474 77.9936 133.683 83.4363 134.26L66.7476 125.396ZM84.5289 134.326C84.7788 134.33 85.0325 134.325 85.2893 134.313L84.5289 134.326ZM85.8559 134.274C86.2903 134.235 86.7355 134.173 87.1914 134.085L85.8559 134.274Z" stroke="#005DAA" stroke-width="0.615084" stroke-linecap="round"/>
<g clip-path="url(#clip0)">
<path d="M240.603 213.94C240.754 213.838 240.905 213.726 241.055 213.602M227.878 208.489C228.132 209.867 228.776 211.949 229.813 213.052L227.878 208.489ZM242.074 212.591C241.788 212.93 241.498 213.222 241.207 213.474L242.074 212.591ZM230.136 213.351C230.267 213.456 230.403 213.544 230.545 213.614L230.136 213.351ZM230.786 213.714C230.961 213.771 231.144 213.802 231.334 213.799L230.786 213.714ZM231.513 213.787C231.772 213.757 232.044 213.666 232.329 213.506C234.886 212.07 234.268 208.613 233.64 207.064C233.122 205.902 231.808 204.667 231.252 206.864C230.697 209.062 232.912 212.065 234.088 213.292C235.009 214.182 236.921 215.249 239.039 214.673L231.513 213.787ZM239.457 214.539C239.551 214.504 239.645 214.466 239.739 214.423L239.457 214.539ZM239.945 214.327C240.102 214.248 240.259 214.16 240.417 214.062L239.945 214.327Z" stroke="#005DAA" stroke-width="0.690019" stroke-linecap="round"/>
<path d="M57.8447 206.689L59.5482 209.317" stroke="#002544" stroke-width="0.690019" stroke-linecap="round"/>
<path d="M135.23 142.783H140.943M116.838 176.852L115.769 201.058L148.375 200.114L214.761 198.193V142.783L116.838 176.852ZM187.903 130.842H214.761V142.783L187.903 130.842ZM214.761 142.783H162.61H214.761Z" stroke="#002544" stroke-width="0.690019" stroke-linecap="round"/>
<path d="M253.124 31.4043L256.614 50.1834L271.483 44.0329L257.689 54.8137L270.017 60.8499L255.731 58.1969L258.723 75.8382L251.354 58.6821L238.361 72.6848L246.915 56.7263L234.065 52.43L246.351 51.6642L242.665 43.784L249.82 49.4265L253.124 31.4043Z" fill="#CDDC56"/>
<path d="M253.124 31.4043L256.614 50.1834L271.483 44.0329L257.689 54.8137L270.017 60.8499L255.731 58.1969L258.723 75.8382L251.354 58.6821L238.361 72.6848L246.915 56.7263L234.065 52.43L246.351 51.6642L242.665 43.784L249.82 49.4265L253.124 31.4043Z" stroke="#F3F6D5" stroke-width="0.673096" stroke-linecap="round"/>
<path d="M157.95 88.0137H130.999V100.845H90.6943V154.275H109.013" stroke="#002544" stroke-width="0.690019" stroke-linecap="round"/>
<path d="M141.496 24.8594H147.535M132.339 24.8594H138.855H132.339Z" stroke="#002544" stroke-width="0.690019" stroke-linecap="round"/>
<path d="M253.188 107.147V113.184M253.188 97.9883V104.505V97.9883Z" stroke="#002544" stroke-width="0.690019" stroke-linecap="round"/>
<path d="M253.188 125.607V131.645M253.188 116.449V122.966V116.449Z" stroke="#002544" stroke-width="0.690019" stroke-linecap="round"/>
<path d="M253.188 143.842V149.88M253.188 134.684V141.2V134.684Z" stroke="#002544" stroke-width="0.690019" stroke-linecap="round"/>
<path d="M243.646 149.881H249.683M234.487 149.881H241.004H234.487Z" stroke="#002544" stroke-width="0.690019" stroke-linecap="round"/>
<path d="M225.412 149.881H231.451M216.255 149.881H222.771H216.255Z" stroke="#002544" stroke-width="0.690019" stroke-linecap="round"/>
<path d="M176.831 24.8594H182.869M167.673 24.8594H174.189H167.673Z" stroke="#002544" stroke-width="0.690019" stroke-linecap="round"/>
<path d="M202.366 24.8594H208.883" stroke="#002544" stroke-width="0.690019" stroke-linecap="round"/>
<path d="M202.737 24.8594H209.254" stroke="#002544" stroke-width="0.690019" stroke-linecap="round"/>
<path d="M209.448 36.1672V42.2048M209.448 27.0098V33.5261V27.0098Z" stroke="#002544" stroke-width="0.690019" stroke-linecap="round"/>
<path d="M159.108 24.8594H165.145M149.95 24.8594H156.467H149.95Z" stroke="#002544" stroke-width="0.690019" stroke-linecap="round"/>
<path d="M194.442 24.8594H200.48M185.284 24.8594H191.801H185.284Z" stroke="#002544" stroke-width="0.690019" stroke-linecap="round"/>
<path d="M209.448 44.6914V51.2078" stroke="#002544" stroke-width="0.690019" stroke-linecap="round"/>
<path d="M222.395 51.2051H228.432M213.237 51.2051H219.754H213.237Z" stroke="#002544" stroke-width="0.690019" stroke-linecap="round"/>
<path d="M187.97 140.266C189.324 140.266 190.422 139.168 190.422 137.813C190.422 136.459 189.324 135.361 187.97 135.361C186.615 135.361 185.518 136.459 185.518 137.813C185.518 139.168 186.615 140.266 187.97 140.266Z" fill="#002544"/>
<path d="M195.291 140.266C196.645 140.266 197.743 139.168 197.743 137.813C197.743 136.459 196.645 135.361 195.291 135.361C193.937 135.361 192.839 136.459 192.839 137.813C192.839 139.168 193.937 140.266 195.291 140.266Z" fill="#002544"/>
<path d="M203.257 140.266C204.611 140.266 205.709 139.168 205.709 137.813C205.709 136.459 204.611 135.361 203.257 135.361C201.903 135.361 200.805 136.459 200.805 137.813C200.805 139.168 201.903 140.266 203.257 140.266Z" fill="#002544"/>
<path d="M198.469 100.846L200.644 130.843H158.721L141.064 103.921L165.137 101.088" stroke="#002544" stroke-width="0.690019"/>
<path d="M255.734 85.9737L251.306 89.9361M234.489 87.7436L238.861 84.1831L245.421 82.1449C246.204 82.0716 247.478 82.3761 246.312 84.1831C245.837 84.6902 243.576 85.79 242.506 86.2764L234.489 87.7436ZM237.81 95.0388L246.825 95.9177C250.199 93.1171 256.948 87.4943 256.948 87.4063C257.359 86.0617 256.309 85.8909 255.734 85.9737L237.81 95.0388ZM242.506 86.2764L245.583 86.6344L251.306 82.1449C251.954 81.8422 253.164 81.6654 252.818 83.3844L242.506 86.2764ZM242.506 86.2764C242.44 87.5254 241.81 90.2639 239.82 91.2247L242.506 86.2764ZM252.818 83.3844C253.556 83.0446 254.891 82.8436 254.329 84.6282L252.818 83.3844ZM252.818 83.3844L248.164 87.4063L252.818 83.3844ZM254.329 84.6282C254.923 84.4263 256.036 84.3875 255.734 85.9737L254.329 84.6282ZM254.329 84.6282L249.774 88.7648L254.329 84.6282Z" stroke="#002544" stroke-width="0.690019" stroke-linecap="round"/>
<path d="M119.503 112.392L117.787 112.925L102.574 109.754C101.109 109.406 100.577 109.968 101.341 110.929C100.406 110.396 98.4623 111.015 99.3438 112.925C98.4632 112.649 97.2514 113.309 97.8172 114.629C97.8758 114.766 98.0871 115.099 98.4632 115.334C98.8393 115.569 100.03 116.098 100.578 116.332H97.4653C96.5018 116.332 95.8127 117.977 97.4653 118.447L108.684 120.268L103.456 122.735C102.491 123.289 102.056 125.367 104.455 125.202C105.583 125.202 115.224 123.557 119.903 122.735L123.545 120.914" stroke="#002544" stroke-width="0.690019"/>
<path d="M100.212 116.295L106.202 117.031M101.285 110.9L109.065 113.292L101.285 110.9ZM99.2539 112.895L107.687 115.519L99.2539 112.895Z" stroke="#002544" stroke-width="0.690019" stroke-linecap="round"/>
<path d="M187.067 56.8264L186.248 60.7379L199.277 63.7714V62.3086C199.247 60.323 197.56 59.407 196.721 59.1974C196.824 58.0417 196.011 57.8269 195.591 57.864C195.77 57.5181 196.083 56.5788 195.906 55.586C195.313 53.0821 192.943 52.7406 191.831 52.882C194.277 49.5932 191.714 46.9807 190.128 46.0854C190.054 45.6222 189.772 44.5225 189.238 43.8264C188.335 42.4929 186.221 42.6284 185.276 42.863C183.098 41.3518 181.911 42.8017 181.591 43.7151L180.766 43.8264C178.196 44.3301 178.392 46.8263 178.812 48.0122C178.765 48.0122 177.284 48.6143 176.587 49.1128C174.586 50.542 174.911 53.4021 175.59 54.4941C175.183 54.6114 174.138 54.9831 173.22 55.5308C170.582 57.224 171.475 60.2558 172.259 61.5004L180.386 60.3825L180.664 59.5864C180.738 59.6787 181.19 59.89 182.405 59.9935C184.286 60.0824 185.942 58.24 186.535 57.3085C184.201 58.9197 182.744 58.5971 181.816 58.0572C180.434 57.2542 179.544 54.6813 179.288 53.4134C181.109 52.7518 181.032 50.9414 180.766 50.1194C180.869 50.2453 181.343 50.4972 182.405 50.4972C184.158 50.5222 184.185 49.2517 183.98 48.6134C185.585 49.256 186.459 48.346 186.697 47.8104C187.092 49.7864 188.404 50.0538 189.012 49.9408C189.481 53.227 187.911 55.9009 187.067 56.8264Z" fill="#002544"/>
<path d="M186.873 105.588L194.469 127.311L155.011 124.881" stroke="#002544" stroke-width="0.690019" stroke-linecap="round"/>
<path d="M169.97 61.9806C169.97 61.9806 172.807 61.0767 178.438 60.6152L180.953 68.2572L186.271 60.7437C188.657 61.156 194.506 62.2954 198.816 63.5556C203.125 64.8157 205.861 68.7894 206.691 70.6188L217.139 94.1682L234.694 87.4035L239.747 98.279C234.123 101.847 221.729 109.24 217.139 110.268C211.384 111.775 207.776 107.299 206.691 104.873L197.871 84.0638L198.816 100.934H165.33L140.998 103.792C140.998 103.792 138.669 104.356 136.908 105.477C130.392 109.621 123.626 121.486 123.626 121.486L119.002 112.152L150.174 94.1682C153.199 87.3457 159.593 73.0847 160.964 70.6188C163.086 65.617 166.768 62.7897 169.97 61.9806Z" fill="#005DAA"/>
<path d="M189.041 50.5975C188.254 50.3801 187.266 50.5293 186.609 51.3634C185.721 52.4898 185.528 54.2019 186.307 55.5268C186.197 55.5268 185.153 55.2189 184.456 54.2459" stroke="#002544" stroke-width="0.690019" stroke-linecap="round"/>
<path d="M184.897 49.8487C184.447 49.4563 183.281 48.9284 182.226 49.9592" stroke="#002544" stroke-width="0.690019" stroke-linecap="round"/>
<path d="M184.365 51.5619C184.142 50.9763 183.362 50.0103 182.025 50.8296" stroke="#002544" stroke-width="0.690019" stroke-linecap="round"/>
<path d="M188.726 52.6587C188.452 52.0955 187.589 51.2019 186.331 52.1378" stroke="#002544" stroke-width="0.690019" stroke-linecap="round"/>
<path d="M183.214 51.637C183.491 51.637 183.715 51.4127 183.715 51.1359C183.715 50.8591 183.491 50.6348 183.214 50.6348C182.937 50.6348 182.713 50.8591 182.713 51.1359C182.713 51.4127 182.937 51.637 183.214 51.637Z" fill="#002544"/>
<path d="M187.542 52.8401C187.819 52.8401 188.043 52.6158 188.043 52.339C188.043 52.0623 187.819 51.8379 187.542 51.8379C187.265 51.8379 187.041 52.0623 187.041 52.339C187.041 52.6158 187.265 52.8401 187.542 52.8401Z" fill="#002544"/>
<path d="M132.333 218.574L151.516 187.401C149.592 179.893 146.899 169.02 144.414 158.295L168.108 160.684L178.525 194.342L173.224 197.372L170.574 193.332V198.507L132.333 218.574Z" fill="#002544"/>
<path d="M144.414 158.294L168.108 160.683M147.478 113.568C144.449 113.821 138.29 116.118 137.886 123.286C137.647 127.527 140.812 142.756 144.414 158.294L147.478 113.568ZM158.86 130.8L168.108 160.683L158.86 130.8ZM144.414 158.294C146.899 169.019 149.592 179.892 151.516 187.399L132.333 218.573L170.574 198.506V193.331L173.224 197.37L178.525 194.341L168.108 160.683L144.414 158.294Z" stroke="#002544" stroke-width="0.690019" stroke-linecap="round"/>
<path d="M62.1104 170.693L97.7662 162.419C101.753 155.772 107.591 146.213 113.471 136.904L128.431 155.434L111.818 186.505L105.938 184.865L106.947 180.141L103.267 183.779L62.1104 170.693Z" fill="#002544"/>
<path d="M128.431 155.433L139.335 135.021M113.471 136.904C121.988 123.42 130.593 110.462 133.777 107.65C136.549 105.203 137.771 104.586 141.285 104.105L113.471 136.904ZM113.471 136.904C107.591 146.212 101.753 155.771 97.7662 162.418L62.1104 170.692L103.266 183.778L106.945 180.14L105.936 184.864L111.817 186.505L128.429 155.433L113.471 136.904ZM113.471 136.904L128.431 155.433L113.471 136.904Z" stroke="#002544" stroke-width="0.690019" stroke-linecap="round"/>
<path d="M165.265 101.095L168.792 81.4238" stroke="#002544" stroke-width="0.690019" stroke-linecap="round"/>
<path d="M197.899 83.6303L197.59 79.5859" stroke="#002544" stroke-width="0.690019" stroke-linecap="round"/>
<circle cx="183.705" cy="56.5316" r="0.560914" fill="#002544"/>
<line x1="164.433" y1="32.7238" x2="165.507" y2="47.758" stroke="#002544" stroke-width="0.673096" stroke-linecap="round"/>
<circle cx="165.756" cy="49.8011" r="0.560914" fill="#002544"/>
</g>
<defs>
<clipPath id="clip0">
<rect width="221" height="215.934" fill="white" transform="translate(57.5 3.52734)"/>
</clipPath>
</defs>
</svg>
