<svg width="336" height="228" viewBox="0 0 336 228" fill="none" xmlns="http://www.w3.org/2000/svg">
<path d="M24.1833 26.3748C23.8061 26.3748 23.5 26.0661 23.5 25.6874C23.5 25.3087 23.8069 25 24.1833 25C24.5598 25 24.8666 25.3087 24.8666 25.6874C24.8666 26.0661 24.5605 26.3748 24.1833 26.3748ZM24.1833 25.5894C24.1298 25.5894 24.0859 25.6336 24.0859 25.6874C24.0859 25.7412 24.1298 25.7854 24.1833 25.7854C24.2368 25.7854 24.2807 25.7412 24.2807 25.6874C24.2807 25.6336 24.2375 25.5894 24.1833 25.5894Z" fill="#002544"/>
<path d="M28.3347 74.7688C28.2431 74.7688 28.153 74.726 28.0959 74.645L26.5543 72.4657C26.4605 72.3331 26.4913 72.1489 26.6231 72.0546C26.7549 71.9603 26.938 71.9912 27.0318 72.1238L28.5734 74.3032C28.6672 74.4358 28.6364 74.62 28.5046 74.7143C28.4526 74.7511 28.3933 74.7688 28.3347 74.7688Z" fill="#002544"/>
<path d="M23.2396 190.833C23.1436 190.833 23.0499 190.786 22.9935 190.699L21.5471 188.455C21.4592 188.318 21.498 188.136 21.6335 188.047C21.769 187.959 21.9506 187.998 22.0385 188.134L23.4849 190.378C23.5728 190.515 23.534 190.697 23.3985 190.786C23.3494 190.818 23.2945 190.833 23.2396 190.833Z" fill="#002544"/>
<path d="M69.1833 142.375C68.8061 142.375 68.5 142.066 68.5 141.687C68.5 141.308 68.8069 141 69.1833 141C69.5598 141 69.8666 141.309 69.8666 141.687C69.8666 142.066 69.5605 142.375 69.1833 142.375ZM69.1833 141.589C69.1298 141.589 69.0859 141.634 69.0859 141.687C69.0859 141.741 69.1298 141.785 69.1833 141.785C69.2368 141.785 69.2807 141.741 69.2807 141.687C69.2807 141.634 69.2375 141.589 69.1833 141.589Z" fill="#002544"/>
<path d="M308.793 35.5685C308.676 35.5685 308.566 35.4978 308.52 35.3814C308.461 35.2296 308.535 35.0587 308.686 34.999L311.161 34.0206C311.312 33.9609 311.481 34.0353 311.541 34.1871C311.6 34.3389 311.526 34.5098 311.375 34.5695L308.901 35.5479C308.865 35.5619 308.829 35.5685 308.793 35.5685Z" fill="#002544"/>
<path d="M301.183 121.375C300.806 121.375 300.5 121.066 300.5 120.687C300.5 120.309 300.807 120 301.183 120C301.56 120 301.867 120.309 301.867 120.687C301.867 121.066 301.56 121.375 301.183 121.375ZM301.183 120.589C301.13 120.589 301.086 120.634 301.086 120.687C301.086 120.741 301.13 120.785 301.183 120.785C301.237 120.785 301.281 120.741 301.281 120.687C301.281 120.634 301.237 120.589 301.183 120.589Z" fill="#002544"/>
<path d="M277.943 53.1637C277.883 53.1637 277.823 53.1452 277.771 53.1069L275.621 51.5332C275.49 51.4374 275.461 51.2532 275.556 51.1214C275.651 50.9895 275.834 50.9608 275.966 51.0565L278.116 52.6302C278.247 52.726 278.275 52.9102 278.18 53.0421C278.122 53.1209 278.033 53.1637 277.943 53.1637Z" fill="#002544"/>
<path d="M308.794 205.118C308.701 205.118 308.61 205.074 308.553 204.992C308.46 204.859 308.493 204.674 308.626 204.582L310.808 203.053C310.94 202.96 311.123 202.992 311.215 203.127C311.308 203.26 311.275 203.444 311.142 203.537L308.96 205.066C308.91 205.1 308.851 205.118 308.794 205.118Z" fill="#002544"/>
<g clip-path="url(#clip0)">
<path d="M265.207 211H80.9629C80.801 211 80.6699 210.868 80.6699 210.705C80.6699 210.542 80.801 210.41 80.9629 210.41H265.207C265.369 210.41 265.5 210.542 265.5 210.705C265.5 210.868 265.369 211 265.207 211Z" fill="#002544"/>
<path d="M118.073 157.312C117.696 157.312 117.39 157.004 117.39 156.625C117.39 156.246 117.697 155.938 118.073 155.938C118.449 155.938 118.756 156.246 118.756 156.625C118.756 157.004 118.45 157.312 118.073 157.312ZM118.073 156.527C118.019 156.527 117.976 156.571 117.976 156.625C117.976 156.679 118.019 156.723 118.073 156.723C118.126 156.723 118.17 156.679 118.17 156.625C118.17 156.571 118.126 156.527 118.073 156.527Z" fill="#002544"/>
<path d="M196.443 49.867C196.066 49.867 195.76 49.5583 195.76 49.1796C195.76 48.8009 196.067 48.4922 196.443 48.4922C196.819 48.4922 197.126 48.8009 197.126 49.1796C197.126 49.5583 196.82 49.867 196.443 49.867ZM196.443 49.0808C196.39 49.0808 196.346 49.1251 196.346 49.1788C196.346 49.2326 196.39 49.2768 196.443 49.2768C196.496 49.2768 196.54 49.2326 196.54 49.1788C196.54 49.1251 196.497 49.0808 196.443 49.0808Z" fill="#002544"/>
<path d="M143.99 178.369C143.613 178.369 143.307 178.06 143.307 177.682C143.307 177.303 143.614 176.994 143.99 176.994C144.366 176.994 144.673 177.303 144.673 177.682C144.673 178.06 144.367 178.369 143.99 178.369ZM143.99 177.584C143.936 177.584 143.893 177.628 143.893 177.682C143.893 177.735 143.936 177.78 143.99 177.78C144.043 177.78 144.087 177.735 144.087 177.682C144.087 177.628 144.043 177.584 143.99 177.584Z" fill="#002544"/>
<path d="M116.551 199.87C115.819 199.87 115.107 199.838 114.422 199.773C114.268 199.758 114.154 199.627 114.156 199.474C114.127 199.624 113.987 199.728 113.833 199.709C113.265 199.638 112.709 199.545 112.178 199.431C112.02 199.397 111.919 199.24 111.953 199.081C111.986 198.922 112.142 198.821 112.301 198.854C112.814 198.965 113.354 199.055 113.905 199.123C114.055 199.142 114.165 199.272 114.162 199.421C114.191 199.274 114.326 199.171 114.477 199.184C115.605 199.291 116.809 199.308 118.057 199.234C118.219 199.223 118.357 199.348 118.367 199.511C118.376 199.674 118.253 199.813 118.092 199.823C117.569 199.855 117.055 199.87 116.551 199.87ZM111.606 199.29C111.582 199.29 111.558 199.287 111.534 199.281C111.004 199.146 110.485 198.987 109.991 198.807C109.838 198.752 109.76 198.583 109.815 198.43C109.87 198.277 110.038 198.198 110.19 198.253C110.667 198.426 111.167 198.58 111.677 198.709C111.834 198.749 111.929 198.909 111.89 199.067C111.855 199.201 111.737 199.29 111.606 199.29ZM109.467 198.584C109.43 198.584 109.392 198.577 109.356 198.562C109.072 198.445 108.792 198.319 108.523 198.188C108.377 198.117 108.316 197.94 108.387 197.794C108.458 197.648 108.634 197.586 108.779 197.658C109.036 197.784 109.306 197.905 109.578 198.017C109.727 198.079 109.799 198.252 109.737 198.402C109.692 198.515 109.583 198.584 109.467 198.584ZM107.521 197.601C107.47 197.601 107.418 197.587 107.37 197.559C101.99 194.299 100.105 188.19 100.125 183.948V183.937C100.145 183.473 100.199 182.561 100.339 181.355C99.0657 181.473 97.724 181.351 96.3208 180.921C95.3943 180.637 94.6041 180.227 93.9713 179.702C93.8775 179.624 93.8446 179.501 93.8768 179.391C93.7706 179.433 93.6454 179.41 93.5604 179.323C93.1583 178.912 92.8273 178.434 92.5768 177.905C92.5072 177.759 92.5695 177.583 92.7152 177.513C92.861 177.443 93.036 177.505 93.1056 177.652C93.3282 178.122 93.6219 178.546 93.9779 178.91C94.0555 178.989 94.0789 179.101 94.0496 179.201C94.1456 179.162 94.2584 179.177 94.3441 179.247C94.9175 179.722 95.6396 180.096 96.4921 180.357C97.861 180.777 99.1719 180.885 100.414 180.753C100.667 178.816 101.132 176.278 101.986 173.649C103.464 169.103 105.533 166.045 108.139 164.56C110.284 163.337 111.866 163.154 112.84 164.017C113.478 164.581 113.793 165.574 113.754 166.89C113.721 167.985 113.435 169.27 112.969 170.417L112.965 170.426C111.26 174.244 106.908 180.364 100.938 181.281C100.789 182.532 100.733 183.479 100.712 183.956C100.694 188.042 102.506 193.922 107.673 197.053C107.812 197.137 107.856 197.318 107.773 197.458C107.717 197.55 107.62 197.601 107.521 197.601ZM111.318 164.077C110.563 164.077 109.589 164.411 108.427 165.073C105.987 166.463 103.952 169.492 102.542 173.832C101.724 176.349 101.269 178.783 101.015 180.669C106.656 179.705 110.791 173.851 112.427 170.189C113.261 168.138 113.553 165.434 112.452 164.459C112.164 164.205 111.783 164.077 111.318 164.077ZM92.5614 177.354C92.4369 177.354 92.3212 177.273 92.2817 177.147C92.1411 176.694 92.0458 176.201 91.9997 175.68C91.9851 175.518 92.1037 175.375 92.2648 175.361C92.4252 175.345 92.568 175.465 92.5827 175.627C92.6259 176.106 92.7123 176.559 92.8405 176.972C92.8888 177.127 92.8024 177.292 92.6486 177.341C92.6193 177.35 92.59 177.354 92.5614 177.354ZM92.2722 174.651C92.267 174.651 92.2619 174.651 92.2568 174.65C92.0949 174.642 91.9711 174.503 91.9799 174.34C92.0876 172.283 92.7885 169.85 94.0636 167.108C95.4045 164.222 96.9638 161.898 97.7745 160.768C97.869 160.637 98.0521 160.607 98.1832 160.702C98.3143 160.797 98.3436 160.981 98.2491 161.113C95.7663 164.573 92.7877 170.121 92.5651 174.371C92.5556 174.529 92.4267 174.651 92.2722 174.651Z" fill="#BFD22B"/>
<path d="M208.852 41.5014C208.797 41.5014 208.742 41.4859 208.693 41.4542C208.558 41.3658 208.519 41.1831 208.607 41.0468C209.956 38.9522 213.512 33.6078 217.378 29.2233C221.12 24.9774 223.906 23.0736 225.656 23.5635C226.62 23.8332 227.241 24.7954 227.511 26.431C228.379 25.6523 229.357 25.0312 230.407 24.612C233.071 23.5481 235.995 23.7912 238.861 25.3148C239.004 25.3907 239.059 25.569 238.984 25.7134C238.908 25.8571 238.73 25.9123 238.587 25.8364C235.878 24.3961 233.123 24.1625 230.623 25.1601C229.515 25.6022 228.49 26.2844 227.602 27.1486C227.629 27.4271 227.647 27.7218 227.657 28.032C227.78 31.8425 227.63 36.5238 226.222 37.1825C226.031 37.2716 225.647 37.3623 225.213 36.9703C224.241 36.0906 223.634 33.3573 224.339 31.2818C224.904 29.6182 225.827 28.1248 226.992 26.9298C226.8 25.2957 226.3 24.3563 225.5 24.1323C222.421 23.2711 214.838 32.4621 209.099 41.3688C209.042 41.4542 208.948 41.5014 208.852 41.5014ZM227.057 27.7196C226.119 28.7827 225.371 30.0617 224.892 31.4704C224.237 33.3985 224.872 35.8689 225.604 36.5305C225.815 36.7206 225.93 36.6668 225.974 36.6469C226.094 36.5901 226.513 36.2748 226.806 34.5935C227.072 33.0633 227.162 30.8619 227.071 28.0497C227.067 27.9369 227.063 27.8272 227.057 27.7196Z" fill="#002544"/>
<path d="M162.246 19.3671C162.144 19.3671 162.044 19.3133 161.991 19.2168C161.912 19.0753 161.961 18.8956 162.103 18.8153L164.42 17.5046C164.561 17.425 164.74 17.4751 164.819 17.6173C164.898 17.7588 164.848 17.9385 164.707 18.0188L162.39 19.3295C162.344 19.3546 162.295 19.3671 162.246 19.3671Z" fill="#002544"/>
<path d="M132.481 196.828C132.421 196.828 132.361 196.81 132.309 196.772L130.159 195.199C130.028 195.103 129.999 194.919 130.094 194.787C130.189 194.656 130.373 194.627 130.504 194.723L132.654 196.296C132.785 196.391 132.814 196.575 132.718 196.707C132.661 196.785 132.571 196.828 132.481 196.828Z" fill="#002544"/>
<path d="M87.7935 27.118C87.7012 27.118 87.6097 27.0738 87.5526 26.9921C87.4603 26.8587 87.4925 26.6745 87.6258 26.5817L89.8076 25.0529C89.9401 24.96 90.1232 24.9925 90.2155 25.1265C90.3078 25.2599 90.2756 25.4441 90.1423 25.5369L87.9605 27.0657C87.9092 27.1004 87.8514 27.118 87.7935 27.118Z" fill="#002544"/>
<path d="M195.351 189.755C195.259 189.755 195.167 189.711 195.11 189.629C195.018 189.495 195.05 189.311 195.183 189.218L197.365 187.69C197.498 187.597 197.681 187.629 197.773 187.763C197.865 187.897 197.833 188.081 197.7 188.174L195.518 189.702C195.468 189.737 195.409 189.755 195.351 189.755Z" fill="#002544"/>
<path d="M244.178 19.833C244.082 19.833 243.988 19.7859 243.932 19.6989L242.486 17.4548C242.398 17.3185 242.436 17.1357 242.572 17.0473C242.707 16.9589 242.889 16.998 242.977 17.1343L244.423 19.3784C244.511 19.5147 244.472 19.6975 244.337 19.7859C244.288 19.8175 244.233 19.833 244.178 19.833Z" fill="#002544"/>
<path d="M235.02 178.816L217.157 178.468L217.168 177.878L234.433 178.215V91.6093L218.746 91.2343L218.76 90.6449L235.019 91.0332V178.816H235.02ZM210.277 178.343L174.355 177.635L174.367 177.045L210.288 177.753L210.277 178.343ZM206.864 90.9514L191.602 90.5875L191.615 89.998L206.878 90.362L206.864 90.9514Z" fill="#005DAA"/>
<path d="M213.436 153.816C213.43 153.816 213.424 153.816 213.419 153.816L194.894 152.696C194.732 152.686 194.61 152.546 194.62 152.384C194.629 152.221 194.768 152.098 194.93 152.108L213.454 153.228C213.616 153.237 213.738 153.377 213.728 153.539C213.72 153.696 213.59 153.816 213.436 153.816ZM218.902 141.597H191.774C191.613 141.597 191.481 141.465 191.481 141.303C191.481 141.14 191.613 141.008 191.774 141.008H218.902C219.064 141.008 219.195 141.14 219.195 141.303C219.195 141.465 219.064 141.597 218.902 141.597ZM218.902 129.683H192.888C192.726 129.683 192.595 129.551 192.595 129.389C192.595 129.226 192.726 129.094 192.888 129.094H218.902C219.064 129.094 219.195 129.226 219.195 129.389C219.195 129.551 219.064 129.683 218.902 129.683ZM221.635 120.62H191.774C191.613 120.62 191.481 120.488 191.481 120.326C191.481 120.163 191.613 120.031 191.774 120.031H221.635C221.797 120.031 221.928 120.163 221.928 120.326C221.928 120.488 221.797 120.62 221.635 120.62ZM220.623 110.845H198.353C198.192 110.845 198.06 110.713 198.06 110.55C198.06 110.388 198.192 110.256 198.353 110.256H220.623C220.785 110.256 220.916 110.388 220.916 110.55C220.916 110.713 220.785 110.845 220.623 110.845ZM223.254 101.171H207.464C207.302 101.171 207.171 101.04 207.171 100.877C207.171 100.714 207.302 100.582 207.464 100.582H223.254C223.416 100.582 223.547 100.714 223.547 100.877C223.547 101.04 223.416 101.171 223.254 101.171Z" fill="#005DAA"/>
<path d="M183.225 167.25H171.169V166.66H183.225V167.25ZM149.021 167.25H101.676L99.9463 56.8468L100.239 56.8423L100.03 56.6368L118.534 37.5481L118.744 37.7537V37.459H191.957V152.575H191.371V38.0477H119.037V60.5062L100.538 57.1945L102.253 166.66H149.02V167.25H149.021ZM100.836 56.6486L118.452 59.8019V38.4772L100.836 56.6486Z" fill="#002544"/>
<path d="M152.801 120.499H122.425C122.264 120.499 122.133 120.368 122.133 120.205C122.133 120.042 122.264 119.91 122.425 119.91H152.801C152.963 119.91 153.094 120.042 153.094 120.205C153.094 120.368 152.963 120.499 152.801 120.499ZM131.322 97.9981H122.425C122.264 97.9981 122.133 97.8662 122.133 97.7034C122.133 97.5406 122.264 97.4087 122.425 97.4087H131.322C131.484 97.4087 131.615 97.5406 131.615 97.7034C131.615 97.8662 131.484 97.9981 131.322 97.9981ZM176.567 76.0074H164.649C164.488 76.0074 164.356 75.8755 164.356 75.7127C164.356 75.5498 164.488 75.418 164.649 75.418H176.567C176.729 75.418 176.86 75.5498 176.86 75.7127C176.86 75.8755 176.729 76.0074 176.567 76.0074ZM161.856 76.0074H121.282C121.12 76.0074 120.989 75.8755 120.989 75.7127C120.989 75.5498 121.12 75.418 121.282 75.418H161.856C162.018 75.418 162.149 75.5498 162.149 75.7127C162.149 75.8755 162.018 76.0074 161.856 76.0074Z" fill="#002544"/>
<path d="M135.033 115.023C126.756 109.435 125.131 87.0962 125.244 75.7773C127.466 84.3797 132.534 102.621 135.033 106.764C137.531 110.907 142.881 109.169 145.244 107.782L155.118 103.283C154.792 105.938 154.403 109.118 153.98 112.58C149.271 116.05 139.891 118.303 135.033 115.023Z" fill="#005DAA"/>
<path d="M181.971 111.272L191.59 152.762L185.242 105.534L191.59 110.578V113.135C193.957 114.626 197.303 115.452 201.071 115.124C210.961 114.265 213.214 101.39 216.032 94.4517L221.276 90.6758H219.34L214.972 93.3863L214.054 95.0912C211.669 99.3828 205.733 108.627 201.071 111.272C196.41 113.917 192.808 110.17 191.59 107.966L181.971 98.0168V111.272Z" fill="#005DAA"/>
<path d="M151.656 195.438L151.613 195.163C150.362 187.083 148.122 169.264 148.599 159.66C149.122 149.139 152.166 123.01 153.191 114.686C153.211 114.524 153.358 114.41 153.518 114.429C153.679 114.449 153.793 114.596 153.773 114.758C152.748 123.077 149.706 149.187 149.185 159.689C148.716 169.139 150.895 186.616 152.151 194.798L178.174 192.284L169.074 161.069L170.359 143.921C170.359 143.918 170.359 143.915 170.359 143.913L171.337 130.873C171.349 130.711 171.489 130.589 171.651 130.601C171.812 130.614 171.933 130.755 171.921 130.917L170.945 143.942C171.287 150.326 175.574 164.026 189.367 170.312C202.968 176.509 213.061 178.621 216.738 178.904L222.005 161.243L191.104 152.793L191.067 152.617L182.497 111.901C182.463 111.742 182.564 111.585 182.723 111.551C182.881 111.518 183.036 111.619 183.07 111.778L191.602 152.318L222.737 160.833L217.164 179.523L216.932 179.509C213.425 179.298 203.098 177.217 189.124 170.849C176.932 165.293 172.032 154.044 170.721 146.913L169.665 161.006L178.935 192.803L151.656 195.438Z" fill="#002544"/>
<path d="M170.322 210.5H176.568L173.415 192.916L162.048 194.179L163.05 197.37L142.398 208.103C141.224 208.714 141.655 210.5 142.978 210.5H166.965H168.944H170.322Z" fill="#002544"/>
<path d="M237.131 173.834L238.372 169.912C238.713 168.835 238.004 167.71 236.89 167.561L221.251 165.467L217.839 176.813L222.489 176.821L226.485 200.436C226.682 201.604 228.306 201.718 228.663 200.589L236.114 177.051L237.131 173.834Z" fill="#002544"/>
<path d="M164.89 84.0564C164.358 84.0564 163.841 83.9495 163.358 83.7344C162.108 83.1789 161.227 81.9441 160.942 80.3461L160.941 80.3453C160.809 80.3439 160.657 80.3387 160.49 80.3306C160.278 80.3196 160.094 80.1914 160.011 79.9954C159.926 79.7979 159.96 79.5732 160.099 79.4089C160.551 78.877 160.866 78.2316 161.061 77.4352C161.171 76.9901 161.322 76.5474 161.509 76.1193C162.176 74.6001 163.254 73.3727 164.546 72.6639C165.837 71.9544 167.187 71.8469 168.348 72.3626C169.508 72.8783 170.34 73.954 170.689 75.3921C171.038 76.8303 170.863 78.4585 170.197 79.9777C169.531 81.4961 168.452 82.7236 167.16 83.4338C166.407 83.8479 165.634 84.0564 164.89 84.0564ZM160.584 79.7456C160.718 79.7515 160.839 79.7552 160.947 79.7567L161.432 79.7626L161.518 80.2422C161.768 81.6442 162.525 82.7206 163.594 83.1958C164.585 83.6357 165.751 83.537 166.88 82.9166C168.059 82.269 169.047 81.1403 169.661 79.7405C170.276 78.3399 170.439 76.845 170.12 75.5328C169.815 74.2767 169.101 73.3425 168.111 72.9026C167.122 72.4628 165.955 72.5622 164.826 73.1819C163.647 73.8295 162.659 74.9574 162.045 76.358C161.87 76.7551 161.731 77.1655 161.629 77.5773C161.42 78.429 161.068 79.1584 160.584 79.7456Z" fill="#002544"/>
<path d="M166.024 78.8312C163.838 76.9436 163.854 74.088 164.093 73.0757C167.712 69.7293 172.899 71.625 173.421 75.7604C173.421 78.2713 173.693 79.5724 174.58 80.2148C176.661 81.3052 176.611 83.5457 176.482 84.8203L169.196 85.2565L168.722 81.443C167.992 81.2994 167.469 80.7615 167.275 80.4631C168 80.1029 168.869 79.0935 168.151 78.2705C167.433 77.4469 165.926 78.745 166.024 78.8312Z" fill="#002544"/>
<path d="M162.336 77.3109C162.26 77.3109 162.184 77.2815 162.126 77.2218C162.013 77.1054 162.015 76.9182 162.132 76.8048C162.576 76.3694 163.706 75.8006 164.799 76.762C164.921 76.8689 164.933 77.0553 164.827 77.1776C164.721 77.2999 164.536 77.3124 164.414 77.2056C163.45 76.3576 162.577 77.1908 162.541 77.2269C162.483 77.2829 162.41 77.3109 162.336 77.3109Z" fill="#002544"/>
<path d="M162.446 78.5831C162.388 78.5831 162.329 78.5654 162.278 78.5293C162.145 78.4358 162.114 78.2523 162.207 78.119C162.436 77.7911 162.872 77.4249 163.412 77.3815C163.877 77.3439 164.322 77.5406 164.735 77.9672C164.848 78.0836 164.845 78.2707 164.73 78.3842C164.614 78.4977 164.428 78.4954 164.315 78.379C164.03 78.0843 163.743 77.9473 163.459 77.9701C163.121 77.9974 162.831 78.2501 162.686 78.4586C162.629 78.5389 162.538 78.5831 162.446 78.5831Z" fill="#002544"/>
<path d="M163.482 78.6061C163.717 78.6061 163.908 78.4145 163.908 78.1781C163.908 77.9416 163.717 77.75 163.482 77.75C163.247 77.75 163.057 77.9416 163.057 78.1781C163.057 78.4145 163.247 78.6061 163.482 78.6061Z" fill="#002544"/>
<path d="M166.357 79.8578C166.309 79.8578 166.262 79.846 166.217 79.8217C166.075 79.7436 166.023 79.5646 166.1 79.4217C166.272 79.1034 166.817 78.5154 167.647 78.5699C167.808 78.5803 167.931 78.721 167.92 78.8831C167.91 79.0452 167.77 79.1697 167.609 79.1579C167.054 79.1233 166.703 79.5395 166.614 79.7031C166.561 79.8018 166.46 79.8578 166.357 79.8578Z" fill="#002544"/>
<path d="M167.185 80.1942C167.139 80.1942 167.092 80.1831 167.048 80.1595C166.905 80.0836 166.85 79.9053 166.926 79.7609C167.004 79.6136 167.03 79.4891 167 79.4191C166.975 79.3616 166.912 79.3439 166.909 79.3432C166.753 79.3012 166.66 79.1398 166.701 78.9829C166.743 78.826 166.903 78.7317 167.059 78.7737C167.272 78.8304 167.45 78.9836 167.536 79.1826C167.609 79.352 167.653 79.6372 167.443 80.0358C167.391 80.1367 167.289 80.1942 167.185 80.1942Z" fill="#002544"/>
<path d="M164.529 86.0589C164.38 86.0589 164.253 85.9454 164.238 85.7929L164.061 83.9871C164.045 83.8251 164.163 83.6807 164.324 83.6652C164.485 83.649 164.629 83.7676 164.644 83.9297L164.821 85.7355C164.837 85.8975 164.719 86.042 164.558 86.0574C164.548 86.0582 164.539 86.0589 164.529 86.0589ZM169.211 85.7281C169.065 85.7281 168.938 85.6176 168.92 85.4673L168.526 82.051C168.508 81.8896 168.623 81.743 168.783 81.7246C168.945 81.7062 169.09 81.8218 169.108 81.9832L169.502 85.3995C169.52 85.5609 169.405 85.7075 169.245 85.7259C169.234 85.7274 169.222 85.7281 169.211 85.7281Z" fill="#002544"/>
<path d="M164.761 85.3789L164.247 83.6423C165.895 83.8015 167.546 83.1023 168.165 82.7324C166.925 84.4019 165.379 85.1925 164.761 85.3789Z" fill="#002544"/>
<path d="M213.733 95.9886L213.224 95.6975L214.618 93.2235L225.961 86.2781C226.568 85.9288 226.669 85.6621 226.657 85.5966C226.645 85.5354 226.5 85.4249 226.147 85.3726L226.122 84.7942C226.515 84.6999 226.887 84.2616 226.918 83.8556C226.954 83.3738 226.525 83.0938 226.158 82.9435L225.546 82.693L226.141 82.4049C226.437 82.2613 226.649 81.9393 226.644 81.6387C226.638 81.2924 226.349 81.0928 226.109 80.9867C226.04 80.9557 225.778 80.8828 225.474 80.9432C225.155 81.0066 224.195 81.3359 223.627 81.5429L223.328 81.0508L225.257 79.2339C225.446 79.0571 225.463 78.7049 225.295 78.4655C225.113 78.2061 224.789 78.1774 224.38 78.3844L215.6 84.3175L217.752 78.8567C217.866 78.4633 217.674 77.921 217.354 77.7353C216.939 77.4944 216.448 77.9225 216.194 78.1988L216.179 78.2135C215.55 78.8044 211.01 84.7928 208.094 88.6961L206.908 91.9165L206.358 91.7117L207.574 88.4103L207.6 88.3756C207.896 87.9785 214.853 78.6688 215.771 77.7891C216.077 77.4605 216.857 76.7658 217.647 77.224C218.206 77.5489 218.51 78.38 218.309 79.0387L218.301 79.0608L216.84 82.7681L224.082 77.8746L224.097 77.8665C224.907 77.448 225.494 77.725 225.774 78.1243C226.112 78.6069 226.061 79.2825 225.658 79.6627L224.723 80.5431C224.98 80.4614 225.215 80.3928 225.361 80.3641C225.799 80.2779 226.186 80.3752 226.346 80.4466C226.899 80.6905 227.221 81.1215 227.23 81.6276C227.236 81.9887 227.077 82.3541 226.817 82.6267C227.295 82.9464 227.54 83.3937 227.502 83.8998C227.47 84.3234 227.239 84.7375 226.908 85.0234C227.134 85.1759 227.209 85.3601 227.233 85.4868C227.313 85.9156 226.966 86.3775 226.256 86.7872L215.052 93.6471L213.733 95.9886Z" fill="#002544"/>
<path d="M220.029 88.413C219.92 88.413 219.816 88.3518 219.765 88.2472C219.694 88.1006 219.754 87.9245 219.9 87.853L226.11 84.8028C226.255 84.7314 226.431 84.7925 226.502 84.9384C226.573 85.085 226.513 85.2611 226.367 85.3326L220.157 88.3828C220.116 88.4034 220.072 88.413 220.029 88.413ZM219.591 86.2189C219.482 86.2189 219.378 86.1577 219.327 86.0524C219.257 85.9058 219.318 85.7297 219.463 85.6589L226.214 82.3737C226.36 82.303 226.535 82.3641 226.605 82.5108C226.676 82.6574 226.615 82.8335 226.469 82.9042L219.718 86.1894C219.677 86.2093 219.634 86.2189 219.591 86.2189ZM219.635 84.4094C219.545 84.4094 219.455 84.3674 219.398 84.2886C219.303 84.1567 219.331 83.9725 219.462 83.8767L223.601 80.8398C223.732 80.744 223.915 80.7727 224.011 80.9039C224.106 81.0358 224.077 81.22 223.947 81.3157L219.808 84.3527C219.756 84.391 219.695 84.4094 219.635 84.4094Z" fill="#002544"/>
<path d="M127.635 78.825C127.235 78.1692 125.814 75.8676 124.324 73.7885C122.369 71.0603 121.806 70.851 121.717 70.8363C121.452 70.9711 121.072 72.3783 120.867 73.1379C120.404 74.8546 120.112 75.8271 119.491 75.8271C119.489 75.8271 119.488 75.8271 119.485 75.8271C119.042 75.8234 118.633 75.3615 118.072 73.1217C116.447 66.7834 121.942 62.9073 125.311 61.632C124.941 60.6189 124.249 58.5892 123.71 56.5646C123.322 55.1036 123.73 54.3624 124.242 54.1561C124.741 53.955 125.319 54.2372 125.648 54.8413C130.101 63.0385 134.978 71.993 135.162 72.2826C135.158 72.2774 135.155 72.2737 135.154 72.2708L134.684 72.6237C134.536 72.424 127.336 59.1786 125.133 55.1235C124.955 54.7941 124.671 54.6173 124.46 54.7028C124.183 54.8148 124.006 55.3975 124.277 56.4121C124.865 58.6231 125.637 60.84 125.964 61.7035L126.071 61.9871L125.785 62.0866C122.629 63.1843 117.075 66.8725 118.639 72.9766C119.104 74.8339 119.408 75.1706 119.49 75.2296C119.743 75.0528 120.092 73.7627 120.301 72.9839C120.768 71.2533 121.063 70.2727 121.686 70.2469C122.074 70.2299 122.75 70.5917 124.764 73.3965C126.277 75.5029 127.726 77.8488 128.134 78.5177L127.635 78.825Z" fill="#002544"/>
<path d="M164.179 83.7087C162.653 83.5813 161.651 81.9044 161.34 81.0814C161.575 80.9672 161.509 80.9584 159.364 81.8359C157.22 82.7126 157.245 85.0187 157.525 86.0619L164.451 85.5138L164.179 83.7087Z" fill="#002544"/>
<path d="M156.195 85.8338L178.849 84.5923C182.525 85.055 186.216 88.2746 187.602 89.827L198.061 102.253L206.628 89.827L214.797 94.7087C212.771 99.0276 207.525 108.426 202.744 111.473C197.962 114.519 193.645 111.406 192.085 109.468L182.322 98.8456L183.417 113.277L153.134 115.08L154.329 104.057L144.37 109.468C140.157 111.473 136.338 110.8 132.812 105.26C129.417 99.9235 126.013 83.1932 125.055 75.2665L135.97 71.8066L140.157 94.7087C141.678 93.8313 144.784 91.5982 146.338 90.5453C150.914 87.2056 153.795 86.0364 156.195 85.8338Z" fill="#BFD22B"/>
<path d="M154.384 103.167C154.381 103.167 154.378 103.167 154.375 103.167C154.213 103.162 154.087 103.026 154.091 102.863L154.236 98.0087C154.241 97.8458 154.377 97.7176 154.538 97.7228C154.7 97.728 154.826 97.8635 154.822 98.0264L154.677 102.881C154.672 103.04 154.542 103.167 154.384 103.167Z" fill="#002544"/>
<path d="M182.272 97.7948C182.269 97.7948 182.266 97.7948 182.263 97.7948C182.101 97.7896 181.974 97.6541 181.979 97.4913L182.124 92.6375C182.129 92.4747 182.261 92.3473 182.425 92.3517C182.587 92.3568 182.714 92.4924 182.71 92.6552L182.565 97.5089C182.559 97.6681 182.43 97.7948 182.272 97.7948Z" fill="#002544"/>
<path d="M197.861 108.021C197.858 108.021 197.856 108.021 197.853 108.021C197.691 108.016 197.564 107.881 197.568 107.718L197.713 102.864C197.719 102.701 197.852 102.575 198.015 102.578C198.177 102.583 198.304 102.719 198.299 102.882L198.154 107.736C198.149 107.895 198.02 108.021 197.861 108.021Z" fill="#002544"/>
<path d="M135.599 98.1507C135.51 98.1507 135.421 98.1094 135.363 98.0313C135.267 97.9009 135.295 97.716 135.424 97.6187L139.301 94.7262C139.431 94.629 139.615 94.6562 139.712 94.7874C139.808 94.9178 139.78 95.1027 139.651 95.2L135.774 98.0925C135.722 98.1315 135.66 98.1507 135.599 98.1507Z" fill="#002544"/>
<path d="M153.674 204.227L152.85 203.546C152.407 203.18 148.516 199.912 148.368 197.905C148.341 197.535 148.438 197.224 148.658 196.979C148.934 196.673 149.237 196.657 149.444 196.698C151.006 197.007 152.94 202.184 153.312 203.218L153.674 204.227ZM149.28 197.271C149.227 197.271 149.166 197.292 149.092 197.375C148.983 197.497 148.937 197.656 148.952 197.862C148.983 198.282 149.28 199.079 150.522 200.492C151.037 201.078 151.683 201.728 152.35 202.334C151.356 199.827 150.077 197.424 149.33 197.276C149.314 197.273 149.297 197.271 149.28 197.271Z" fill="#002544"/>
<path d="M153.331 204.329L152.817 203.389C152.541 202.884 150.134 198.395 150.737 196.478C150.848 196.124 151.054 195.871 151.348 195.726C151.717 195.544 152.005 195.642 152.181 195.757C152.375 195.883 152.964 196.268 153.242 198.957C153.369 200.182 153.415 201.79 153.366 203.257L153.331 204.329ZM151.749 196.216C151.711 196.216 151.664 196.227 151.606 196.255C151.46 196.327 151.358 196.459 151.297 196.655C151.171 197.057 151.152 197.909 151.784 199.683C152.046 200.42 152.407 201.266 152.803 202.079C152.811 199.041 152.435 196.624 151.864 196.252C151.832 196.232 151.797 196.216 151.749 196.216Z" fill="#002544"/>
<path d="M153.136 203.346C153.033 203.346 152.933 203.291 152.88 203.194C152.523 202.547 152.264 201.473 152.605 200.399C152.936 199.355 153.746 198.516 155.012 197.908C156.121 197.376 156.83 196.655 157.117 195.767C157.41 194.86 157.199 193.95 156.904 193.4C156.827 193.257 156.879 193.078 157.022 193.001C157.164 192.923 157.342 192.976 157.418 193.119C157.772 193.777 158.025 194.865 157.674 195.949C157.335 196.996 156.525 197.835 155.265 198.439C154.151 198.974 153.444 199.694 153.163 200.578C152.879 201.473 153.095 202.368 153.393 202.907C153.471 203.049 153.42 203.229 153.278 203.308C153.233 203.334 153.185 203.346 153.136 203.346Z" fill="#002544"/>
<path d="M219.88 191.067C219.822 191.067 219.765 191.065 219.71 191.059C219.343 191.024 219.054 190.875 218.851 190.617C218.597 190.292 218.632 189.988 218.707 189.791C219.271 188.294 224.668 187.24 225.744 187.044L226.793 186.854L225.988 187.557C225.567 187.924 221.911 191.067 219.88 191.067ZM224.716 187.85C222.093 188.417 219.524 189.283 219.254 189.999C219.23 190.063 219.22 190.137 219.311 190.252C219.412 190.381 219.561 190.453 219.765 190.472C220.181 190.512 221.013 190.35 222.606 189.356C223.265 188.942 224.01 188.41 224.716 187.85Z" fill="#002544"/>
<path d="M220.214 188.748C219.62 188.748 219.094 188.669 218.709 188.47C218.381 188.301 218.167 188.055 218.074 187.739C217.957 187.342 218.102 187.073 218.244 186.918C218.4 186.747 218.875 186.226 221.558 186.401C222.779 186.48 224.363 186.703 225.792 186.996L226.837 187.21L225.83 187.563C225.406 187.711 222.366 188.748 220.214 188.748ZM220.553 186.955C219.576 186.955 218.897 187.073 218.676 187.316C218.63 187.365 218.594 187.431 218.635 187.571C218.682 187.729 218.793 187.851 218.976 187.946C219.349 188.138 220.18 188.298 222.026 187.969C222.792 187.833 223.681 187.615 224.544 187.358C223.001 187.092 221.605 186.955 220.553 186.955Z" fill="#002544"/>
<path d="M224.482 187.659C223.966 187.659 223.401 187.553 222.865 187.273C221.896 186.769 221.21 185.826 220.826 184.469C220.489 183.279 219.901 182.457 219.079 182.024C218.239 181.581 217.311 181.639 216.724 181.84C216.571 181.892 216.404 181.81 216.352 181.656C216.3 181.502 216.382 181.334 216.535 181.281C217.238 181.04 218.347 180.972 219.351 181.501C220.32 182.012 221.007 182.956 221.389 184.307C221.727 185.501 222.314 186.322 223.133 186.749C223.963 187.181 224.877 187.116 225.454 186.911C225.607 186.856 225.774 186.937 225.828 187.091C225.881 187.244 225.802 187.413 225.649 187.466C225.329 187.581 224.923 187.659 224.482 187.659Z" fill="#002544"/>
<path d="M162.923 81.9556C162.789 81.9556 162.668 81.862 162.638 81.7242C162.603 81.5651 162.703 81.4081 162.861 81.3735L164.335 81.0479C164.493 81.0132 164.649 81.1134 164.683 81.2726C164.718 81.4317 164.618 81.5886 164.46 81.6233L162.986 81.9489C162.965 81.9533 162.945 81.9556 162.923 81.9556Z" fill="#002544"/>
</g>
<defs>
<clipPath id="clip0">
<rect width="196" height="194" fill="white" transform="translate(69.5 17)"/>
</clipPath>
</defs>
</svg>
