<svg width="65" height="65" viewBox="0 0 65 65" fill="none" xmlns="http://www.w3.org/2000/svg">
<path d="M41.6713 41.6973C46.4407 41.6973 50.3054 45.4514 50.3054 50.0786C50.3054 54.7059 46.4381 58.46 41.6713 58.46C36.9045 58.46 33.0371 54.7059 33.0371 50.0786C33.0371 49.5967 33.0798 49.1252 33.1599 48.664" stroke="#25272A"/>
<path d="M28.5605 49.7421C28.5605 56.7711 34.4296 62.8052 41.6706 62.8052C48.9115 62.8052 54.7806 57.1079 54.7806 50.079C54.7806 43.6796 49.9151 38.3839 43.5789 37.4849" stroke="#25272A"/>
<path d="M42.0716 53.5039V54.4004H41.4444V53.5143C40.3982 53.4547 39.6081 53.035 39.0957 52.4676L39.6081 51.8406C40.0085 52.2785 40.633 52.6878 41.4444 52.7681V50.3483C40.3982 50.0789 39.3092 49.7317 39.3092 48.5062C39.3092 47.4699 40.2113 46.7444 41.4444 46.6641V45.7573H42.0716V46.6848C42.923 46.7548 43.6009 47.0838 44.092 47.5916L43.5796 48.1979C43.1792 47.76 42.6454 47.5217 42.0716 47.4414V49.6021C43.1285 49.8923 44.2468 50.2706 44.2468 51.5738C44.2468 52.4702 43.6623 53.3951 42.0716 53.5039ZM41.4471 49.4415V47.4103C40.7078 47.4491 40.1953 47.8689 40.1953 48.457C40.1953 49.0244 40.7585 49.2524 41.4471 49.4415ZM43.3741 51.6437C43.3741 50.9675 42.7789 50.7162 42.0716 50.5089V52.7604C43.0565 52.6775 43.3741 52.0997 43.3741 51.6437Z" fill="#25272A"/>
<path d="M57.339 5.65984L58.7002 12.7924C58.7136 12.8676 58.7963 12.909 58.8684 12.8805L64.3291 10.6783C64.4599 10.6265 64.564 10.7949 64.4519 10.8804L59.3461 14.7718C59.274 14.8262 59.2874 14.9325 59.3675 14.9713L63.7206 17.0492C63.8487 17.1088 63.7846 17.2979 63.6432 17.272L58.516 16.3445C58.4333 16.3289 58.3586 16.3989 58.3719 16.4818L59.4635 22.7646C59.4876 22.9019 59.2874 22.9589 59.2313 22.832L56.525 16.6891C56.4903 16.6087 56.3835 16.5932 56.3221 16.6554L51.4806 21.7438C51.3845 21.8448 51.2164 21.7308 51.2831 21.6065L54.4645 15.8211C54.4992 15.7564 54.4672 15.676 54.3951 15.6527L49.5696 14.0801C49.4415 14.0386 49.4682 13.8573 49.6017 13.8495L54.1096 13.5749C54.195 13.5697 54.2483 13.4816 54.2137 13.4065L52.9139 10.699C52.8605 10.585 52.9993 10.4788 53.1007 10.5565L55.6282 12.4997C55.7003 12.5541 55.807 12.5152 55.823 12.4271L57.0935 5.66243C57.1228 5.53288 57.315 5.53029 57.339 5.65984Z" fill="#2C68C9"/>
<path d="M27.0609 43.8014C33.4361 43.8014 38.6042 38.7846 38.6042 32.596C38.6042 26.4075 33.4361 21.3906 27.0609 21.3906C20.6857 21.3906 15.5176 26.4075 15.5176 32.596C15.5176 38.7846 20.6857 43.8014 27.0609 43.8014Z" stroke="#25272A"/>
<path d="M27.0604 49.6097C36.7404 49.6097 44.5876 41.9922 44.5876 32.5956C44.5876 23.199 36.7404 15.5815 27.0604 15.5815C17.3804 15.5815 9.5332 23.199 9.5332 32.5956C9.5332 41.9922 17.3804 49.6097 27.0604 49.6097Z" stroke="#25272A"/>
<path d="M27.5986 37.1762V38.3758H26.7605V37.1918C25.362 37.1114 24.3051 36.5518 23.6191 35.7927L24.3051 34.9533C24.8389 35.5388 25.6769 36.0855 26.7605 36.1917V32.9557C25.362 32.5956 23.9074 32.1293 23.9074 30.4918C23.9074 29.1083 25.1138 28.1342 26.7605 28.0279V26.8154H27.5986V28.0539C28.7356 28.1471 29.643 28.5876 30.2996 29.2664L29.6137 30.0773C29.0799 29.4918 28.3646 29.1731 27.5986 29.0643V31.9531C29.0105 32.3391 30.5051 32.8443 30.5051 34.5906C30.5051 35.7901 29.7231 37.0285 27.5986 37.1762ZM26.7605 31.7432V29.0254C25.773 29.0798 25.0871 29.6369 25.0871 30.4245C25.0871 31.1836 25.8424 31.4893 26.7605 31.7432ZM29.3388 34.6864C29.3388 33.7822 28.5434 33.448 27.5959 33.1682V36.1762C28.9144 36.0699 29.3388 35.2979 29.3388 34.6864Z" fill="#25272A"/>
<path d="M43.1811 14.1206C42.8504 14.1206 42.582 13.8388 42.582 13.4931C42.582 13.1475 42.8511 12.8657 43.1811 12.8657C43.5111 12.8657 43.7802 13.1475 43.7802 13.4931C43.7802 13.8388 43.5118 14.1206 43.1811 14.1206ZM43.1811 13.4037C43.1342 13.4037 43.0957 13.444 43.0957 13.4931C43.0957 13.5422 43.1342 13.5826 43.1811 13.5826C43.228 13.5826 43.2665 13.5422 43.2665 13.4931C43.2665 13.444 43.2286 13.4037 43.1811 13.4037Z" fill="#25272A"/>
<path d="M1.09907 37.852C0.768396 37.852 0.5 37.5702 0.5 37.2246C0.5 36.8789 0.769038 36.5972 1.09907 36.5972C1.42911 36.5972 1.69814 36.8789 1.69814 37.2246C1.69814 37.5702 1.42975 37.852 1.09907 37.852ZM1.09907 37.1351C1.0522 37.1351 1.01367 37.1755 1.01367 37.2246C1.01367 37.2737 1.0522 37.314 1.09907 37.314C1.14595 37.314 1.18447 37.2737 1.18447 37.2246C1.18447 37.1755 1.14659 37.1351 1.09907 37.1351Z" fill="#25272A"/>
<path d="M27.9351 5.67152C27.8542 5.67152 27.7739 5.63118 27.7238 5.55653C27.6429 5.43481 27.6712 5.26669 27.788 5.18196L29.7008 3.78654C29.817 3.70181 29.9776 3.7314 30.0585 3.85379C30.1394 3.97551 30.1111 4.14363 29.9942 4.22836L28.0815 5.62378C28.0365 5.65539 27.9858 5.67152 27.9351 5.67152Z" fill="#25272A"/>
<path d="M58.6206 36.7047C58.5397 36.7047 58.4594 36.6644 58.4094 36.5897C58.3285 36.468 58.3567 36.2999 58.4736 36.2152L60.3864 34.8197C60.5026 34.735 60.6631 34.7646 60.744 34.887C60.8249 35.0087 60.7967 35.1768 60.6798 35.2616L58.767 36.657C58.7221 36.6886 58.6713 36.7047 58.6206 36.7047Z" fill="#25272A"/>
<path d="M5.88901 50.4484C5.87453 50.3655 5.8983 50.2761 5.95988 50.2114C6.06043 50.1068 6.22436 50.1056 6.32535 50.2102L7.98633 51.9197C8.0872 52.0236 8.08796 52.1933 7.98677 52.2981C7.88622 52.4027 7.72229 52.4039 7.6213 52.2994L5.96032 50.5898C5.92241 50.5494 5.89808 50.5003 5.88901 50.4484Z" fill="#25272A"/>
<path d="M19.1675 65.0001C19.0866 65.0001 19.0063 64.9598 18.9562 64.8851C18.8753 64.7634 18.9036 64.5953 19.0204 64.5106L20.9332 63.1152C21.0495 63.0304 21.21 63.06 21.2909 63.1824C21.3718 63.3041 21.3435 63.4722 21.2267 63.557L19.3139 64.9524C19.2689 64.984 19.2182 65.0001 19.1675 65.0001Z" fill="#25272A"/>
<path d="M11.9658 1.17096C11.8714 1.03481 11.9052 0.847898 12.0413 0.753479C12.1775 0.65906 12.3644 0.69289 12.4588 0.82904L11.9658 1.17096ZM14.6082 6.05582C14.6166 6.22129 14.4892 6.36223 14.3238 6.3706C14.1583 6.37898 14.0174 6.25162 14.009 6.08615L14.6082 6.05582ZM4.86594 15.8867C4.70057 15.8766 4.57472 15.7343 4.58487 15.5689C4.59501 15.4035 4.73729 15.2777 4.90267 15.2878L4.86594 15.8867ZM6.17879 15.2697C6.34369 15.2536 6.49046 15.3741 6.50662 15.539C6.52278 15.7039 6.4022 15.8507 6.2373 15.8669L6.17879 15.2697ZM14.0026 6.53534C14.0169 6.37027 14.1622 6.24801 14.3273 6.26227C14.4924 6.27653 14.6146 6.42191 14.6004 6.58698L14.0026 6.53534ZM14.4902 7.17958C14.4426 7.33829 14.2754 7.42838 14.1167 7.3808C13.9579 7.33323 13.8679 7.166 13.9154 7.0073L14.4902 7.17958ZM13.828 7.23962C13.8968 7.08891 14.0748 7.02255 14.2255 7.09139C14.3762 7.16023 14.4426 7.33821 14.3737 7.48891L13.828 7.23962ZM13.9802 8.07666C13.8665 8.19722 13.6767 8.20283 13.5561 8.08918C13.4355 7.97553 13.4299 7.78567 13.5436 7.6651L13.9802 8.07666ZM13.4245 7.7782C13.5502 7.67027 13.7396 7.68467 13.8476 7.81038C13.9555 7.93609 13.9411 8.12549 13.8154 8.23342L13.4245 7.7782ZM12.7985 8.44613L12.8893 8.73207L12.8893 8.73208L12.7985 8.44613ZM6.84819 4.54012L6.57259 4.65902L6.56899 4.64987L6.84819 4.54012ZM8.46037 2.46499L8.30795 2.72339L8.30792 2.72337L8.46037 2.46499ZM11.3329 9.69744L11.6329 9.68505L11.6329 9.69604L11.3329 9.69744ZM8.89791 15.0006C8.75754 15.0886 8.57239 15.0462 8.48437 14.9058C8.39634 14.7654 8.43877 14.5803 8.57914 14.4923L8.89791 15.0006ZM8.19024 14.7114C8.33808 14.6366 8.51857 14.6958 8.59337 14.8437C8.66817 14.9915 8.60896 15.172 8.46112 15.2468L8.19024 14.7114ZM8.14578 15.3938C7.99348 15.459 7.81712 15.3885 7.75188 15.2362C7.68664 15.0839 7.75721 14.9075 7.90951 14.8423L8.14578 15.3938ZM7.69463 14.9283C7.84968 14.8699 8.02272 14.9483 8.08111 15.1033C8.13951 15.2584 8.06116 15.4314 7.9061 15.4898L7.69463 14.9283ZM7.32319 15.6752C7.16296 15.7174 6.99888 15.6217 6.95669 15.4615C6.91451 15.3013 7.0102 15.1372 7.17043 15.095L7.32319 15.6752ZM6.9502 15.148C7.11193 15.112 7.27221 15.2139 7.3082 15.3757C7.34419 15.5374 7.24226 15.6977 7.08053 15.7337L6.9502 15.148ZM6.45825 15.8419C6.29392 15.863 6.14359 15.7469 6.12249 15.5825C6.10139 15.4182 6.21751 15.2679 6.38184 15.2468L6.45825 15.8419ZM12.4588 0.82904C12.9066 1.47471 13.4189 2.33722 13.8312 3.2552C14.2416 4.16916 14.5629 5.15984 14.6082 6.05582L14.009 6.08615C13.969 5.29719 13.6808 4.38499 13.2838 3.50101C12.8886 2.62104 12.3955 1.79053 11.9658 1.17096L12.4588 0.82904ZM4.90267 15.2878C5.36118 15.3159 5.7858 15.3082 6.17879 15.2697L6.2373 15.8669C5.81028 15.9087 5.35372 15.9166 4.86594 15.8867L4.90267 15.2878ZM14.6004 6.58698C14.5828 6.79052 14.5472 6.98926 14.4902 7.17958L13.9154 7.0073C13.9592 6.86117 13.9881 6.70338 14.0026 6.53534L14.6004 6.58698ZM14.3737 7.48891C14.2763 7.7023 14.1465 7.90026 13.9802 8.07666L13.5436 7.6651C13.6624 7.5391 13.7562 7.39671 13.828 7.23962L14.3737 7.48891ZM13.8154 8.23342C13.5657 8.44783 13.2576 8.6152 12.8893 8.73207L12.7078 8.16018C13.01 8.06427 13.2441 7.93309 13.4245 7.7782L13.8154 8.23342ZM12.8893 8.73208C11.2554 9.25041 9.84496 8.63867 8.77629 7.71404C7.71259 6.79371 6.95184 5.53771 6.57273 4.65896L7.12365 4.42128C7.47734 5.24112 8.19098 6.41422 9.16887 7.2603C10.1418 8.10208 11.3402 8.59405 12.7078 8.16017L12.8893 8.73208ZM6.56899 4.64987C6.43119 4.29931 6.32861 3.90183 6.28763 3.51973C6.24723 3.14319 6.26349 2.75245 6.39095 2.43287C6.52531 2.09602 6.79059 1.83046 7.21099 1.78158C7.59848 1.73652 8.06513 1.88348 8.61281 2.20661L8.30792 2.72337C7.80036 2.42391 7.47345 2.3551 7.28029 2.37756C7.12003 2.3962 7.01755 2.48145 6.94826 2.65516C6.87208 2.84615 6.8488 3.12574 6.8842 3.45574C6.91901 3.78018 7.00754 4.12547 7.1274 4.43037L6.56899 4.64987ZM8.61279 2.2066C9.76907 2.88866 10.4959 4.31818 10.945 5.74864C11.3989 7.19439 11.5927 8.71803 11.6327 9.68506L11.0332 9.70982C10.995 8.7847 10.8078 7.31457 10.3725 5.92836C9.93252 4.52686 9.26213 3.28623 8.30795 2.72339L8.61279 2.2066ZM11.6329 9.69604C11.6399 11.178 11.032 13.6623 8.89791 15.0006L8.57914 14.4923C10.4687 13.3073 11.0393 11.0699 11.0329 9.69884L11.6329 9.69604ZM8.46112 15.2468C8.35883 15.2985 8.25375 15.3475 8.14578 15.3938L7.90951 14.8423C8.00602 14.8009 8.09954 14.7573 8.19024 14.7114L8.46112 15.2468ZM7.9061 15.4898C7.71995 15.5599 7.52572 15.6219 7.32319 15.6752L7.17043 15.095C7.35359 15.0468 7.5282 14.991 7.69463 14.9283L7.9061 15.4898ZM7.08053 15.7337C6.88066 15.7781 6.67329 15.8143 6.45825 15.8419L6.38184 15.2468C6.57963 15.2214 6.76897 15.1883 6.9502 15.148L7.08053 15.7337Z" fill="#2C68C9"/>
</svg>
