<svg width="124" height="124" viewBox="0 0 124 124" fill="none" xmlns="http://www.w3.org/2000/svg">
<circle cx="62" cy="62" r="62" fill="#E9F6F6"/>
<path d="M62 33.0036C78.7248 33.0036 92.2817 46.5605 92.2817 63.2854C92.2817 80.0102 78.7248 93.5671 62 93.5671C45.2751 93.5671 31.7183 80.0102 31.7183 63.2854" stroke="#25272A" stroke-width="1.5" stroke-linecap="round" stroke-linejoin="round"/>
<path d="M62.0001 42.0844C73.712 42.0844 83.201 51.581 83.201 63.2854C83.201 74.9898 73.712 84.4863 62.0001 84.4863C50.2881 84.4863 40.7991 74.9973 40.7991 63.2854" stroke="#25272A" stroke-width="1.5" stroke-linecap="round" stroke-linejoin="round"/>
<path d="M62 53.0705C67.6405 53.0705 72.2149 57.6449 72.2149 63.2854C72.2149 68.9258 67.6405 73.5002 62 73.5002C56.3595 73.5002 51.7852 68.9258 51.7852 63.2854" stroke="#25272A" stroke-width="1.5" stroke-linecap="round" stroke-linejoin="round"/>
<path d="M56.2688 38.8407C56.0495 38.2585 55.4976 37.8729 54.8776 37.8654H48.8439C48.6322 37.8654 48.4432 37.7293 48.3751 37.5327L46.2051 31.3932C45.9859 30.811 45.4339 30.4254 44.8139 30.4254C44.1939 30.4254 43.642 30.811 43.4227 31.3932L43.4152 31.4083L41.2527 37.5327C41.1847 37.7293 40.9956 37.8654 40.7839 37.8654H34.7427C34.1152 37.8654 33.5556 38.2585 33.3439 38.8483C33.1322 39.4381 33.3061 40.0959 33.79 40.4966L38.9315 44.761C39.0903 44.8895 39.1508 45.1088 39.0827 45.2978L36.9203 51.77C36.7161 52.3824 36.9354 53.0629 37.4571 53.441C37.9788 53.819 38.6895 53.819 39.2112 53.441L44.5115 49.5546C44.6854 49.4261 44.9198 49.4261 45.0937 49.5546L50.3939 53.441C50.9156 53.8266 51.6264 53.8266 52.1481 53.4485C52.6698 53.0705 52.8891 52.39 52.6849 51.7776L50.5225 45.2978C50.4544 45.1012 50.5225 44.8895 50.6737 44.761L55.8227 40.489C56.3142 40.0807 56.4805 39.4229 56.2688 38.8407Z" stroke="#25272A" stroke-width="1.5"/>
</svg>
