<svg width="335" height="228" viewBox="0 0 335 228" fill="none" xmlns="http://www.w3.org/2000/svg">
<path d="M124.012 158.465L75.1709 177.348C99.3548 187.288 149.569 206.029 149.569 206.029C153.462 201.45 155.295 196.753 157.236 192.683L124.012 158.465Z" fill="#BFD22B"/>
<path d="M187.365 112.193L111.247 103.426C110.641 105.329 119.248 118.752 123.628 125.226L133.522 137.352C133.522 137.352 139.83 136.665 148.119 134.512C175.679 129.667 185.795 117.621 187.365 112.193Z" fill="#BFD22B"/>
<path d="M170.685 71.5247L122.042 53.1602C122.042 53.1602 107.21 75.0008 107.898 90.6251C108.546 105.358 123.456 125.035 123.456 125.035C123.456 125.035 99.2624 129.949 89.0391 140.578C78.1976 151.849 74.8945 178.043 74.8945 178.043L149.856 206.343C149.856 206.343 164.687 184.502 164 168.879C163.352 154.145 148.443 134.468 148.443 134.468C148.443 134.468 172.636 129.554 182.859 118.925C190.37 111.117 194.263 96.1458 195.945 87.6848" stroke="#002544" stroke-width="0.583975"/>
<path d="M73.3127 176.123L152.314 205.949C152.956 206.192 153.279 206.908 153.037 207.549C152.795 208.19 152.079 208.514 151.438 208.271L72.436 178.445C71.7943 178.203 71.4709 177.487 71.7133 176.846C71.9556 176.204 72.6717 175.881 73.3127 176.123Z" fill="#002544"/>
<path d="M170.271 70.046L120.459 51.2406C119.818 50.9982 119.102 51.3223 118.86 51.9632C118.617 52.6041 118.941 53.321 119.582 53.5626L171.396 73.1236L170.271 70.046Z" fill="#002544"/>
<path d="M192.421 92.3752C179.978 89.7342 172.484 77.5393 170.283 71.8047C170.728 72.8836 172.614 74.7895 177.057 78.8525C180.613 82.1031 191.151 86.1741 195.976 87.8034C195.722 88.9042 194.909 92.273 193.69 96.9456C190.135 108.881 187.076 112.764 186.956 112.764C191.578 106.315 192.463 96.4382 192.421 92.3752Z" fill="#002544"/>
<path d="M202.877 59.8906L208.473 61.525C207.327 65.0946 208.999 72.5833 213.698 74.0418C221.231 76.3799 223.26 69.2934 223.22 65.8866L227.406 67.1998L233.069 104.262H196.524L197.934 88.8142L207.748 91.3932L209.215 86.5396L211.556 88.0178C212.119 89.9712 213.382 94.0524 213.931 94.7423C214.841 95.8088 215.212 94.9255 215.284 94.3503L214.598 90.5267C215.218 91.664 216.64 94.0992 217.362 94.7423C218.083 95.3854 218.407 94.5919 218.48 94.1152C219.373 94.7897 220.015 93.8342 220.224 93.2721C221.056 93.7897 221.316 93.056 221.342 92.6246L219.067 86.1155L216.99 84.7972C217.369 84.7972 218.71 85.0965 219.558 85.0965C221.251 84.9548 220.486 83.8088 219.891 83.2533L211.556 78.7881L212.06 77.1215L201.623 73.6476L202.877 59.8906Z" fill="#005DAA"/>
<path d="M230.57 208.706H227.884C226.51 208.706 225.424 207.542 225.518 206.171L226.239 195.77C226.319 194.624 227.208 193.699 228.351 193.576L239.427 192.385C239.894 192.334 240.367 192.424 240.783 192.642L262.87 204.235C263.39 204.508 263.791 204.964 263.994 205.515C264.564 207.064 263.418 208.706 261.769 208.706H233.128" fill="#002544"/>
<path d="M210.624 208.706H213.308C214.682 208.706 215.769 207.542 215.674 206.171L214.954 195.77C214.874 194.624 213.984 193.699 212.842 193.576L201.765 192.385C201.298 192.334 200.826 192.424 200.41 192.642L178.322 204.235C177.803 204.508 177.402 204.964 177.199 205.515C176.629 207.064 177.774 208.706 179.424 208.706H208.065" fill="#002544"/>
<path d="M238.818 173.409L240.137 194.143M226.665 195.537L227.029 172.922L226.665 195.537Z" stroke="#002544" stroke-width="0.583975" stroke-linecap="round"/>
<path d="M202.407 172.922L201.057 194.143M214.506 195.537V172.922V195.537Z" stroke="#002544" stroke-width="0.583975" stroke-linecap="round"/>
<path d="M239.96 192.636C240.369 190.283 241.591 185.667 243.21 186.028C244.829 186.39 241.718 190.584 239.96 192.636Z" stroke="#002544" stroke-width="0.583975"/>
<path d="M201.234 192.636C200.826 190.283 199.603 185.667 197.985 186.028C196.366 186.39 199.477 190.584 201.234 192.636Z" stroke="#002544" stroke-width="0.583975"/>
<path d="M240.039 192.636C241.292 190.603 244.141 186.771 245.51 187.707C246.879 188.644 242.433 191.384 240.039 192.636Z" stroke="#002544" stroke-width="0.583975"/>
<path d="M201.155 192.636C199.902 190.603 197.053 186.771 195.684 187.707C194.315 188.644 198.762 191.384 201.155 192.636Z" stroke="#002544" stroke-width="0.583975"/>
<path d="M240.241 192.597C240.851 191.6 242.742 190.075 245.428 191.952C248.115 193.828 250.034 192.303 250.659 191.306" stroke="#002544" stroke-width="0.583975" stroke-linecap="round"/>
<path d="M200.954 192.597C200.344 191.6 198.453 190.075 195.766 191.952C193.08 193.828 191.16 192.303 190.536 191.306" stroke="#002544" stroke-width="0.583975" stroke-linecap="round"/>
<path d="M210.579 57.7316L210.537 57.4937L210.295 57.4908C209.989 57.4878 209.615 57.4645 209.291 57.4382C210.014 56.7849 210.454 55.9418 210.695 54.9694C210.798 54.5504 210.941 54.13 211.125 53.7132C211.788 52.2109 212.852 51.0678 214.024 50.4276C215.196 49.7874 216.461 49.656 217.556 50.14C218.652 50.6232 219.407 51.6466 219.724 52.9438C220.041 54.2417 219.914 55.798 219.251 57.3002C218.588 58.8025 217.524 59.9456 216.351 60.5858C215.179 61.226 213.915 61.3574 212.819 60.8734C211.63 60.3493 210.841 59.1879 210.579 57.7316Z" stroke="#002544" stroke-width="0.583975"/>
<path d="M215.356 56.2772C213.178 54.4071 213.194 51.5777 213.433 50.5747C213.717 50.2492 214.647 49.6126 216.099 49.6674C217.915 49.7353 219.077 50.6638 219.937 53.0712C220.627 54.9976 219.278 57.7584 218.518 58.8978C217.545 58.9519 216.837 58.2518 216.604 57.8949C217.326 57.5386 218.192 56.5386 217.477 55.7225C216.761 54.9064 215.259 56.1926 215.356 56.2772Z" fill="#002544"/>
<path d="M222.899 46.4355C219.676 45.9749 218.02 48.6473 217.595 50.0408L217.936 50.7518C218.052 50.4547 219.55 50.0204 220.643 50.0423C223.959 50.1102 224.851 55.6499 225.251 57.1763L230.245 49.805C229.139 48.8736 226.122 46.8961 222.899 46.4355Z" fill="#002544"/>
<path d="M211.683 54.4811C212.045 54.1278 213.005 53.6277 213.945 54.4497" stroke="#002544" stroke-width="0.583975" stroke-linecap="round"/>
<path d="M211.688 59.3795C211.971 59.3992 212.62 59.289 212.955 58.6875" stroke="#002544" stroke-width="0.583975" stroke-linecap="round"/>
<path d="M211.793 55.7435C212.097 55.3092 212.938 54.6785 213.865 55.6289" stroke="#002544" stroke-width="0.583975" stroke-linecap="round"/>
<path d="M212.824 56.0553C213.058 56.0553 213.248 55.8654 213.248 55.6311C213.248 55.3969 213.058 55.207 212.824 55.207C212.589 55.207 212.399 55.3969 212.399 55.6311C212.399 55.8654 212.589 56.0553 212.824 56.0553Z" fill="#002544"/>
<path d="M215.69 57.0074C215.827 56.7584 216.271 56.2708 216.957 56.3154" stroke="#002544" stroke-width="0.583975" stroke-linecap="round"/>
<path d="M216.315 56.5039C216.503 56.5543 216.805 56.7908 216.516 57.3361" stroke="#002544" stroke-width="0.583975" stroke-linecap="round"/>
<path d="M218.143 59.4336L218.779 64.4806M213.692 61.3578L213.946 63.5849L213.692 61.3578Z" stroke="#002544" stroke-width="0.583975" stroke-linecap="round"/>
<path d="M214.098 62.7627L213.586 61.0414C215.229 61.1998 216.874 60.5063 217.491 60.1406C216.255 61.794 214.714 62.5773 214.098 62.7627Z" fill="#002544"/>
<path d="M215.1 75.1765C222.465 76.6423 224.463 70.4105 224.588 66.7307L218.816 64.5394C218.816 64.5394 217.883 66.1679 215.946 65.6679C214.008 65.1679 213.925 63.4181 213.925 63.4181L207.156 61.5078C206.671 65.3766 207.735 73.7114 215.1 75.1765Z" fill="white" stroke="#002544" stroke-width="0.583975"/>
<path d="M203.639 60.4699C192.589 56.815 182.805 58.5618 180.46 59.1501C176.021 60.2648 165.483 66.6703 172.94 75.2467C180.448 83.699 199.147 89.292 207.558 91.0323L211.722 77.2972L185.814 68.8281" stroke="#002544" stroke-width="0.583975"/>
<path d="M227.136 67.4727C227.136 67.4727 245.469 75.0789 254.046 81.9611C255.272 82.9451 264.239 88.6111 260.509 99.2387C257.526 107.741 248.038 117.2 243.667 120.867L236.893 106.51L247.209 94.453L230.491 86.6847" stroke="#002544" stroke-width="0.583975"/>
<path d="M242.622 118.423L236.851 126.432M237.737 108.512L234.174 110.645L237.737 108.512Z" stroke="#002544" stroke-width="0.583975"/>
<path d="M219.265 83.1777L211.35 78.9688L209.104 86.4487L211.764 88.2591C212.331 90.2219 213.561 94.2565 213.945 94.6923C214.664 95.7172 215.297 95.3471 215.297 94.5178L214.446 89.9599C215.159 91.3775 216.639 94.1295 216.758 94.3215C217.651 95.7668 218.524 94.6923 218.241 93.7112C219.44 95.1507 220.095 93.8638 219.876 92.8827C220.727 93.9295 221.555 93.4929 221.25 92.206L219.026 86.1217L216.169 84.0063C216.424 84.0647 217.608 84.6501 218.916 84.9662C220.836 85.2932 220.857 84.0063 219.265 83.1777Z" stroke="#002544" stroke-width="0.583975"/>
<path d="M211.135 89.348L213.784 94.6877L211.767 88.2012L209.038 86.4609L207.595 91.1079L197.944 88.7151L197.489 92.7496L208.03 94.549L209.256 88.2012L211.135 89.348Z" fill="#002544"/>
<path d="M219.955 93.1295L218.185 88.5M218.251 93.7602L216.53 89.2949L218.251 93.7602Z" stroke="#002544" stroke-width="0.583975" stroke-linecap="round"/>
<path d="M216.53 121.422L219.792 172.615" stroke="#002544" stroke-width="0.583975"/>
<path d="M205.479 175.164V190.102" stroke="#002544" stroke-width="0.583975" stroke-linecap="round"/>
<path d="M210.091 175.164V190.102" stroke="#002544" stroke-width="0.583975" stroke-linecap="round"/>
<path d="M230.262 175.164V190.102" stroke="#002544" stroke-width="0.583975" stroke-linecap="round"/>
<path d="M235.329 175.164V190.102" stroke="#002544" stroke-width="0.583975" stroke-linecap="round"/>
<path d="M141.133 111.192C141.348 111.192 141.522 111.018 141.522 110.803C141.522 110.588 141.348 110.414 141.133 110.414C140.918 110.414 140.744 110.588 140.744 110.803C140.744 111.018 140.918 111.192 141.133 111.192Z" stroke="#002544" stroke-width="0.583975"/>
<path d="M121.861 172.134C122.076 172.134 122.25 171.959 122.25 171.745C122.25 171.53 122.076 171.355 121.861 171.355C121.646 171.355 121.472 171.53 121.472 171.745C121.472 171.959 121.646 172.134 121.861 172.134Z" stroke="#002544" stroke-width="0.583975"/>
<path d="M215.85 20.0711C216.065 20.0711 216.239 19.8969 216.239 19.682C216.239 19.4672 216.065 19.293 215.85 19.293C215.635 19.293 215.461 19.4672 215.461 19.682C215.461 19.8969 215.635 20.0711 215.85 20.0711Z" stroke="#002544" stroke-width="0.583975"/>
<path d="M171.202 139.965L173.345 141.523" stroke="#002544" stroke-width="0.583975" stroke-linecap="round"/>
<path d="M155.093 48.5L157.236 50.0585" stroke="#002544" stroke-width="0.583975" stroke-linecap="round"/>
<path d="M173.746 184.969L171.571 186.483" stroke="#002544" stroke-width="0.583975" stroke-linecap="round"/>
<path d="M66.293 208.707H267.321" stroke="#002544" stroke-width="0.583975" stroke-linecap="round"/>
<path d="M195.531 171.833L244.379 173.409L233.306 104.942C233.23 104.467 232.819 104.117 232.338 104.117H197.128C196.947 104.117 196.8 104.262 196.796 104.443L195.531 171.833Z" stroke="#002544" stroke-width="0.583975"/>
<path d="M133 19.2986L135.31 18" stroke="#002544" stroke-width="0.583975" stroke-linecap="round"/>
<path d="M294.175 180L292 181.515" stroke="#002544" stroke-width="0.583975" stroke-linecap="round"/>
<path d="M280 68L282.143 69.5585" stroke="#002544" stroke-width="0.583975" stroke-linecap="round"/>
<path d="M300 20L301.442 22.2235" stroke="#002544" stroke-width="0.583975" stroke-linecap="round"/>
<path d="M31 183L32.4417 185.223" stroke="#002544" stroke-width="0.583975" stroke-linecap="round"/>
<path d="M56.3891 27.7781C56.604 27.7781 56.7781 27.604 56.7781 27.3891C56.7781 27.1742 56.604 27 56.3891 27C56.1742 27 56 27.1742 56 27.3891C56 27.604 56.1742 27.7781 56.3891 27.7781Z" stroke="#002544" stroke-width="0.583975"/>
<path d="M35.3891 99.7781C35.604 99.7781 35.7781 99.6039 35.7781 99.3891C35.7781 99.1742 35.604 99 35.3891 99C35.1742 99 35 99.1742 35 99.3891C35 99.6039 35.1742 99.7781 35.3891 99.7781Z" stroke="#002544" stroke-width="0.583975"/>
</svg>
