<svg width="335" height="228" viewBox="0 0 335 228" fill="none" xmlns="http://www.w3.org/2000/svg">
<path d="M170.684 71.5247L122.042 53.1602C122.042 53.1602 107.21 75.0008 107.898 90.6251C108.546 105.358 123.455 125.035 123.455 125.035C123.455 125.035 99.2621 129.949 89.0389 140.578C78.1974 151.849 74.8943 178.043 74.8943 178.043L149.856 206.343C149.856 206.343 164.687 184.502 164 168.879C163.352 154.145 148.442 134.468 148.442 134.468C148.442 134.468 172.636 129.554 182.859 118.925C190.37 111.117 194.262 96.1458 195.945 87.6848" stroke="#25272A" stroke-width="0.583975"/>
<path d="M187.365 112.193L111.247 103.426C110.641 105.329 119.248 118.752 123.628 125.226L133.522 137.352C133.522 137.352 139.83 136.665 148.119 134.512C175.679 129.667 185.795 117.621 187.365 112.193Z" fill="#25272A"/>
<path d="M73.3122 176.125L152.314 205.951C152.955 206.194 153.279 206.91 153.036 207.551C152.794 208.192 152.078 208.516 151.437 208.273L72.4355 178.447C71.7938 178.205 71.4705 177.489 71.7128 176.848C71.9552 176.206 72.6713 175.883 73.3122 176.125Z" fill="#25272A"/>
<path d="M170.27 70.048L120.459 51.2425C119.818 51.0002 119.102 51.3243 118.859 51.9652C118.617 52.6061 118.941 53.3229 119.582 53.5645L171.395 73.1255L170.27 70.048Z" fill="#25272A"/>
<path d="M192.421 92.3752C179.978 89.7342 172.484 77.5393 170.283 71.8047C170.728 72.8836 172.614 74.7895 177.058 78.8525C180.613 82.1031 191.151 86.1741 195.976 87.8034C195.722 88.9042 194.91 92.273 193.691 96.9456C190.136 108.881 187.076 112.764 186.956 112.764C191.578 106.315 192.464 96.4382 192.421 92.3752Z" fill="#25272A"/>
<path d="M124.012 158.465L75.1707 177.348C99.3545 187.288 149.569 206.029 149.569 206.029C153.462 201.45 155.295 196.753 157.236 192.683L124.012 158.465Z" fill="#25272A"/>
<path d="M202.876 59.8906L208.472 61.525C207.327 65.0946 208.999 72.5833 213.697 74.0418C221.231 76.3799 223.259 69.2934 223.22 65.8866L227.406 67.1998L233.069 104.262H196.524L197.934 88.8142L207.748 91.3932L209.215 86.5396L211.556 88.0178C212.118 89.9712 213.381 94.0524 213.93 94.7423C214.841 95.8088 215.211 94.9255 215.284 94.3503L214.597 90.5267C215.218 91.664 216.64 94.0992 217.362 94.7423C218.083 95.3854 218.407 94.5919 218.479 94.1152C219.373 94.7897 220.015 93.8342 220.224 93.2721C221.056 93.7897 221.315 93.056 221.342 92.6246L219.067 86.1155L216.99 84.7972C217.368 84.7972 218.71 85.0965 219.558 85.0965C221.251 84.9548 220.485 83.8088 219.89 83.2533L211.556 78.7881L212.059 77.1215L201.623 73.6476L202.876 59.8906Z" fill="#2C68C9"/>
<path d="M230.57 208.708H227.884C226.51 208.708 225.423 207.544 225.518 206.173L226.239 195.772C226.318 194.625 227.208 193.701 228.351 193.578L239.427 192.387C239.894 192.336 240.367 192.426 240.783 192.644L262.87 204.237C263.39 204.51 263.791 204.966 263.993 205.517C264.564 207.066 263.418 208.708 261.768 208.708H233.127" fill="#25272A"/>
<path d="M210.623 208.708H213.308C214.682 208.708 215.769 207.544 215.674 206.173L214.953 195.772C214.874 194.625 213.984 193.701 212.842 193.578L201.765 192.387C201.298 192.336 200.826 192.426 200.41 192.644L178.322 204.237C177.802 204.51 177.402 204.966 177.199 205.517C176.629 207.066 177.774 208.708 179.424 208.708H208.065" fill="#25272A"/>
<path d="M238.818 173.409L240.138 194.143M226.666 195.537L227.03 172.922L226.666 195.537Z" stroke="#25272A" stroke-width="0.583975" stroke-linecap="round"/>
<path d="M202.407 172.922L201.057 194.143M214.506 195.537V172.922V195.537Z" stroke="#25272A" stroke-width="0.583975" stroke-linecap="round"/>
<path d="M239.959 192.636C240.368 190.283 241.591 185.667 243.209 186.028C244.828 186.39 241.717 190.584 239.959 192.636Z" stroke="#25272A" stroke-width="0.583975"/>
<path d="M201.234 192.636C200.826 190.283 199.603 185.667 197.985 186.028C196.366 186.39 199.477 190.584 201.234 192.636Z" stroke="#25272A" stroke-width="0.583975"/>
<path d="M240.039 192.634C241.293 190.601 244.142 186.769 245.51 187.705C246.879 188.642 242.434 191.382 240.039 192.634Z" stroke="#25272A" stroke-width="0.583975"/>
<path d="M201.155 192.634C199.902 190.601 197.053 186.769 195.684 187.705C194.316 188.642 198.762 191.382 201.155 192.634Z" stroke="#25272A" stroke-width="0.583975"/>
<path d="M240.241 192.597C240.851 191.6 242.742 190.075 245.428 191.952C248.114 193.828 250.034 192.303 250.658 191.306" stroke="#25272A" stroke-width="0.583975" stroke-linecap="round"/>
<path d="M200.953 192.597C200.344 191.6 198.452 190.075 195.766 191.952C193.08 193.828 191.16 192.303 190.536 191.306" stroke="#25272A" stroke-width="0.583975" stroke-linecap="round"/>
<path d="M210.579 57.7297L210.537 57.4917L210.295 57.4888C209.989 57.4859 209.615 57.4625 209.291 57.4362C210.013 56.7829 210.454 55.9398 210.695 54.9675C210.798 54.5485 210.941 54.128 211.124 53.7112C211.787 52.2089 212.852 51.0658 214.024 50.4256C215.196 49.7854 216.461 49.654 217.556 50.138C218.652 50.6213 219.407 51.6447 219.724 52.9418C220.041 54.2397 219.913 55.796 219.25 57.2983C218.588 58.8006 217.523 59.9437 216.351 60.5839C215.179 61.2241 213.914 61.3555 212.819 60.8715C211.63 60.3474 210.84 59.186 210.579 57.7297Z" stroke="#25272A" stroke-width="0.583975"/>
<path d="M215.356 56.2772C213.178 54.4071 213.194 51.5777 213.433 50.5747C213.717 50.2492 214.648 49.6126 216.099 49.6674C217.915 49.7353 219.077 50.6638 219.938 53.0712C220.627 54.9976 219.278 57.7584 218.518 58.8978C217.546 58.9519 216.837 58.2518 216.604 57.8949C217.326 57.5386 218.192 56.5386 217.477 55.7225C216.762 54.9064 215.259 56.1926 215.356 56.2772Z" fill="#25272A"/>
<path d="M222.899 46.4355C219.676 45.9749 218.02 48.6473 217.595 50.0408L217.936 50.7518C218.052 50.4547 219.55 50.0204 220.643 50.0423C223.959 50.1102 224.851 55.6499 225.251 57.1763L230.245 49.805C229.139 48.8736 226.122 46.8961 222.899 46.4355Z" fill="#25272A"/>
<path d="M211.683 54.4811C212.045 54.1278 213.005 53.6277 213.945 54.4497" stroke="#25272A" stroke-width="0.583975" stroke-linecap="round"/>
<path d="M211.688 59.3776C211.971 59.3973 212.621 59.287 212.955 58.6855" stroke="#25272A" stroke-width="0.583975" stroke-linecap="round"/>
<path d="M211.793 55.7435C212.097 55.3092 212.938 54.6785 213.864 55.6289" stroke="#25272A" stroke-width="0.583975" stroke-linecap="round"/>
<path d="M212.824 56.0553C213.058 56.0553 213.248 55.8654 213.248 55.6311C213.248 55.3969 213.058 55.207 212.824 55.207C212.59 55.207 212.4 55.3969 212.4 55.6311C212.4 55.8654 212.59 56.0553 212.824 56.0553Z" fill="#25272A"/>
<path d="M215.69 57.0054C215.827 56.7565 216.271 56.2689 216.957 56.3134" stroke="#25272A" stroke-width="0.583975" stroke-linecap="round"/>
<path d="M216.316 56.5039C216.503 56.5543 216.805 56.7908 216.516 57.3361" stroke="#25272A" stroke-width="0.583975" stroke-linecap="round"/>
<path d="M218.143 59.4336L218.779 64.4806M213.692 61.3578L213.946 63.5849L213.692 61.3578Z" stroke="#25272A" stroke-width="0.583975" stroke-linecap="round"/>
<path d="M214.098 62.7646L213.586 61.0434C215.229 61.2018 216.874 60.5083 217.491 60.1426C216.255 61.796 214.714 62.5792 214.098 62.7646Z" fill="#25272A"/>
<path d="M215.1 75.1745C222.465 76.6403 224.463 70.4086 224.588 66.7288L218.816 64.5374C218.816 64.5374 217.883 66.166 215.945 65.666C214.008 65.1659 213.925 63.4162 213.925 63.4162L207.156 61.5059C206.67 65.3747 207.735 73.7095 215.1 75.1745Z" fill="white" stroke="#25272A" stroke-width="0.583975"/>
<path d="M203.64 60.4699C192.589 56.815 182.805 58.5618 180.461 59.1501C176.021 60.2648 165.483 66.6703 172.941 75.2467C180.448 83.699 199.147 89.292 207.559 91.0323L211.722 77.2972L185.814 68.8281" stroke="#25272A" stroke-width="0.583975"/>
<path d="M227.136 67.4727C227.136 67.4727 245.469 75.0789 254.046 81.9611C255.272 82.9451 264.239 88.6111 260.509 99.2387C257.526 107.741 248.038 117.2 243.667 120.867L236.893 106.51L247.209 94.453L230.491 86.6847" stroke="#25272A" stroke-width="0.583975"/>
<path d="M242.622 118.423L236.852 126.432M237.737 108.512L234.174 110.645L237.737 108.512Z" stroke="#25272A" stroke-width="0.583975"/>
<path d="M219.265 83.1777L211.349 78.9688L209.103 86.4487L211.763 88.2591C212.33 90.2219 213.56 94.2565 213.944 94.6923C214.664 95.7172 215.296 95.3471 215.296 94.5178L214.446 89.9599C215.158 91.3775 216.638 94.1295 216.757 94.3215C217.65 95.7668 218.524 94.6923 218.24 93.7112C219.439 95.1507 220.094 93.8638 219.876 92.8827C220.726 93.9295 221.555 93.4929 221.25 92.206L219.026 86.1217L216.168 84.0063C216.423 84.0647 217.607 84.6501 218.916 84.9662C220.835 85.2932 220.857 84.0063 219.265 83.1777Z" stroke="#25272A" stroke-width="0.583975"/>
<path d="M211.134 89.346L213.784 94.6857L211.767 88.1992L209.038 86.459L207.594 91.106L197.944 88.7131L197.489 92.7477L208.03 94.547L209.255 88.1992L211.134 89.346Z" fill="#25272A"/>
<path d="M219.955 93.1275L218.185 88.498M218.251 93.7582L216.53 89.293L218.251 93.7582Z" stroke="#25272A" stroke-width="0.583975" stroke-linecap="round"/>
<path d="M216.53 121.42L219.792 172.613" stroke="#25272A" stroke-width="0.583975"/>
<path d="M205.478 175.162V190.1" stroke="#25272A" stroke-width="0.583975" stroke-linecap="round"/>
<path d="M210.091 175.162V190.1" stroke="#25272A" stroke-width="0.583975" stroke-linecap="round"/>
<path d="M230.262 175.162V190.1" stroke="#25272A" stroke-width="0.583975" stroke-linecap="round"/>
<path d="M235.329 175.162V190.1" stroke="#25272A" stroke-width="0.583975" stroke-linecap="round"/>
<path d="M141.133 111.19C141.348 111.19 141.523 111.016 141.523 110.801C141.523 110.586 141.348 110.412 141.133 110.412C140.919 110.412 140.744 110.586 140.744 110.801C140.744 111.016 140.919 111.19 141.133 111.19Z" stroke="#25272A" stroke-width="0.583975"/>
<path d="M121.861 172.136C122.076 172.136 122.25 171.961 122.25 171.747C122.25 171.532 122.076 171.357 121.861 171.357C121.646 171.357 121.472 171.532 121.472 171.747C121.472 171.961 121.646 172.136 121.861 172.136Z" stroke="#25272A" stroke-width="0.583975"/>
<path d="M215.85 20.0711C216.064 20.0711 216.239 19.8969 216.239 19.682C216.239 19.4672 216.064 19.293 215.85 19.293C215.635 19.293 215.46 19.4672 215.46 19.682C215.46 19.8969 215.635 20.0711 215.85 20.0711Z" stroke="#25272A" stroke-width="0.583975"/>
<path d="M171.202 139.965L173.345 141.523" stroke="#25272A" stroke-width="0.583975" stroke-linecap="round"/>
<path d="M155.093 48.498L157.236 50.0565" stroke="#25272A" stroke-width="0.583975" stroke-linecap="round"/>
<path d="M173.746 184.967L171.571 186.481" stroke="#25272A" stroke-width="0.583975" stroke-linecap="round"/>
<path d="M66.2927 208.707H267.32" stroke="#25272A" stroke-width="0.583975" stroke-linecap="round"/>
<path d="M195.531 171.833L244.379 173.409L233.306 104.942C233.23 104.467 232.819 104.117 232.337 104.117H197.128C196.947 104.117 196.8 104.262 196.796 104.443L195.531 171.833Z" stroke="#25272A" stroke-width="0.583975"/>
<path d="M133 19.2986L135.31 18" stroke="#25272A" stroke-width="0.583975" stroke-linecap="round"/>
<path d="M294.175 180L292 181.515" stroke="#25272A" stroke-width="0.583975" stroke-linecap="round"/>
<path d="M280 68L282.143 69.5585" stroke="#25272A" stroke-width="0.583975" stroke-linecap="round"/>
<path d="M300 20L301.442 22.2235" stroke="#25272A" stroke-width="0.583975" stroke-linecap="round"/>
<path d="M31 183L32.4417 185.223" stroke="#25272A" stroke-width="0.583975" stroke-linecap="round"/>
<path d="M56.3891 27.7781C56.604 27.7781 56.7781 27.604 56.7781 27.3891C56.7781 27.1742 56.604 27 56.3891 27C56.1742 27 56 27.1742 56 27.3891C56 27.604 56.1742 27.7781 56.3891 27.7781Z" stroke="#25272A" stroke-width="0.583975"/>
<path d="M35.3891 99.7781C35.604 99.7781 35.7781 99.6039 35.7781 99.3891C35.7781 99.1742 35.604 99 35.3891 99C35.1742 99 35 99.1742 35 99.3891C35 99.6039 35.1742 99.7781 35.3891 99.7781Z" stroke="#25272A" stroke-width="0.583975"/>
</svg>
