<svg width="124" height="124" viewBox="0 0 124 124" fill="none" xmlns="http://www.w3.org/2000/svg">
<circle cx="62" cy="62" r="62" fill="#E9F6F6"/>
<path d="M49.5171 85.7415L51.1729 91.0795C51.5964 92.448 52.8666 93.3781 54.2956 93.3781H70.4534C71.89 93.3781 73.1527 92.448 73.5761 91.0795L75.232 85.7415" stroke="#25272A" stroke-width="1.5"/>
<path d="M75.2471 37.7444L73.5988 32.55C73.1678 31.189 71.9051 30.2666 70.4761 30.2666H54.2881C52.859 30.2666 51.5964 31.189 51.1654 32.55L49.5171 37.7444" stroke="#25272A" stroke-width="1.5"/>
<path d="M48.8816 85.5827H75.0652C80.1764 85.5827 84.3274 81.4393 84.3274 76.3205V46.9234C84.3274 41.8122 80.184 37.6613 75.0652 37.6613H48.8816C43.7704 37.6613 39.6194 41.8047 39.6194 46.9234V76.3281C39.6269 81.4393 43.7704 85.5827 48.8816 85.5827Z" stroke="#25272A" stroke-width="1.5"/>
<path d="M37.8049 59.7317C38.6462 59.7317 39.3171 59.2361 39.3171 58.6321V50.2459C39.3171 49.6341 38.6356 49.1463 37.8049 49.1463C36.9636 49.1463 36.2927 49.6419 36.2927 50.2459V58.6243C36.2927 59.2361 36.9743 59.7317 37.8049 59.7317Z" stroke="#25272A" stroke-width="1.5"/>
<path d="M62.3783 48.9421C69.4856 48.9421 75.2395 54.7036 75.2395 61.8034C75.2395 68.9031 69.4856 74.6721 62.3783 74.6721C55.271 74.6721 49.5171 68.9107 49.5171 61.8109" stroke="#25272A" stroke-width="1.5" stroke-linecap="round" stroke-linejoin="round"/>
<path d="M62.3782 52.8058C67.3533 52.8058 71.3833 56.8358 71.3833 61.8109C71.3833 66.786 67.3533 70.816 62.3782 70.816C57.403 70.816 53.373 66.786 53.373 61.8109" stroke="#25272A" stroke-width="1.5" stroke-linecap="round" stroke-linejoin="round"/>
<path d="M62.3783 57.4709C64.7752 57.4709 66.7183 59.4141 66.7183 61.8109C66.7183 64.2077 64.7752 66.1509 62.3783 66.1509C59.9815 66.1509 58.0383 64.2077 58.0383 61.8109" stroke="#25272A" stroke-width="1.5" stroke-linecap="round" stroke-linejoin="round"/>
</svg>
